<?xml version="1.0" encoding="iso-8859-1"?>
<!-- Generator: Adobe Illustrator 25.0.0, SVG Export Plug-In . SVG Version: 6.00 Build 0)  -->
<svg version="1.1" id="Layer_1" xmlns="http://www.w3.org/2000/svg" xmlns:xlink="http://www.w3.org/1999/xlink" x="0px" y="0px"
	 width="650px" height="500px" viewBox="0 0 650 500" enable-background="new 0 0 650 500" xml:space="preserve">
<path fill="#695F4D" d="M485.35,94.018h-9.272h-9.272H356.622H246.438v18.544v18.544v11.453v11.453v11.453v11.453h2.312h2.312
	v-11.453v-11.453V142.56v-11.453h107.872h107.872h9.272h9.272l-9.272-9.272l-9.272-9.272l9.272-9.272L485.35,94.018z
	 M271.867,124.02h-2.32h-2.32l-4.617-7.469l-4.617-7.469v7.469v7.469h-2.148h-2.148v-11.453v-11.453h2.25h2.25l4.688,7.648
	l4.688,7.648v-7.648v-7.648h2.148h2.148v11.453V124.02z M281.242,124.02h-2.312h-2.312v-11.453v-11.453h2.312h2.312v11.453V124.02z
	 M303.07,124.02h-8.711h-8.711v-11.453v-11.453h8.492h8.492v1.938v1.938h-6.18h-6.18v2.539v2.539h5.75h5.75v1.93v1.93h-5.75h-5.75
	v3.117v3.117h6.398h6.398v1.93V124.02z M325.227,113.145c0,1.375-0.031,2.548-0.094,3.52s-0.156,1.741-0.281,2.308
	c-0.125,0.568-0.303,1.091-0.533,1.57s-0.514,0.914-0.85,1.305s-0.729,0.742-1.178,1.053s-0.955,0.583-1.518,0.814
	s-1.211,0.405-1.945,0.521s-1.555,0.174-2.461,0.174c-1.094,0-2.055-0.063-2.885-0.19s-1.527-0.316-2.092-0.568
	c-0.565-0.252-1.071-0.543-1.518-0.871s-0.834-0.694-1.162-1.098c-0.328-0.403-0.6-0.817-0.817-1.24s-0.376-0.856-0.48-1.299
	c-0.151-0.656-0.265-1.469-0.34-2.438s-0.113-2.094-0.113-3.375v-6.109v-6.109h2.312h2.312v6.203v6.203
	c0,0.984,0.014,1.796,0.043,2.434s0.072,1.103,0.129,1.394c0.099,0.469,0.266,0.891,0.502,1.268s0.54,0.706,0.912,0.99
	c0.372,0.284,0.813,0.497,1.322,0.639s1.087,0.213,1.733,0.213c0.656,0,1.232-0.067,1.726-0.201s0.909-0.335,1.242-0.604
	c0.333-0.268,0.6-0.567,0.8-0.896s0.335-0.69,0.403-1.08c0.067-0.391,0.118-0.91,0.152-1.559s0.051-1.426,0.051-2.332v-6.336v-6.336
	h2.312h2.312v6.016V113.145z M352.383,124.02h-2.453h-2.453l-2.281-8.562l-2.281-8.562l-2.273,8.562l-2.273,8.562h-2.508h-2.508
	l-2.734-11.453l-2.734-11.453h2.367h2.367l1.727,7.867l1.727,7.867l2.094-7.867l2.094-7.867h2.75h2.75l2.008,8l2.008,8l1.758-8
	l1.758-8h2.328h2.328l-2.781,11.453L352.383,124.02z M367.758,117.911h-4.312h-4.312v-2.195v-2.195h4.312h4.312v2.195V117.911z
	 M392.602,124.02h-2.453h-2.453l-2.281-8.562l-2.281-8.562l-2.273,8.562l-2.273,8.562h-2.508h-2.508l-2.734-11.453l-2.734-11.453
	h2.367h2.367l1.727,7.867l1.727,7.867l2.094-7.867l2.094-7.867h2.75h2.75l2.008,8l2.008,8l1.758-8l1.758-8h2.328h2.328
	l-2.781,11.453L392.602,124.02z M417.945,124.02h-8.711h-8.711v-11.453v-11.453h8.492h8.492v1.938v1.938h-6.18h-6.18v2.539v2.539
	h5.75h5.75v1.93v1.93h-5.75h-5.75v3.117v3.117h6.398h6.398v1.93V124.02z M438.227,121.036c-0.365,0.573-0.805,1.073-1.321,1.499
	s-1.107,0.778-1.773,1.056c-0.667,0.278-1.416,0.487-2.246,0.627s-1.743,0.209-2.738,0.209c-1.448,0-2.728-0.167-3.84-0.502
	s-2.056-0.837-2.832-1.506c-0.776-0.669-1.396-1.491-1.86-2.467s-0.771-2.104-0.922-3.385l2.25-0.219l2.25-0.219
	c0.135,0.755,0.34,1.41,0.615,1.965s0.619,1.009,1.033,1.363c0.414,0.354,0.9,0.62,1.459,0.797s1.189,0.265,1.893,0.265
	c0.745,0,1.397-0.079,1.959-0.236s1.031-0.394,1.409-0.709c0.377-0.315,0.661-0.657,0.849-1.025s0.283-0.764,0.283-1.186
	c0-0.271-0.04-0.521-0.119-0.751s-0.199-0.441-0.357-0.631c-0.159-0.19-0.377-0.368-0.655-0.533s-0.614-0.318-1.009-0.459
	c-0.271-0.094-0.715-0.224-1.332-0.391s-1.407-0.37-2.371-0.609c-1.24-0.307-2.294-0.649-3.164-1.027s-1.555-0.79-2.055-1.239
	c-0.703-0.63-1.23-1.329-1.582-2.097s-0.527-1.606-0.527-2.512c0-0.583,0.083-1.147,0.248-1.693s0.413-1.073,0.744-1.58
	c0.331-0.508,0.734-0.955,1.211-1.342s1.026-0.713,1.649-0.979c0.622-0.266,1.309-0.465,2.06-0.598s1.567-0.199,2.448-0.199
	c1.438,0,2.697,0.158,3.779,0.473s1.986,0.788,2.713,1.418c0.727,0.63,1.281,1.366,1.662,2.207s0.59,1.788,0.627,2.839l-2.312,0.102
	l-2.312,0.102c-0.099-0.588-0.255-1.094-0.467-1.517s-0.481-0.764-0.806-1.022c-0.326-0.258-0.733-0.451-1.221-0.58
	s-1.058-0.193-1.709-0.193c-0.672,0-1.271,0.069-1.797,0.207s-0.979,0.345-1.359,0.621c-0.245,0.177-0.429,0.384-0.551,0.621
	s-0.183,0.504-0.183,0.801c0,0.271,0.057,0.522,0.172,0.754s0.286,0.444,0.516,0.636c0.292,0.245,0.792,0.495,1.5,0.75
	s1.625,0.515,2.75,0.781s2.104,0.536,2.936,0.811s1.518,0.554,2.057,0.838c0.539,0.284,1.02,0.62,1.441,1.008s0.785,0.828,1.09,1.32
	s0.533,1.042,0.686,1.651s0.229,1.274,0.229,1.998c0,0.656-0.091,1.292-0.274,1.906S438.591,120.463,438.227,121.036z
	 M459.773,104.989h-3.391h-3.391v9.516v9.516h-2.312h-2.312v-9.516v-9.516h-3.398h-3.398v-1.938v-1.938h9.102h9.102v1.938V104.989z"
	/>
<polygon fill="#F16522" points="319.062,291.451 273.203,176.919 248.75,176.919 224.297,176.919 179.688,291.451 135.078,405.982 
	159.609,405.982 184.141,405.982 314.609,405.982 339.766,405.982 364.922,405.982 "/>
<path fill="#695F4D" d="M217.755,226.616c2.586-2.461,6.131-3.701,10.637-3.723c4.766-0.023,8.473,1.19,11.121,3.638
	c2.648,2.448,3.982,5.677,4.002,9.688c0.017,3.503-1.005,6.353-3.065,8.55c-1.218,1.308-2.971,2.292-5.259,2.955l-1.395-5.716
	c1.483-0.346,2.651-1.058,3.505-2.136c0.854-1.078,1.278-2.386,1.27-3.922c-0.01-2.123-0.78-3.841-2.31-5.155
	c-1.53-1.314-4.001-1.963-7.412-1.947c-3.62,0.017-6.195,0.681-7.725,1.99c-1.53,1.309-2.29,3.006-2.28,5.089
	c0.007,1.536,0.502,2.856,1.484,3.957s2.522,1.889,4.621,2.361l-1.75,5.614c-3.129-0.844-5.457-2.262-6.983-4.254
	c-1.527-1.992-2.297-4.523-2.312-7.596C213.885,232.207,215.169,229.076,217.755,226.616z"/>
<polygon fill="#695F4D" points="214.852,309.436 214.784,304.065 237.321,303.783 214.713,298.382 214.643,292.816 237.109,286.87 
	214.572,287.153 214.505,281.782 243.135,281.423 243.244,290.075 223.779,295.514 243.373,300.406 243.482,309.077 "/>
<path fill="#695F4D" d="M243.448,324.208c0.017,3.516-0.116,5.808-0.397,6.877c-0.422,1.643-1.35,3.021-2.783,4.134
	c-1.434,1.113-3.29,1.676-5.568,1.687c-1.758,0.008-3.237-0.304-4.438-0.936c-1.201-0.632-2.146-1.438-2.834-2.418
	c-0.688-0.98-1.146-1.977-1.372-2.991c-0.28-1.379-0.426-3.377-0.439-5.994l-0.018-3.77l-10.801,0.052l-0.028-5.781l28.633-0.137
	L243.448,324.208z"/>
<polygon fill="#695F4D" points="243.145,260.967 243.174,267.08 214.597,278.682 214.566,272.393 214.488,256.084 214.459,249.952 
	"/>
<path fill="#695F4D" d="M215.384,347.243c0.625-1.416,1.44-2.536,2.445-3.361c1.005-0.825,2.06-1.37,3.166-1.636
	c1.639-0.386,4.06-0.586,7.263-0.601l15.273-0.073l0.028,5.781l-15.508,0.074c-2.461,0.012-4.056,0.091-4.784,0.238
	c-1.171,0.253-2.109,0.847-2.814,1.781c-0.706,0.934-1.054,2.209-1.046,3.823c0.008,1.641,0.349,2.876,1.024,3.706
	c0.674,0.83,1.501,1.328,2.478,1.492s2.599,0.241,4.864,0.231l15.84-0.076l0.028,5.781l-15.039,0.072
	c-3.438,0.016-5.867-0.128-7.287-0.434c-1.421-0.306-2.621-0.876-3.602-1.711c-0.981-0.835-1.764-1.955-2.35-3.358
	c-0.586-1.404-0.885-3.238-0.896-5.504C214.454,350.734,214.76,348.659,215.384,347.243z"/>
<path fill="#695F4D" d="M241.882,388.64c-1.567,1.824-3.665,2.788-6.295,2.892l-0.282-5.78c1.47-0.254,2.526-0.79,3.166-1.607
	c0.641-0.817,0.957-2.039,0.949-3.667c-0.008-1.68-0.36-2.993-1.054-3.94c-0.446-0.61-1.04-0.913-1.782-0.909
	c-0.677,0.003-1.255,0.292-1.734,0.868c-0.609,0.732-1.238,2.506-1.889,5.322s-1.328,4.899-2.031,6.25
	c-0.703,1.351-1.668,2.41-2.895,3.178c-1.227,0.768-2.745,1.156-4.555,1.165c-1.641,0.008-3.179-0.441-4.616-1.345
	c-1.437-0.904-2.508-2.188-3.212-3.852c-0.704-1.664-1.063-3.738-1.075-6.225c-0.017-3.62,0.806-6.403,2.47-8.352
	c1.664-1.948,4.096-3.118,7.298-3.511l0.574,5.622c-1.887,0.348-3.27,1.041-4.15,2.08c-0.881,1.04-1.316,2.438-1.308,4.196
	c0.009,1.862,0.409,3.263,1.202,4.203c0.792,0.94,1.716,1.408,2.77,1.403c0.677-0.003,1.252-0.204,1.726-0.604
	c0.473-0.4,0.883-1.095,1.23-2.086c0.231-0.678,0.64-2.223,1.228-4.635c0.753-3.102,1.687-5.281,2.801-6.537
	c1.567-1.765,3.483-2.654,5.749-2.664c1.458-0.007,2.824,0.399,4.098,1.22s2.246,2.008,2.917,3.56s1.013,3.43,1.023,5.63
	C244.223,384.107,243.448,386.816,241.882,388.64z"/>
<path fill="#695F4D" d="M279.966,223.681l0.055,11.445c0.011,2.265-0.076,3.955-0.259,5.069c-0.184,1.114-0.573,2.112-1.167,2.994
	c-0.595,0.882-1.389,1.618-2.382,2.209c-0.993,0.591-2.109,0.889-3.345,0.895c-1.341,0.006-2.573-0.349-3.697-1.066
	c-1.124-0.717-1.968-1.693-2.534-2.927c-0.499,1.748-1.359,3.093-2.578,4.036c-1.22,0.943-2.656,1.419-4.31,1.427
	c-1.302,0.006-2.57-0.291-3.803-0.89c-1.233-0.6-2.221-1.422-2.961-2.466c-0.741-1.044-1.2-2.335-1.376-3.87
	c-0.109-0.963-0.185-3.287-0.229-6.971l-0.047-9.746L279.966,223.681z"/>
<path fill="#695F4D" d="M251.958,258.18c0.625-1.416,1.44-2.536,2.445-3.361c1.005-0.825,2.06-1.37,3.166-1.636
	c1.639-0.386,4.06-0.586,7.263-0.601l15.273-0.073l0.028,5.781l-15.508,0.074c-2.461,0.012-4.056,0.091-4.784,0.238
	c-1.171,0.253-2.109,0.847-2.814,1.781c-0.706,0.934-1.054,2.209-1.046,3.823c0.008,1.641,0.349,2.876,1.024,3.706
	c0.674,0.83,1.501,1.328,2.478,1.492s2.599,0.241,4.864,0.231l15.84-0.076l0.028,5.781l-15.039,0.072
	c-3.437,0.016-5.867-0.128-7.287-0.434c-1.421-0.306-2.621-0.876-3.602-1.711c-0.981-0.835-1.764-1.954-2.35-3.358
	c-0.586-1.403-0.885-3.238-0.896-5.504C251.027,261.671,251.333,259.596,251.958,258.18z"/>
<path fill="#695F4D" d="M252.096,287.067c0.625-1.416,1.44-2.536,2.445-3.361c1.005-0.825,2.06-1.37,3.166-1.636
	c1.639-0.386,4.06-0.586,7.263-0.601l15.273-0.073l0.028,5.781l-15.508,0.074c-2.461,0.012-4.056,0.091-4.784,0.238
	c-1.171,0.253-2.109,0.847-2.814,1.781c-0.706,0.934-1.054,2.209-1.046,3.823c0.008,1.641,0.349,2.876,1.024,3.706
	c0.674,0.83,1.5,1.328,2.478,1.492c0.977,0.164,2.599,0.241,4.864,0.23l15.84-0.076l0.028,5.781l-15.039,0.072
	c-3.437,0.017-5.867-0.128-7.287-0.434c-1.421-0.306-2.621-0.876-3.602-1.711s-1.764-1.954-2.35-3.358
	c-0.586-1.404-0.885-3.238-0.896-5.504C251.166,290.557,251.472,288.483,252.096,287.067z"/>
<path fill="#695F4D" d="M251.84,329.305l6.21-4.209c2.219-1.495,3.617-2.517,4.194-3.067c0.576-0.55,0.971-1.131,1.183-1.744
	s0.315-1.583,0.308-2.912l-0.006-1.172l-11.953,0.057l-0.028-5.781l28.633-0.137l0.058,12.168c0.015,3.06-0.232,5.284-0.74,6.674
	c-0.508,1.389-1.417,2.504-2.728,3.343c-1.311,0.839-2.813,1.264-4.506,1.272c-2.148,0.01-3.926-0.613-5.331-1.869
	c-1.406-1.256-2.297-3.14-2.674-5.651c-0.724,1.253-1.519,2.29-2.388,3.107c-0.869,0.818-2.413,1.923-4.633,3.313l-5.569,3.523
	L251.84,329.305z"/>
<polygon fill="#695F4D" points="275.776,359.932 275.735,351.456 251.946,351.57 251.919,345.789 275.708,345.675 275.667,337.179 
	280.51,337.156 280.62,359.909 "/>
<g>
</g>
<g>
</g>
<g>
</g>
<g>
</g>
<g>
</g>
<g>
</g>
<g>
</g>
<g>
</g>
<g>
</g>
<g>
</g>
<g>
</g>
<g>
</g>
<g>
</g>
<g>
</g>
<g>
</g>
</svg>
