<?xml version="1.0" encoding="iso-8859-1"?>
<!-- Generator: Adobe Illustrator 25.0.0, SVG Export Plug-In . SVG Version: 6.00 Build 0)  -->
<svg version="1.1" id="Layer_1" xmlns="http://www.w3.org/2000/svg" xmlns:xlink="http://www.w3.org/1999/xlink" x="0px" y="0px"
	 width="650px" height="500px" viewBox="0 0 650 500" enable-background="new 0 0 650 500" xml:space="preserve">
<path fill="#005A63" d="M485.35,94.018h-9.272h-9.272H356.622H246.438v18.544v18.544v11.453v11.453v11.453v11.453h2.312h2.312
	v-11.453v-11.453V142.56v-11.453h107.872h107.872h9.272h9.272l-9.272-9.272l-9.272-9.272l9.272-9.272L485.35,94.018z
	 M271.867,124.02h-2.32h-2.32l-4.617-7.469l-4.617-7.469v7.469v7.469h-2.148h-2.148v-11.453v-11.453h2.25h2.25l4.688,7.648
	l4.688,7.648v-7.648v-7.648h2.148h2.148v11.453V124.02z M281.242,124.02h-2.312h-2.312v-11.453v-11.453h2.312h2.312v11.453V124.02z
	 M303.07,124.02h-8.711h-8.711v-11.453v-11.453h8.492h8.492v1.938v1.938h-6.18h-6.18v2.539v2.539h5.75h5.75v1.93v1.93h-5.75h-5.75
	v3.117v3.117h6.398h6.398v1.93V124.02z M325.227,113.145c0,1.375-0.031,2.548-0.094,3.52s-0.156,1.741-0.281,2.308
	c-0.125,0.568-0.303,1.091-0.533,1.57s-0.514,0.914-0.85,1.305s-0.729,0.742-1.178,1.053s-0.955,0.583-1.518,0.814
	s-1.211,0.405-1.945,0.521s-1.555,0.174-2.461,0.174c-1.094,0-2.055-0.063-2.885-0.19s-1.527-0.316-2.092-0.568
	c-0.565-0.252-1.071-0.543-1.518-0.871s-0.834-0.694-1.162-1.098c-0.328-0.403-0.6-0.817-0.817-1.24s-0.376-0.856-0.48-1.299
	c-0.151-0.656-0.265-1.469-0.34-2.438s-0.113-2.094-0.113-3.375v-6.109v-6.109h2.312h2.312v6.203v6.203
	c0,0.984,0.014,1.796,0.043,2.434s0.072,1.103,0.129,1.394c0.099,0.469,0.266,0.891,0.502,1.268s0.54,0.706,0.912,0.99
	c0.372,0.284,0.813,0.497,1.322,0.639s1.087,0.213,1.733,0.213c0.656,0,1.232-0.067,1.726-0.201s0.909-0.335,1.242-0.604
	c0.333-0.268,0.6-0.567,0.8-0.896s0.335-0.69,0.403-1.08c0.067-0.391,0.118-0.91,0.152-1.559s0.051-1.426,0.051-2.332v-6.336v-6.336
	h2.312h2.312v6.016V113.145z M352.383,124.02h-2.453h-2.453l-2.281-8.562l-2.281-8.562l-2.273,8.562l-2.273,8.562h-2.508h-2.508
	l-2.734-11.453l-2.734-11.453h2.367h2.367l1.727,7.867l1.727,7.867l2.094-7.867l2.094-7.867h2.75h2.75l2.008,8l2.008,8l1.758-8
	l1.758-8h2.328h2.328l-2.781,11.453L352.383,124.02z M367.758,117.911h-4.312h-4.312v-2.195v-2.195h4.312h4.312v2.195V117.911z
	 M392.602,124.02h-2.453h-2.453l-2.281-8.562l-2.281-8.562l-2.273,8.562l-2.273,8.562h-2.508h-2.508l-2.734-11.453l-2.734-11.453
	h2.367h2.367l1.727,7.867l1.727,7.867l2.094-7.867l2.094-7.867h2.75h2.75l2.008,8l2.008,8l1.758-8l1.758-8h2.328h2.328
	l-2.781,11.453L392.602,124.02z M417.945,124.02h-8.711h-8.711v-11.453v-11.453h8.492h8.492v1.938v1.938h-6.18h-6.18v2.539v2.539
	h5.75h5.75v1.93v1.93h-5.75h-5.75v3.117v3.117h6.398h6.398v1.93V124.02z M438.227,121.036c-0.365,0.573-0.805,1.073-1.321,1.499
	s-1.107,0.778-1.773,1.056c-0.667,0.278-1.416,0.487-2.246,0.627s-1.743,0.209-2.738,0.209c-1.448,0-2.728-0.167-3.84-0.502
	s-2.056-0.837-2.832-1.506c-0.776-0.669-1.396-1.491-1.86-2.467s-0.771-2.104-0.922-3.385l2.25-0.219l2.25-0.219
	c0.135,0.755,0.34,1.41,0.615,1.965s0.619,1.009,1.033,1.363c0.414,0.354,0.9,0.62,1.459,0.797s1.189,0.265,1.893,0.265
	c0.745,0,1.397-0.079,1.959-0.236s1.031-0.394,1.409-0.709c0.377-0.315,0.661-0.657,0.849-1.025s0.283-0.764,0.283-1.186
	c0-0.271-0.04-0.521-0.119-0.751s-0.199-0.441-0.357-0.631c-0.159-0.19-0.377-0.368-0.655-0.533s-0.614-0.318-1.009-0.459
	c-0.271-0.094-0.715-0.224-1.332-0.391s-1.407-0.37-2.371-0.609c-1.24-0.307-2.294-0.649-3.164-1.027s-1.555-0.79-2.055-1.239
	c-0.703-0.63-1.23-1.329-1.582-2.097s-0.527-1.606-0.527-2.512c0-0.583,0.083-1.147,0.248-1.693s0.413-1.073,0.744-1.58
	c0.331-0.508,0.734-0.955,1.211-1.342s1.026-0.713,1.649-0.979c0.622-0.266,1.309-0.465,2.06-0.598s1.567-0.199,2.448-0.199
	c1.438,0,2.697,0.158,3.779,0.473s1.986,0.788,2.713,1.418c0.727,0.63,1.281,1.366,1.662,2.207s0.59,1.788,0.627,2.839l-2.312,0.102
	l-2.312,0.102c-0.099-0.588-0.255-1.094-0.467-1.517s-0.481-0.764-0.806-1.022c-0.326-0.258-0.733-0.451-1.221-0.58
	s-1.058-0.193-1.709-0.193c-0.672,0-1.271,0.069-1.797,0.207s-0.979,0.345-1.359,0.621c-0.245,0.177-0.429,0.384-0.551,0.621
	s-0.183,0.504-0.183,0.801c0,0.271,0.057,0.522,0.172,0.754s0.286,0.444,0.516,0.636c0.292,0.245,0.792,0.495,1.5,0.75
	s1.625,0.515,2.75,0.781s2.104,0.536,2.936,0.811s1.518,0.554,2.057,0.838c0.539,0.284,1.02,0.62,1.441,1.008s0.785,0.828,1.09,1.32
	s0.533,1.042,0.686,1.651s0.229,1.274,0.229,1.998c0,0.656-0.091,1.292-0.274,1.906S438.591,120.463,438.227,121.036z
	 M459.773,104.989h-3.391h-3.391v9.516v9.516h-2.312h-2.312v-9.516v-9.516h-3.398h-3.398v-1.938v-1.938h9.102h9.102v1.938V104.989z"
	/>
<polygon fill="#F16522" points="319.062,291.451 273.203,176.919 248.75,176.919 224.297,176.919 179.688,291.451 135.078,405.982 
	159.609,405.982 184.141,405.982 314.609,405.982 339.766,405.982 364.922,405.982 "/>
<polygon fill="#005A63" points="213.487,244.43 218.196,245.565 216.209,253.806 239.335,259.382 237.98,265.002 214.854,259.426 
	212.862,267.685 208.154,266.55 "/>
<path fill="#005A63" d="M204.72,280.79c0.717-2.974,1.489-5.076,2.313-6.303c0.825-1.227,1.975-2.092,3.448-2.594
	c1.474-0.501,3.034-0.554,4.679-0.158c2.089,0.504,3.665,1.534,4.73,3.089c1.065,1.556,1.48,3.599,1.245,6.127
	c1.002-1.044,2.023-1.86,3.061-2.446c1.039-0.586,2.802-1.29,5.29-2.11l6.25-2.089l-1.621,6.721l-7.037,2.603
	c-2.513,0.921-4.114,1.58-4.806,1.975c-0.691,0.396-1.213,0.866-1.566,1.411c-0.352,0.545-0.684,1.462-0.995,2.753l-0.275,1.139
	l11.62,2.802l-1.355,5.62l-27.835-6.712L204.72,280.79z"/>
<path fill="#005A63" d="M196.438,315.138l15.076,3.635c2.392,0.577,3.96,0.882,4.702,0.913c1.197,0.035,2.25-0.318,3.158-1.057
	c0.908-0.738,1.551-1.893,1.93-3.463c0.385-1.595,0.349-2.876-0.108-3.843c-0.456-0.967-1.14-1.648-2.049-2.041
	c-0.91-0.393-2.466-0.856-4.668-1.387l-15.398-3.713l1.355-5.62l14.62,3.525c3.342,0.806,5.666,1.527,6.972,2.163
	c1.307,0.637,2.336,1.478,3.088,2.523s1.246,2.319,1.479,3.822c0.233,1.503,0.085,3.355-0.446,5.558
	c-0.641,2.658-1.434,4.6-2.379,5.825s-2.004,2.119-3.178,2.679c-1.173,0.561-2.328,0.838-3.465,0.832
	c-1.684-0.017-4.082-0.402-7.196-1.153l-14.848-3.58L196.438,315.138z"/>
<path fill="#005A63" d="M213.118,367.278c-0.124,0.962-0.606,3.236-1.444,6.824l-2.285,9.475l-27.835-6.712l2.683-11.126
	c0.531-2.202,1.019-3.822,1.463-4.86c0.445-1.038,1.061-1.914,1.849-2.628c0.788-0.714,1.735-1.239,2.841-1.575
	c1.106-0.336,2.26-0.359,3.462-0.069c1.304,0.314,2.415,0.954,3.334,1.919c0.92,0.965,1.506,2.114,1.76,3.448
	c0.903-1.578,2.059-2.678,3.468-3.302c1.41-0.624,2.919-0.743,4.526-0.355c1.266,0.305,2.426,0.896,3.48,1.773
	c1.054,0.877,1.816,1.912,2.286,3.103C213.177,364.382,213.314,365.745,213.118,367.278z"/>
<path fill="#005A63" d="M216.998,350.061c-0.945,1.226-2.004,2.118-3.178,2.679c-1.173,0.561-2.328,0.838-3.465,0.832
	c-1.683-0.017-4.082-0.402-7.196-1.152l-14.848-3.58l1.355-5.62l15.076,3.635c2.392,0.577,3.96,0.881,4.702,0.913
	c1.197,0.035,2.25-0.318,3.158-1.057c0.908-0.738,1.551-1.893,1.93-3.462c0.385-1.595,0.349-2.876-0.108-3.843
	c-0.456-0.967-1.14-1.648-2.049-2.041c-0.91-0.393-2.466-0.856-4.668-1.387l-15.398-3.713l1.355-5.62l14.62,3.525
	c3.342,0.806,5.666,1.527,6.972,2.163c1.307,0.637,2.336,1.477,3.088,2.523c0.753,1.045,1.246,2.32,1.479,3.822
	c0.233,1.503,0.085,3.356-0.446,5.558C218.736,346.894,217.943,348.835,216.998,350.061z"/>
<path fill="#005A63" d="M248.648,380.687c-0.891,3.696-2.886,6.43-5.985,8.2c-3.099,1.771-6.838,2.128-11.218,1.072
	c-4.633-1.117-7.942-3.181-9.929-6.191s-2.51-6.465-1.57-10.363c0.821-3.405,2.494-5.928,5.02-7.569
	c1.495-0.979,3.433-1.516,5.813-1.612l-0.012,5.884c-1.522-0.018-2.827,0.393-3.914,1.236s-1.811,2.011-2.171,3.504
	c-0.498,2.063-0.161,3.916,1.01,5.558c1.171,1.642,3.415,2.863,6.731,3.662c3.519,0.849,6.178,0.82,7.977-0.086
	c1.799-0.905,2.942-2.371,3.431-4.396c0.36-1.493,0.195-2.893-0.495-4.197c-0.69-1.304-1.997-2.437-3.922-3.397l3.042-5.033
	c2.836,1.568,4.758,3.501,5.764,5.8C249.226,375.057,249.369,377.699,248.648,380.687z"/>
<polygon fill="#005A63" points="256.703,345.2 252.88,361.054 251.442,367.016 226.222,349.462 227.655,343.52 258.177,339.086 "/>
<polygon fill="#005A63" points="264.063,314.394 242.112,309.28 262.774,319.929 261.511,325.35 238.275,325.753 260.226,330.867 
	259.007,336.098 231.121,329.602 233.084,321.175 253.285,320.546 235.428,311.112 237.396,302.667 265.282,309.163 "/>
<path fill="#005A63" d="M266.706,303.713l-27.835-6.712l2.175-9.019c0.824-3.418,1.501-5.612,2.029-6.583
	c0.802-1.494,2.033-2.611,3.691-3.349c1.658-0.738,3.595-0.841,5.81-0.307c1.709,0.412,3.071,1.069,4.086,1.97
	c1.015,0.901,1.74,1.909,2.174,3.025s0.64,2.194,0.617,3.233c-0.058,1.406-0.393,3.381-1.007,5.925l-0.884,3.665l10.5,2.532
	L266.706,303.713z"/>
<path fill="#005A63" d="M276.182,266.499c-0.641,2.658-1.434,4.6-2.379,5.825c-0.945,1.226-2.004,2.118-3.177,2.679
	c-1.173,0.561-2.328,0.838-3.465,0.832c-1.683-0.017-4.082-0.402-7.196-1.152l-14.848-3.58l1.355-5.62l15.076,3.635
	c2.392,0.577,3.96,0.881,4.702,0.913c1.197,0.035,2.25-0.318,3.158-1.057c0.908-0.738,1.551-1.893,1.93-3.462
	c0.385-1.595,0.349-2.876-0.108-3.844c-0.456-0.967-1.14-1.648-2.049-2.041c-0.91-0.393-2.466-0.856-4.668-1.387l-15.398-3.713
	l1.355-5.62l14.62,3.525c3.342,0.806,5.666,1.527,6.972,2.163c1.307,0.637,2.336,1.477,3.088,2.523
	c0.753,1.045,1.246,2.32,1.479,3.822C276.862,262.444,276.713,264.296,276.182,266.499z"/>
<path fill="#005A63" d="M282.652,239.751c-0.849,3.519-2.313,6.025-4.395,7.519c-2.081,1.494-4.723,2.049-7.926,1.665l0.787-5.596
	c1.915,0.113,3.424-0.229,4.527-1.028c1.104-0.799,1.861-2.053,2.273-3.761c0.437-1.81,0.383-3.266-0.162-4.369
	c-0.544-1.103-1.329-1.777-2.355-2.024c-0.658-0.159-1.264-0.101-1.82,0.174c-0.555,0.275-1.12,0.852-1.693,1.731
	c-0.386,0.603-1.153,2.005-2.3,4.207c-1.473,2.832-2.9,4.725-4.282,5.678c-1.943,1.34-4.017,1.744-6.219,1.213
	c-1.417-0.342-2.647-1.063-3.687-2.165s-1.701-2.487-1.982-4.155c-0.281-1.668-0.163-3.572,0.352-5.711
	c0.842-3.494,2.243-5.939,4.2-7.335c1.958-1.396,4.226-1.831,6.804-1.303l-1.108,5.68c-1.488-0.105-2.641,0.164-3.458,0.803
	c-0.817,0.64-1.417,1.751-1.798,3.333c-0.394,1.633-0.367,2.993,0.081,4.078c0.287,0.699,0.791,1.135,1.513,1.309
	c0.658,0.159,1.289,0.016,1.891-0.428c0.766-0.566,1.801-2.137,3.106-4.716c1.305-2.578,2.46-4.44,3.466-5.583
	c1.006-1.144,2.196-1.942,3.571-2.394c1.375-0.452,2.942-0.466,4.701-0.042c1.595,0.385,2.982,1.188,4.16,2.41
	c1.179,1.222,1.912,2.724,2.198,4.508C283.383,235.233,283.235,237.333,282.652,239.751z"/>
<g>
</g>
<g>
</g>
<g>
</g>
<g>
</g>
<g>
</g>
<g>
</g>
<g>
</g>
<g>
</g>
<g>
</g>
<g>
</g>
<g>
</g>
<g>
</g>
<g>
</g>
<g>
</g>
<g>
</g>
</svg>
