<?xml version="1.0" encoding="iso-8859-1"?>
<!-- Generator: Adobe Illustrator 25.0.0, SVG Export Plug-In . SVG Version: 6.00 Build 0)  -->
<svg version="1.1" id="Layer_1" xmlns="http://www.w3.org/2000/svg" xmlns:xlink="http://www.w3.org/1999/xlink" x="0px" y="0px"
	 width="1200px" height="500px" viewBox="0 0 1200 500" enable-background="new 0 0 1200 500" xml:space="preserve">
<polygon fill="#F16522" points="462.632,221.666 450.405,221.666 428.101,278.931 440.366,278.931 472.983,278.931 485.562,278.931 
	"/>
<g>
	<path fill="#343467" d="M133.335,248.502c2.475-1.119,4.434-2.799,5.879-5.039c1.445-2.239,2.168-4.7,2.168-7.383
		c0-2.474-0.586-4.707-1.758-6.699s-2.637-3.587-4.395-4.785c-1.758-1.197-3.75-1.985-5.977-2.363
		c-2.227-0.377-5.605-0.566-10.136-0.566H96.227v57.266h19.492c7.368-0.052,12.017-0.182,13.944-0.391
		c3.072-0.338,5.658-1.243,7.754-2.715c2.096-1.471,3.75-3.438,4.961-5.898s1.816-4.993,1.816-7.598
		c0-3.307-0.938-6.185-2.812-8.633C139.507,251.25,136.825,249.517,133.335,248.502z"/>
	<path fill="#343467" d="M187.983,253.345c0,4.531-0.17,7.773-0.508,9.727s-1.342,3.601-3.008,4.941
		c-1.666,1.342-4.141,2.012-7.422,2.012c-3.229,0-5.775-0.709-7.637-2.129c-1.861-1.419-3.041-3.301-3.535-5.645
		c-0.287-1.458-0.43-4.648-0.43-9.57v-31.016h-11.562v30.547c0,6.406,0.377,11.25,1.133,14.531c0.521,2.214,1.602,4.33,3.242,6.348
		c1.641,2.019,3.873,3.659,6.699,4.922s6.973,1.895,12.441,1.895c4.531,0,8.203-0.58,11.016-1.738s5.059-2.715,6.738-4.668
		s2.832-4.349,3.457-7.188c0.625-2.838,0.938-7.695,0.938-14.57v-30.078h-11.562V253.345z"/>
	<path fill="#343467" d="M245.757,253.345c0,4.531-0.17,7.773-0.508,9.727s-1.342,3.601-3.008,4.941
		c-1.666,1.342-4.141,2.012-7.422,2.012c-3.229,0-5.775-0.709-7.637-2.129c-1.861-1.419-3.041-3.301-3.535-5.645
		c-0.287-1.458-0.43-4.648-0.43-9.57v-31.016h-11.562v30.547c0,6.406,0.377,11.25,1.133,14.531c0.521,2.214,1.602,4.33,3.242,6.348
		c1.641,2.019,3.873,3.659,6.699,4.922s6.973,1.895,12.441,1.895c4.531,0,8.203-0.58,11.016-1.738s5.059-2.715,6.738-4.668
		s2.832-4.349,3.457-7.188c0.625-2.838,0.938-7.695,0.938-14.57v-30.078h-11.562V253.345z"/>
	<path fill="#343467" d="M307.456,258.462c-1.627-1.744-3.691-3.346-6.191-4.805c5.025-0.729,8.803-2.493,11.328-5.293
		c2.525-2.799,3.789-6.348,3.789-10.645c0-3.385-0.834-6.393-2.5-9.023c-1.666-2.63-3.887-4.459-6.66-5.488
		c-2.773-1.028-7.221-1.543-13.34-1.543h-24.336v57.266h11.562v-23.906h2.344c2.656,0,4.596,0.215,5.82,0.645
		s2.383,1.225,3.477,2.383c1.094,1.159,3.125,3.965,6.094,8.418l8.359,12.461h13.828l-6.992-11.172
		C311.278,263.306,309.083,260.208,307.456,258.462z"/>
	<polygon fill="#343467" points="323.179,231.353 340.171,231.353 340.171,278.931 351.733,278.931 351.733,231.353 
		368.687,231.353 368.687,221.666 323.179,221.666 	"/>
	<path fill="#343467" d="M408.023,267.095c-2.213,1.953-4.857,2.93-7.93,2.93c-4.166,0-7.553-1.536-10.156-4.609
		c-2.604-3.072-3.906-8.229-3.906-15.469c0-6.822,1.322-11.758,3.965-14.805s6.088-4.57,10.332-4.57
		c3.072,0,5.684,0.859,7.832,2.578s3.561,4.062,4.238,7.031l11.445-2.734c-1.303-4.583-3.256-8.099-5.859-10.547
		c-4.375-4.141-10.064-6.211-17.07-6.211c-8.021,0-14.492,2.637-19.414,7.91s-7.383,12.676-7.383,22.207
		c0,9.011,2.447,16.113,7.344,21.309s11.146,7.793,18.75,7.793c6.146,0,11.217-1.517,15.215-4.551
		c3.998-3.033,6.855-7.676,8.574-13.926l-11.211-3.555C411.825,262.07,410.235,265.142,408.023,267.095z"/>
	<polygon fill="#343467" points="519.233,260.728 508.843,221.666 491.538,221.666 491.538,278.931 502.28,278.931 502.28,233.853 
		513.608,278.931 524.741,278.931 536.108,233.853 536.108,278.931 546.851,278.931 546.851,221.666 529.507,221.666 	"/>
	<path fill="#343467" d="M590.64,222.525c-2.135-0.572-6.719-0.859-13.75-0.859h-18.555v57.266h11.562V257.33h7.539
		c5.234,0,9.232-0.273,11.992-0.82c2.031-0.442,4.029-1.348,5.996-2.715s3.588-3.248,4.863-5.645
		c1.275-2.396,1.914-5.352,1.914-8.867c0-4.557-1.107-8.274-3.32-11.152C596.669,225.253,593.921,223.384,590.64,222.525z"/>
	<path fill="#343467" d="M645.718,253.345c0,4.531-0.17,7.773-0.508,9.727s-1.342,3.601-3.008,4.941
		c-1.666,1.342-4.141,2.012-7.422,2.012c-3.229,0-5.775-0.709-7.637-2.129c-1.861-1.419-3.041-3.301-3.535-5.645
		c-0.287-1.458-0.43-4.648-0.43-9.57v-31.016h-11.562v30.547c0,6.406,0.377,11.25,1.133,14.531c0.521,2.214,1.602,4.33,3.242,6.348
		c1.641,2.019,3.873,3.659,6.699,4.922s6.973,1.895,12.441,1.895c4.531,0,8.203-0.58,11.016-1.738s5.059-2.715,6.738-4.668
		s2.832-4.349,3.457-7.188c0.625-2.838,0.938-7.695,0.938-14.57v-30.078h-11.562V253.345z"/>
	<path fill="#343467" d="M710.815,253.13c-1.523-2.461-3.633-4.4-6.328-5.82c-2.695-1.419-6.855-2.793-12.48-4.121
		s-9.166-2.604-10.625-3.828c-1.146-0.963-1.719-2.122-1.719-3.477c0-1.484,0.611-2.669,1.836-3.555c1.9-1.38,4.531-2.07,7.891-2.07
		c3.256,0,5.697,0.645,7.324,1.934s2.689,3.405,3.184,6.348l11.562-0.508c-0.182-5.26-2.09-9.466-5.723-12.617
		c-3.633-3.15-9.043-4.727-16.23-4.727c-4.4,0-8.158,0.664-11.27,1.992s-5.494,3.262-7.148,5.801s-2.48,5.268-2.48,8.184
		c0,4.531,1.758,8.373,5.273,11.523c2.5,2.24,6.85,4.128,13.047,5.664c4.818,1.198,7.904,2.031,9.258,2.5
		c1.979,0.703,3.365,1.53,4.16,2.48c0.795,0.951,1.191,2.104,1.191,3.457c0,2.109-0.943,3.952-2.832,5.527
		c-1.889,1.576-4.693,2.363-8.418,2.363c-3.516,0-6.309-0.885-8.379-2.656c-2.07-1.771-3.443-4.544-4.121-8.32l-11.25,1.094
		c0.756,6.406,3.072,11.283,6.953,14.629c3.881,3.347,9.439,5.02,16.68,5.02c4.975,0,9.127-0.697,12.461-2.09
		s5.912-3.521,7.734-6.387c1.822-2.864,2.734-5.938,2.734-9.219C713.101,258.632,712.339,255.591,710.815,253.13z"/>
</g>
<path fill="#343467" d="M1102.92,221.666h-28.632h-340.25v57.266h340.25h28.632l-28.632-28.633L1102.92,221.666z M773.302,267.989
	h-7.165l-14.258-23.064v23.064h-6.634v-35.367h6.948l14.475,23.618v-23.618h6.634V267.989z M787.777,267.989h-7.141v-35.367h7.141
	V267.989z M821.48,267.989h-26.9v-35.367h26.224v5.983h-19.083v7.841h17.756v5.959h-17.756v9.626h19.758V267.989z M855.689,251.198
	c0,4.246-0.193,7.247-0.579,8.999c-0.386,1.754-1.098,3.233-2.135,4.439c-1.037,1.206-2.425,2.168-4.162,2.883
	c-1.737,0.715-4.005,1.074-6.803,1.074c-3.378,0-5.939-0.391-7.684-1.17c-1.746-0.78-3.124-1.793-4.137-3.04
	c-1.013-1.245-1.681-2.553-2.002-3.92c-0.467-2.026-0.7-5.018-0.7-8.975v-18.866h7.141v19.155c0,3.04,0.087,5.01,0.265,5.911
	c0.305,1.448,1.033,2.61,2.183,3.486c1.149,0.878,2.722,1.315,4.716,1.315c2.026,0,3.554-0.413,4.584-1.242
	c1.028-0.828,1.648-1.846,1.858-3.052c0.208-1.206,0.314-3.209,0.314-6.007v-19.565h7.141V251.198z M897.619,267.989h-7.575
	l-7.044-26.441l-7.02,26.441h-7.744l-8.444-35.367h7.31l5.332,24.294l6.466-24.294h8.492l6.2,24.704l5.428-24.704h7.189
	L897.619,267.989z M921.358,258.556h-13.317v-6.779h13.317V258.556z M959.717,267.989h-7.575l-7.045-26.441l-7.02,26.441h-7.744
	l-8.444-35.367h7.31l5.332,24.294l6.466-24.294h8.492l6.2,24.704l5.428-24.704h7.189L959.717,267.989z M998.848,267.989h-26.899
	v-35.367h26.224v5.983h-19.083v7.841h17.756v5.959h-17.756v9.626h19.758V267.989z M1030.162,263.381
	c-1.126,1.77-2.719,3.085-4.777,3.944c-2.06,0.859-4.625,1.291-7.696,1.291c-4.472,0-7.906-1.033-10.301-3.1
	c-2.397-2.066-3.828-5.078-4.294-9.035l6.948-0.676c0.418,2.333,1.267,4.045,2.545,5.139c1.279,1.095,3.004,1.641,5.175,1.641
	c2.299,0,4.032-0.486,5.199-1.46c1.166-0.973,1.749-2.111,1.749-3.414c0-0.835-0.246-1.547-0.736-2.135
	c-0.492-0.587-1.348-1.098-2.569-1.532c-0.837-0.29-2.743-0.804-5.718-1.544c-3.828-0.948-6.514-2.114-8.058-3.498
	c-2.171-1.945-3.257-4.318-3.257-7.117c0-1.8,0.51-3.486,1.532-5.054c1.021-1.568,2.492-2.762,4.415-3.583
	c1.921-0.82,4.242-1.23,6.96-1.23c4.439,0,7.78,0.974,10.024,2.919c2.244,1.947,3.421,4.545,3.534,7.792l-7.141,0.314
	c-0.306-1.817-0.962-3.124-1.966-3.92c-1.006-0.796-2.514-1.194-4.523-1.194c-2.075,0-3.7,0.427-4.873,1.279
	c-0.757,0.547-1.134,1.279-1.134,2.195c0,0.837,0.353,1.553,1.062,2.147c0.9,0.757,3.088,1.544,6.562,2.364
	c3.474,0.82,6.043,1.669,7.708,2.545c1.665,0.878,2.967,2.075,3.908,3.595s1.411,3.399,1.411,5.633
	C1031.851,259.714,1031.287,261.612,1030.162,263.381z M1063.431,238.604h-10.47v29.384h-7.141v-29.384h-10.494v-5.983h28.106
	V238.604z"/>
<g>
</g>
<g>
</g>
<g>
</g>
<g>
</g>
<g>
</g>
<g>
</g>
<g>
</g>
<g>
</g>
<g>
</g>
<g>
</g>
<g>
</g>
<g>
</g>
<g>
</g>
<g>
</g>
<g>
</g>
</svg>
