<?xml version="1.0" encoding="iso-8859-1"?>
<!-- Generator: Adobe Illustrator 25.0.0, SVG Export Plug-In . SVG Version: 6.00 Build 0)  -->
<svg version="1.1" id="Layer_1" xmlns="http://www.w3.org/2000/svg" xmlns:xlink="http://www.w3.org/1999/xlink" x="0px" y="0px"
	 width="650px" height="500px" viewBox="0 0 650 500" enable-background="new 0 0 650 500" xml:space="preserve">
<path fill="#343467" d="M396.065,156.948h-18.544H157.153v37.089h220.368h18.544l-18.544-18.544L396.065,156.948z M182.583,186.95
	h-4.641l-9.234-14.938v14.938h-4.297v-22.906h4.5l9.375,15.297v-15.297h4.297V186.95z M191.958,186.95h-4.625v-22.906h4.625V186.95z
	 M213.786,186.95h-17.422v-22.906h16.984v3.875h-12.359v5.078h11.5v3.859h-11.5v6.234h12.797V186.95z M235.942,176.075
	c0,2.75-0.125,4.693-0.375,5.828c-0.25,1.136-0.711,2.094-1.383,2.875s-1.57,1.404-2.695,1.867s-2.594,0.695-4.406,0.695
	c-2.188,0-3.847-0.253-4.977-0.758c-1.131-0.505-2.023-1.161-2.68-1.969c-0.656-0.807-1.089-1.653-1.297-2.539
	c-0.303-1.312-0.453-3.25-0.453-5.812v-12.219h4.625v12.406c0,1.969,0.057,3.245,0.172,3.828c0.197,0.938,0.669,1.69,1.414,2.258
	c0.744,0.568,1.763,0.852,3.055,0.852c1.312,0,2.302-0.268,2.969-0.805c0.666-0.536,1.067-1.195,1.203-1.977
	c0.135-0.781,0.203-2.078,0.203-3.891v-12.672h4.625L235.942,176.075L235.942,176.075z M263.098,186.95h-4.906l-4.562-17.125
	l-4.547,17.125h-5.016l-5.469-22.906h4.734l3.453,15.734l4.188-15.734h5.5l4.016,16l3.516-16h4.656L263.098,186.95z M278.473,180.84
	h-8.625v-4.391h8.625V180.84z M303.317,186.95h-4.906l-4.562-17.125l-4.547,17.125h-5.016l-5.469-22.906h4.734l3.453,15.734
	l4.188-15.734h5.5l4.016,16l3.516-16h4.656L303.317,186.95z M328.661,186.95h-17.422v-22.906h16.984v3.875h-12.359v5.078h11.5v3.859
	h-11.5v6.234h12.797V186.95z M348.942,183.965c-0.729,1.146-1.761,1.998-3.094,2.555c-1.334,0.557-2.995,0.836-4.984,0.836
	c-2.896,0-5.12-0.669-6.672-2.008c-1.553-1.338-2.479-3.289-2.781-5.852l4.5-0.438c0.271,1.511,0.82,2.62,1.648,3.328
	c0.828,0.709,1.945,1.062,3.352,1.062c1.489,0,2.611-0.314,3.367-0.945c0.755-0.63,1.133-1.367,1.133-2.211
	c0-0.541-0.159-1.002-0.477-1.383c-0.318-0.38-0.873-0.711-1.664-0.992c-0.542-0.188-1.776-0.521-3.703-1
	c-2.479-0.614-4.219-1.369-5.219-2.266c-1.406-1.26-2.109-2.797-2.109-4.609c0-1.166,0.33-2.258,0.992-3.273
	c0.661-1.016,1.614-1.789,2.859-2.32c1.244-0.531,2.747-0.797,4.508-0.797c2.875,0,5.039,0.631,6.492,1.891
	c1.453,1.261,2.216,2.943,2.289,5.047l-4.625,0.203c-0.198-1.177-0.623-2.023-1.273-2.539c-0.651-0.516-1.628-0.773-2.93-0.773
	c-1.344,0-2.396,0.276-3.156,0.828c-0.49,0.354-0.734,0.828-0.734,1.422c0,0.542,0.229,1.006,0.688,1.391c0.583,0.49,2,1,4.25,1.531
	s3.914,1.081,4.992,1.648c1.078,0.568,1.922,1.344,2.531,2.328s0.914,2.201,0.914,3.648
	C350.036,181.59,349.67,182.82,348.942,183.965z M370.489,167.918h-6.781v19.031h-4.625v-19.031h-6.797v-3.875h18.203V167.918z"/>
<path fill="#343467" d="M157.579,210.771h22.891c4.53,0,7.909,0.189,10.136,0.566c2.227,0.378,4.219,1.166,5.977,2.363
	c1.758,1.198,3.223,2.793,4.395,4.785s1.758,4.226,1.758,6.699c0,2.683-0.723,5.144-2.168,7.383c-1.445,2.24-3.404,3.92-5.879,5.039
	c3.49,1.016,6.172,2.748,8.047,5.195c1.875,2.448,2.812,5.326,2.812,8.633c0,2.604-0.605,5.137-1.816,7.598
	s-2.865,4.428-4.961,5.898c-2.096,1.472-4.682,2.377-7.754,2.715c-1.928,0.209-6.576,0.339-13.944,0.391h-19.492v-57.265H157.579z"
	/>
<path fill="#343467" d="M215.234,210.771h11.562v31.016c0,4.922,0.143,8.112,0.43,9.57c0.494,2.344,1.674,4.226,3.535,5.645
	c1.861,1.42,4.408,2.129,7.637,2.129c3.281,0,5.756-0.67,7.422-2.012c1.666-1.341,2.67-2.988,3.008-4.941s0.508-5.195,0.508-9.727
	v-31.68h11.562v30.078c0,6.875-0.312,11.732-0.938,14.57c-0.625,2.839-1.777,5.234-3.457,7.188s-3.926,3.51-6.738,4.668
	s-6.484,1.738-11.016,1.738c-5.469,0-9.615-0.632-12.441-1.895s-5.059-2.903-6.699-4.922c-1.641-2.018-2.721-4.134-3.242-6.348
	c-0.756-3.281-1.133-8.125-1.133-14.531L215.234,210.771L215.234,210.771z"/>
<path fill="#343467" d="M273.007,210.771h11.562v31.016c0,4.922,0.143,8.112,0.43,9.57c0.494,2.344,1.674,4.226,3.535,5.645
	c1.861,1.42,4.408,2.129,7.637,2.129c3.281,0,5.756-0.67,7.422-2.012c1.666-1.341,2.67-2.988,3.008-4.941s0.508-5.195,0.508-9.727
	v-31.68h11.562v30.078c0,6.875-0.312,11.732-0.938,14.57c-0.625,2.839-1.777,5.234-3.457,7.188s-3.926,3.51-6.738,4.668
	s-6.484,1.738-11.016,1.738c-5.469,0-9.615-0.632-12.441-1.895s-5.059-2.903-6.699-4.922c-1.641-2.018-2.721-4.134-3.242-6.348
	c-0.756-3.281-1.133-8.125-1.133-14.531V210.771z"/>
<path fill="#343467" d="M330.898,268.037v-57.266h24.336c6.119,0,10.566,0.515,13.34,1.543c2.773,1.029,4.994,2.858,6.66,5.488
	c1.666,2.631,2.5,5.639,2.5,9.023c0,4.297-1.264,7.846-3.789,10.645c-2.525,2.8-6.303,4.564-11.328,5.293
	c2.5,1.459,4.564,3.061,6.191,4.805c1.627,1.745,3.822,4.844,6.582,9.297l6.992,11.172h-13.828l-8.359-12.461
	c-2.969-4.453-5-7.259-6.094-8.418c-1.094-1.158-2.252-1.953-3.477-2.383s-3.164-0.645-5.82-0.645h-2.344v23.906h-11.562V268.037z"
	/>
<polygon fill="#343467" points="401.523,268.037 401.523,220.458 384.531,220.458 384.531,210.771 430.039,210.771 430.039,220.458 
	413.085,220.458 413.085,268.037 "/>
<path fill="#343467" d="M194.179,320.982l11.211,3.555c-1.719,6.25-4.576,10.893-8.574,13.926
	c-3.998,3.034-9.068,4.551-15.214,4.551c-7.604,0-13.854-2.598-18.75-7.793s-7.344-12.298-7.344-21.309
	c0-9.531,2.461-16.934,7.383-22.207s11.393-7.91,19.413-7.91c7.006,0,12.695,2.07,17.07,6.211c2.604,2.448,4.557,5.964,5.859,10.547
	l-11.445,2.734c-0.678-2.969-2.09-5.312-4.238-7.031s-4.76-2.578-7.831-2.578c-4.245,0-7.689,1.523-10.332,4.57
	c-2.644,3.047-3.965,7.982-3.965,14.805c0,7.24,1.302,12.396,3.906,15.469s5.989,4.609,10.156,4.609c3.071,0,5.716-0.977,7.929-2.93
	S193.216,325.175,194.179,320.982z"/>
<polygon fill="#F16522" points="244.023,284.771 231.796,284.771 209.492,342.037 221.757,342.037 254.375,342.037 266.953,342.037 
	"/>
<polygon fill="#343467" points="273.152,342.25 272.708,284.986 290.012,284.852 300.705,323.833 310.676,284.692 328.019,284.558 
	328.463,341.822 317.721,341.905 317.372,296.828 306.354,341.993 295.221,342.079 283.545,297.09 283.894,342.167 "/>
<path fill="#343467" d="M339.726,342.037v-57.266h18.555c7.031,0,11.615,0.287,13.75,0.859c3.281,0.859,6.029,2.729,8.242,5.605
	c2.213,2.878,3.32,6.596,3.32,11.152c0,3.516-0.639,6.472-1.914,8.867c-1.275,2.396-2.896,4.277-4.863,5.645
	s-3.965,2.272-5.996,2.715c-2.76,0.547-6.758,0.82-11.992,0.82h-7.539v21.602L339.726,342.037L339.726,342.037z"/>
<path fill="#343467" d="M393.007,284.771h11.562v31.016c0,4.922,0.143,8.112,0.43,9.57c0.494,2.344,1.674,4.226,3.535,5.645
	c1.861,1.42,4.408,2.129,7.637,2.129c3.281,0,5.756-0.67,7.422-2.012c1.666-1.341,2.67-2.988,3.008-4.941s0.508-5.195,0.508-9.727
	v-31.68h11.562v30.078c0,6.875-0.312,11.732-0.938,14.57c-0.625,2.839-1.777,5.234-3.457,7.188s-3.926,3.51-6.738,4.668
	s-6.484,1.738-11.016,1.738c-5.469,0-9.615-0.632-12.441-1.895s-5.059-2.903-6.699-4.922c-1.641-2.018-2.721-4.134-3.242-6.348
	c-0.756-3.281-1.133-8.125-1.133-14.531V284.771z"/>
<path fill="#343467" d="M447.929,323.404l11.25-1.094c0.678,3.776,2.051,6.55,4.121,8.32c2.07,1.771,4.863,2.656,8.379,2.656
	c3.725,0,6.529-0.787,8.418-2.363c1.889-1.575,2.832-3.418,2.832-5.527c0-1.354-0.396-2.506-1.191-3.457
	c-0.795-0.95-2.182-1.777-4.16-2.48c-1.354-0.469-4.439-1.302-9.258-2.5c-6.197-1.536-10.547-3.424-13.047-5.664
	c-3.516-3.15-5.273-6.992-5.273-11.523c0-2.916,0.826-5.645,2.48-8.184s4.037-4.473,7.148-5.801s6.869-1.992,11.27-1.992
	c7.188,0,12.598,1.576,16.23,4.727c3.633,3.151,5.541,7.357,5.723,12.617l-11.562,0.508c-0.494-2.942-1.557-5.059-3.184-6.348
	s-4.068-1.934-7.324-1.934c-3.359,0-5.99,0.69-7.891,2.07c-1.225,0.886-1.836,2.07-1.836,3.555c0,1.354,0.572,2.514,1.719,3.477
	c1.459,1.225,5,2.5,10.625,3.828s9.785,2.702,12.48,4.121c2.695,1.42,4.805,3.359,6.328,5.82s2.285,5.502,2.285,9.121
	c0,3.281-0.912,6.354-2.734,9.219c-1.822,2.865-4.4,4.994-7.734,6.387s-7.486,2.09-12.461,2.09c-7.24,0-12.799-1.673-16.68-5.02
	C451.001,334.687,448.685,329.81,447.929,323.404z"/>
<path fill="#343467" d="M431.757,252.763v-10.977h21.562v10.977H431.757z"/>
</svg>
