<?xml version="1.0" encoding="iso-8859-1"?>
<!-- Generator: Adobe Illustrator 25.0.0, SVG Export Plug-In . SVG Version: 6.00 Build 0)  -->
<svg version="1.1" id="Layer_1" xmlns="http://www.w3.org/2000/svg" xmlns:xlink="http://www.w3.org/1999/xlink" x="0px" y="0px"
	 width="1200px" height="500px" viewBox="0 0 1200 500" enable-background="new 0 0 1200 500" xml:space="preserve">
<polygon fill="#F16522" points="462.632,221.666 450.405,221.666 428.101,278.931 440.366,278.931 472.983,278.931 485.562,278.931 
	"/>
<g>
	<path fill="#343467" d="M133.335,248.502c2.475-1.119,4.434-2.799,5.879-5.039c1.445-2.239,2.168-4.7,2.168-7.383
		c0-2.474-0.586-4.707-1.758-6.699s-2.637-3.587-4.395-4.785c-1.758-1.197-3.75-1.985-5.977-2.363
		c-2.227-0.377-5.605-0.566-10.136-0.566H96.227v57.266h19.492c7.368-0.052,12.017-0.182,13.944-0.391
		c3.072-0.338,5.658-1.243,7.754-2.715c2.096-1.471,3.75-3.438,4.961-5.898s1.816-4.993,1.816-7.598
		c0-3.307-0.938-6.185-2.812-8.633C139.507,251.25,136.825,249.517,133.335,248.502z"/>
	<path fill="#343467" d="M187.983,253.345c0,4.531-0.17,7.773-0.508,9.727s-1.342,3.601-3.008,4.941
		c-1.666,1.342-4.141,2.012-7.422,2.012c-3.229,0-5.775-0.709-7.637-2.129c-1.861-1.419-3.041-3.301-3.535-5.645
		c-0.287-1.458-0.43-4.648-0.43-9.57v-31.016h-11.562v30.547c0,6.406,0.377,11.25,1.133,14.531c0.521,2.214,1.602,4.33,3.242,6.348
		c1.641,2.019,3.873,3.659,6.699,4.922s6.973,1.895,12.441,1.895c4.531,0,8.203-0.58,11.016-1.738s5.059-2.715,6.738-4.668
		s2.832-4.349,3.457-7.188c0.625-2.838,0.938-7.695,0.938-14.57v-30.078h-11.562L187.983,253.345L187.983,253.345z"/>
	<path fill="#343467" d="M245.757,253.345c0,4.531-0.17,7.773-0.508,9.727s-1.342,3.601-3.008,4.941
		c-1.666,1.342-4.141,2.012-7.422,2.012c-3.229,0-5.775-0.709-7.637-2.129c-1.861-1.419-3.041-3.301-3.535-5.645
		c-0.287-1.458-0.43-4.648-0.43-9.57v-31.016h-11.562v30.547c0,6.406,0.377,11.25,1.133,14.531c0.521,2.214,1.602,4.33,3.242,6.348
		c1.641,2.019,3.873,3.659,6.699,4.922s6.973,1.895,12.441,1.895c4.531,0,8.203-0.58,11.016-1.738s5.059-2.715,6.738-4.668
		s2.832-4.349,3.457-7.188c0.625-2.838,0.938-7.695,0.938-14.57v-30.078h-11.562L245.757,253.345L245.757,253.345z"/>
	<path fill="#343467" d="M307.456,258.462c-1.627-1.744-3.691-3.346-6.191-4.805c5.025-0.729,8.803-2.493,11.328-5.293
		c2.525-2.799,3.789-6.348,3.789-10.645c0-3.385-0.834-6.393-2.5-9.023c-1.666-2.63-3.887-4.459-6.66-5.488
		c-2.773-1.028-7.221-1.543-13.34-1.543h-24.336v57.266h11.562v-23.906h2.344c2.656,0,4.596,0.215,5.82,0.645
		s2.383,1.225,3.477,2.383c1.094,1.159,3.125,3.965,6.094,8.418l8.359,12.461h13.828l-6.992-11.172
		C311.278,263.306,309.083,260.208,307.456,258.462z"/>
	<polygon fill="#343467" points="323.179,231.353 340.171,231.353 340.171,278.931 351.733,278.931 351.733,231.353 
		368.687,231.353 368.687,221.666 323.179,221.666 	"/>
	<path fill="#343467" d="M408.023,267.095c-2.213,1.953-4.857,2.93-7.93,2.93c-4.166,0-7.553-1.536-10.156-4.609
		c-2.604-3.072-3.906-8.229-3.906-15.469c0-6.822,1.322-11.758,3.965-14.805s6.088-4.57,10.332-4.57
		c3.072,0,5.684,0.859,7.832,2.578s3.561,4.062,4.238,7.031l11.445-2.734c-1.303-4.583-3.256-8.099-5.859-10.547
		c-4.375-4.141-10.064-6.211-17.07-6.211c-8.021,0-14.492,2.637-19.414,7.91s-7.383,12.676-7.383,22.207
		c0,9.011,2.447,16.113,7.344,21.309s11.146,7.793,18.75,7.793c6.146,0,11.217-1.517,15.215-4.551
		c3.998-3.033,6.855-7.676,8.574-13.926l-11.211-3.555C411.825,262.07,410.235,265.142,408.023,267.095z"/>
	<polygon fill="#343467" points="519.233,260.728 508.843,221.666 491.538,221.666 491.538,278.931 502.28,278.931 502.28,233.853 
		513.608,278.931 524.741,278.931 536.108,233.853 536.108,278.931 546.851,278.931 546.851,221.666 529.507,221.666 	"/>
	<path fill="#343467" d="M590.64,222.525c-2.135-0.572-6.719-0.859-13.75-0.859h-18.555v57.266h11.562V257.33h7.539
		c5.234,0,9.232-0.273,11.992-0.82c2.031-0.442,4.029-1.348,5.996-2.715s3.588-3.248,4.863-5.645
		c1.275-2.396,1.914-5.352,1.914-8.867c0-4.557-1.107-8.274-3.32-11.152C596.669,225.253,593.921,223.384,590.64,222.525z"/>
	<path fill="#343467" d="M645.718,253.345c0,4.531-0.17,7.773-0.508,9.727s-1.342,3.601-3.008,4.941
		c-1.666,1.342-4.141,2.012-7.422,2.012c-3.229,0-5.775-0.709-7.637-2.129c-1.861-1.419-3.041-3.301-3.535-5.645
		c-0.287-1.458-0.43-4.648-0.43-9.57v-31.016h-11.562v30.547c0,6.406,0.377,11.25,1.133,14.531c0.521,2.214,1.602,4.33,3.242,6.348
		c1.641,2.019,3.873,3.659,6.699,4.922s6.973,1.895,12.441,1.895c4.531,0,8.203-0.58,11.016-1.738s5.059-2.715,6.738-4.668
		s2.832-4.349,3.457-7.188c0.625-2.838,0.938-7.695,0.938-14.57v-30.078h-11.562L645.718,253.345L645.718,253.345z"/>
	<path fill="#343467" d="M710.815,253.13c-1.523-2.461-3.633-4.4-6.328-5.82c-2.695-1.419-6.855-2.793-12.48-4.121
		s-9.166-2.604-10.625-3.828c-1.146-0.963-1.719-2.122-1.719-3.477c0-1.484,0.611-2.669,1.836-3.555c1.9-1.38,4.531-2.07,7.891-2.07
		c3.256,0,5.697,0.645,7.324,1.934s2.689,3.405,3.184,6.348l11.562-0.508c-0.182-5.26-2.09-9.466-5.723-12.617
		c-3.633-3.15-9.043-4.727-16.23-4.727c-4.4,0-8.158,0.664-11.27,1.992s-5.494,3.262-7.148,5.801s-2.48,5.268-2.48,8.184
		c0,4.531,1.758,8.373,5.273,11.523c2.5,2.24,6.85,4.128,13.047,5.664c4.818,1.198,7.904,2.031,9.258,2.5
		c1.979,0.703,3.365,1.53,4.16,2.48c0.795,0.951,1.191,2.104,1.191,3.457c0,2.109-0.943,3.952-2.832,5.527
		c-1.889,1.576-4.693,2.363-8.418,2.363c-3.516,0-6.309-0.885-8.379-2.656s-3.443-4.544-4.121-8.32l-11.25,1.094
		c0.756,6.406,3.072,11.283,6.953,14.629c3.881,3.347,9.439,5.02,16.68,5.02c4.975,0,9.127-0.697,12.461-2.09
		s5.912-3.521,7.734-6.387c1.822-2.864,2.734-5.938,2.734-9.219C713.101,258.632,712.339,255.591,710.815,253.13z"/>
</g>
<path fill="#343467" d="M961.722,221.666h-28.634H734.038v57.265h199.051v0.001h28.634l-28.634-28.633L961.722,221.666z
	 M773.304,267.99h-7.165l-14.258-23.064v23.064h-6.634v-35.368h6.948l14.475,23.619v-23.619h6.634V267.99z M809.057,263.756
	c-3.105,3.225-7.254,4.837-12.449,4.837c-5.259,0-9.442-1.604-12.545-4.813c-3.105-3.209-4.656-7.627-4.656-13.257
	c0-3.602,0.538-6.625,1.616-9.071c0.804-1.8,1.901-3.417,3.293-4.849c1.39-1.431,2.915-2.492,4.572-3.185
	c2.203-0.932,4.744-1.399,7.624-1.399c5.211,0,9.38,1.616,12.509,4.849c3.127,3.233,4.692,7.729,4.692,13.486
	C813.714,256.064,812.16,260.532,809.057,263.756z M847.489,263.756c-3.105,3.225-7.254,4.837-12.449,4.837
	c-5.259,0-9.442-1.604-12.545-4.813c-3.105-3.209-4.656-7.627-4.656-13.257c0-3.602,0.538-6.625,1.616-9.071
	c0.804-1.8,1.901-3.417,3.293-4.849c1.39-1.431,2.915-2.492,4.572-3.185c2.203-0.932,4.744-1.399,7.624-1.399
	c5.211,0,9.38,1.616,12.509,4.849c3.127,3.233,4.692,7.729,4.692,13.486C852.145,256.064,850.592,260.532,847.489,263.756z
	 M880.999,267.99l-5.163-7.696c-1.834-2.75-3.088-4.483-3.764-5.199c-0.676-0.715-1.392-1.206-2.147-1.472
	c-0.757-0.265-1.954-0.398-3.595-0.398h-1.448v14.765h-7.141v-35.368h15.03c3.779,0,6.526,0.318,8.239,0.953
	c1.713,0.636,3.084,1.766,4.113,3.39c1.028,1.625,1.544,3.483,1.544,5.573c0,2.654-0.781,4.846-2.34,6.574
	c-1.561,1.729-3.893,2.82-6.996,3.269c1.544,0.902,2.818,1.891,3.824,2.967c1.004,1.078,2.36,2.992,4.065,5.742l4.318,6.9H880.999z
	 M921.94,258.171c-0.885,2.574-2.147,4.656-3.788,6.248c-1.239,1.206-2.912,2.147-5.018,2.823c-1.577,0.499-3.684,0.748-6.321,0.748
	h-13.438v-35.368h13.052c2.943,0,5.187,0.226,6.731,0.676c2.075,0.612,3.851,1.698,5.332,3.257c1.479,1.561,2.606,3.471,3.378,5.73
	c0.772,2.26,1.158,5.047,1.158,8.359C923.025,253.555,922.664,256.064,921.94,258.171z"/>
</svg>
