<?xml version="1.0" encoding="iso-8859-1"?>
<!-- Generator: Adobe Illustrator 25.0.0, SVG Export Plug-In . SVG Version: 6.00 Build 0)  -->
<svg version="1.1" id="Layer_1" xmlns="http://www.w3.org/2000/svg" xmlns:xlink="http://www.w3.org/1999/xlink" x="0px" y="0px"
	 width="1200px" height="500px" viewBox="0 0 1200 500" enable-background="new 0 0 1200 500" xml:space="preserve">
<polygon fill="#F16522" points="462.632,221.666 450.405,221.666 428.101,278.931 440.366,278.931 472.983,278.931 485.562,278.931 
	"/>
<g>
	<path fill="#343467" d="M133.335,248.502c2.475-1.119,4.434-2.799,5.879-5.039c1.445-2.239,2.168-4.7,2.168-7.383
		c0-2.474-0.586-4.707-1.758-6.699s-2.637-3.587-4.395-4.785c-1.758-1.197-3.75-1.985-5.977-2.363
		c-2.227-0.377-5.605-0.566-10.136-0.566H96.227v57.266h19.492c7.368-0.052,12.017-0.182,13.944-0.391
		c3.072-0.338,5.658-1.243,7.754-2.715c2.096-1.471,3.75-3.438,4.961-5.898s1.816-4.993,1.816-7.598
		c0-3.307-0.938-6.185-2.812-8.633C139.507,251.25,136.825,249.517,133.335,248.502z"/>
	<path fill="#343467" d="M187.983,253.345c0,4.531-0.17,7.773-0.508,9.727s-1.342,3.601-3.008,4.941
		c-1.666,1.342-4.141,2.012-7.422,2.012c-3.229,0-5.775-0.709-7.637-2.129c-1.861-1.419-3.041-3.301-3.535-5.645
		c-0.287-1.458-0.43-4.648-0.43-9.57v-31.016h-11.562v30.547c0,6.406,0.377,11.25,1.133,14.531c0.521,2.214,1.602,4.33,3.242,6.348
		c1.641,2.019,3.873,3.659,6.699,4.922s6.973,1.895,12.441,1.895c4.531,0,8.203-0.58,11.016-1.738s5.059-2.715,6.738-4.668
		s2.832-4.349,3.457-7.188c0.625-2.838,0.938-7.695,0.938-14.57v-30.078h-11.562L187.983,253.345L187.983,253.345z"/>
	<path fill="#343467" d="M245.757,253.345c0,4.531-0.17,7.773-0.508,9.727s-1.342,3.601-3.008,4.941
		c-1.666,1.342-4.141,2.012-7.422,2.012c-3.229,0-5.775-0.709-7.637-2.129c-1.861-1.419-3.041-3.301-3.535-5.645
		c-0.287-1.458-0.43-4.648-0.43-9.57v-31.016h-11.562v30.547c0,6.406,0.377,11.25,1.133,14.531c0.521,2.214,1.602,4.33,3.242,6.348
		c1.641,2.019,3.873,3.659,6.699,4.922s6.973,1.895,12.441,1.895c4.531,0,8.203-0.58,11.016-1.738s5.059-2.715,6.738-4.668
		s2.832-4.349,3.457-7.188c0.625-2.838,0.938-7.695,0.938-14.57v-30.078h-11.562L245.757,253.345L245.757,253.345z"/>
	<path fill="#343467" d="M307.456,258.462c-1.627-1.744-3.691-3.346-6.191-4.805c5.025-0.729,8.803-2.493,11.328-5.293
		c2.525-2.799,3.789-6.348,3.789-10.645c0-3.385-0.834-6.393-2.5-9.023c-1.666-2.63-3.887-4.459-6.66-5.488
		c-2.773-1.028-7.221-1.543-13.34-1.543h-24.336v57.266h11.562v-23.906h2.344c2.656,0,4.596,0.215,5.82,0.645
		s2.383,1.225,3.477,2.383c1.094,1.159,3.125,3.965,6.094,8.418l8.359,12.461h13.828l-6.992-11.172
		C311.278,263.306,309.083,260.208,307.456,258.462z"/>
	<polygon fill="#343467" points="323.179,231.353 340.171,231.353 340.171,278.931 351.733,278.931 351.733,231.353 
		368.687,231.353 368.687,221.666 323.179,221.666 	"/>
	<path fill="#343467" d="M408.023,267.095c-2.213,1.953-4.857,2.93-7.93,2.93c-4.166,0-7.553-1.536-10.156-4.609
		c-2.604-3.072-3.906-8.229-3.906-15.469c0-6.822,1.322-11.758,3.965-14.805s6.088-4.57,10.332-4.57
		c3.072,0,5.684,0.859,7.832,2.578s3.561,4.062,4.238,7.031l11.445-2.734c-1.303-4.583-3.256-8.099-5.859-10.547
		c-4.375-4.141-10.064-6.211-17.07-6.211c-8.021,0-14.492,2.637-19.414,7.91s-7.383,12.676-7.383,22.207
		c0,9.011,2.447,16.113,7.344,21.309s11.146,7.793,18.75,7.793c6.146,0,11.217-1.517,15.215-4.551
		c3.998-3.033,6.855-7.676,8.574-13.926l-11.211-3.555C411.825,262.07,410.235,265.142,408.023,267.095z"/>
	<polygon fill="#343467" points="519.233,260.728 508.843,221.666 491.538,221.666 491.538,278.931 502.28,278.931 502.28,233.853 
		513.608,278.931 524.741,278.931 536.108,233.853 536.108,278.931 546.851,278.931 546.851,221.666 529.507,221.666 	"/>
	<path fill="#343467" d="M590.64,222.525c-2.135-0.572-6.719-0.859-13.75-0.859h-18.555v57.266h11.562V257.33h7.539
		c5.234,0,9.232-0.273,11.992-0.82c2.031-0.442,4.029-1.348,5.996-2.715s3.588-3.248,4.863-5.645
		c1.275-2.396,1.914-5.352,1.914-8.867c0-4.557-1.107-8.274-3.32-11.152C596.669,225.253,593.921,223.384,590.64,222.525z"/>
	<path fill="#343467" d="M645.718,253.345c0,4.531-0.17,7.773-0.508,9.727s-1.342,3.601-3.008,4.941
		c-1.666,1.342-4.141,2.012-7.422,2.012c-3.229,0-5.775-0.709-7.637-2.129c-1.861-1.419-3.041-3.301-3.535-5.645
		c-0.287-1.458-0.43-4.648-0.43-9.57v-31.016h-11.562v30.547c0,6.406,0.377,11.25,1.133,14.531c0.521,2.214,1.602,4.33,3.242,6.348
		c1.641,2.019,3.873,3.659,6.699,4.922s6.973,1.895,12.441,1.895c4.531,0,8.203-0.58,11.016-1.738s5.059-2.715,6.738-4.668
		s2.832-4.349,3.457-7.188c0.625-2.838,0.938-7.695,0.938-14.57v-30.078h-11.562L645.718,253.345L645.718,253.345z"/>
	<path fill="#343467" d="M710.815,253.13c-1.523-2.461-3.633-4.4-6.328-5.82c-2.695-1.419-6.855-2.793-12.48-4.121
		s-9.166-2.604-10.625-3.828c-1.146-0.963-1.719-2.122-1.719-3.477c0-1.484,0.611-2.669,1.836-3.555c1.9-1.38,4.531-2.07,7.891-2.07
		c3.256,0,5.697,0.645,7.324,1.934s2.689,3.405,3.184,6.348l11.562-0.508c-0.182-5.26-2.09-9.466-5.723-12.617
		c-3.633-3.15-9.043-4.727-16.23-4.727c-4.4,0-8.158,0.664-11.27,1.992s-5.494,3.262-7.148,5.801s-2.48,5.268-2.48,8.184
		c0,4.531,1.758,8.373,5.273,11.523c2.5,2.24,6.85,4.128,13.047,5.664c4.818,1.198,7.904,2.031,9.258,2.5
		c1.979,0.703,3.365,1.53,4.16,2.48c0.795,0.951,1.191,2.104,1.191,3.457c0,2.109-0.943,3.952-2.832,5.527
		c-1.889,1.576-4.693,2.363-8.418,2.363c-3.516,0-6.309-0.885-8.379-2.656s-3.443-4.544-4.121-8.32l-11.25,1.094
		c0.756,6.406,3.072,11.283,6.953,14.629c3.881,3.347,9.439,5.02,16.68,5.02c4.975,0,9.127-0.697,12.461-2.09
		s5.912-3.521,7.734-6.387c1.822-2.864,2.734-5.938,2.734-9.219C713.101,258.632,712.339,255.591,710.815,253.13z"/>
</g>
<path fill="#343467" d="M919.84,221.685h-28.624v-0.019H734.038v57.246h157.178v0.02h28.624l-28.624-28.624L919.84,221.685z
	 M773.363,263.742c-3.104,3.224-7.252,4.836-12.445,4.836c-5.258,0-9.439-1.604-12.541-4.811c-3.104-3.208-4.655-7.624-4.655-13.253
	c0-3.601,0.538-6.623,1.616-9.068c0.803-1.8,1.901-3.416,3.292-4.848c1.39-1.43,2.914-2.492,4.57-3.184
	c2.202-0.932,4.742-1.399,7.621-1.399c5.209,0,9.377,1.616,12.505,4.848c3.126,3.232,4.691,7.727,4.691,13.482
	C778.018,256.053,776.465,260.519,773.363,263.742z M811.782,263.742c-3.104,3.224-7.252,4.836-12.445,4.836
	c-5.258,0-9.439-1.604-12.541-4.811c-3.104-3.208-4.655-7.624-4.655-13.253c0-3.601,0.538-6.623,1.616-9.068
	c0.803-1.8,1.901-3.416,3.292-4.848c1.39-1.43,2.914-2.492,4.57-3.184c2.202-0.932,4.742-1.399,7.621-1.399
	c5.209,0,9.377,1.616,12.505,4.848c3.126,3.232,4.691,7.727,4.691,13.482C816.437,256.053,814.884,260.519,811.782,263.742z
	 M847.259,263.368c-1.126,1.77-2.718,3.084-4.775,3.943c-2.059,0.859-4.623,1.29-7.693,1.29c-4.471,0-7.903-1.033-10.298-3.099
	c-2.397-2.065-3.827-5.077-4.293-9.032l6.946-0.675c0.418,2.332,1.266,4.044,2.544,5.137c1.278,1.094,3.003,1.64,5.173,1.64
	c2.299,0,4.031-0.485,5.197-1.459c1.165-0.972,1.749-2.11,1.749-3.413c0-0.835-0.246-1.547-0.736-2.134
	c-0.491-0.586-1.348-1.097-2.568-1.531c-0.837-0.289-2.742-0.803-5.716-1.544c-3.827-0.948-6.512-2.113-8.055-3.497
	c-2.171-1.944-3.256-4.317-3.256-7.115c0-1.8,0.509-3.485,1.531-5.053c1.02-1.568,2.492-2.761,4.413-3.581
	c1.92-0.82,4.24-1.23,6.958-1.23c4.438,0,7.778,0.974,10.021,2.918c2.243,1.946,3.42,4.543,3.533,7.79l-7.139,0.314
	c-0.306-1.816-0.962-3.123-1.966-3.919c-1.005-0.796-2.513-1.194-4.522-1.194c-2.074,0-3.699,0.427-4.872,1.278
	c-0.757,0.547-1.134,1.278-1.134,2.195c0,0.837,0.353,1.553,1.061,2.146c0.9,0.757,3.087,1.544,6.56,2.364s6.041,1.669,7.706,2.544
	c1.664,0.877,2.966,2.074,3.907,3.593c0.941,1.519,1.411,3.398,1.411,5.631C848.947,259.702,848.383,261.6,847.259,263.368z
	 M880.517,238.599H870.05v29.375h-7.139v-29.375H852.42v-5.981h28.097V238.599z"/>
</svg>
