<svg xmlns="http://www.w3.org/2000/svg" viewBox="0 0 264.73 691.05"><g id="Layer_2" data-name="Layer 2"><g id="Layer_1-2" data-name="Layer 1"><path d="M107.75,510.91h53.53s46-103.84-27.13-103.84-26.4,103.84-26.4,103.84" fill="#f9c19d"/><path d="M264.73,132.37A132.37,132.37,0,1,1,132.36,0,132.36,132.36,0,0,1,264.73,132.37" fill="#b4bdd0"/><path d="M152.13,234.49c0,47.31-8.85,85.65-19.76,85.65S112.6,281.8,112.6,234.49s8.85-85.65,19.77-85.65,19.76,38.35,19.76,85.65" fill="#b4bdd0"/><path d="M107.65,510.75h53.68s58.11,80,65.68,180.3H40s14.48-118.4,67.65-180.3" fill="#333467"/><path d="M125.84,530.2c-12.3-2.41-36.6,68.11-56,160.85h49c15.56-88.86,19-158.52,7.09-160.85" fill="#8ea34b"/><path d="M192.91,46.09c0,3.47-26.82,6.28-59.91,6.28s-59.92-2.81-59.92-6.28S99.91,39.8,133,39.8s59.91,2.82,59.91,6.29" fill="#333467"/><path d="M192.91,219.65c0,3.47-26.82,6.28-59.91,6.28s-59.92-2.81-59.92-6.28,26.83-6.29,59.92-6.29,59.91,2.81,59.91,6.29" fill="#333467"/><path d="M232.06,85.8c0,3.74-41.91,6.77-93.6,6.77s-93.6-3-93.6-6.77S86.76,79,138.46,79s93.6,3,93.6,6.77" fill="#333467"/><path d="M228.6,177.57c0,3.74-41.9,6.77-93.6,6.77s-93.6-3-93.6-6.77,41.91-6.77,93.6-6.77,93.6,3,93.6,6.77" fill="#333467"/><path d="M239.82,132.35c0,3.91-47.06,7.08-105.12,7.08s-105.13-3.17-105.13-7.08,47.07-7.08,105.13-7.08,105.12,3.17,105.12,7.08" fill="#333467"/></g></g></svg>