<svg xmlns="http://www.w3.org/2000/svg" viewBox="0 0 214.85 385.7"><g id="Layer_2" data-name="Layer 2"><g id="Layer_1-2" data-name="Layer 1"><path d="M57.85,331.12H34.74v23.1H57.85ZM112.72,43.75H89.62v23.1h23.1Zm65,72.2H157.49v20.22H177.7Zm7.23,200.73H167.6V334h17.33Zm-56.32-15.89h-26v26h26ZM56.4,263.25H37.63V282H56.4Zm93.87-18.78H128.61v21.67h21.66ZM118.5,108.73H98.28V129H118.5ZM91.06,198.26H73.73v17.33H91.06Zm89.53-14.44H156v24.55h24.55Zm-130-47.65h-26v26h26ZM0,124.25,103.54,0,214.85,124.25V385.7H0Z" fill="#085b64"/></g></g></svg>