<svg xmlns="http://www.w3.org/2000/svg" viewBox="0 0 770.9 811.23"><g id="Layer_2" data-name="Layer 2"><g id="Layer_1-2" data-name="Layer 1"><path d="M463,245.75c0,15.79-61,28.58-136.13,28.58S190.7,261.54,190.7,245.75s61-28.57,136.14-28.57S463,230,463,245.75" fill="#fff"/><path d="M185.43,255c18.35,16,30.78,22.6,33.34,19.66s-8.48-16.75-24.06-30.32C156,210.62,81.11,149.64,78.55,152.58S146.7,221.29,185.43,255" fill="#bcb5ac"/><path d="M353.25,583.47h50.49s43.43-98-25.59-98-24.9,98-24.9,98" fill="#f9c19d"/><path d="M353.05,583.21h50.88s92.31,27.32,84.27,227.84h-218S255,623.57,353.05,583.21" fill="#8ea34b"/><path d="M632.36,590.69h57.38s49.35-111.3-29.08-111.3-28.3,111.3-28.3,111.3" fill="#bcb5ac"/><path d="M632.25,590.61h57.54s62.28,113.14,70.39,220.62H559.75s15.47-136.91,72.5-220.62" fill="#fff"/><path d="M145.17,585.06a43.83,43.83,0,1,1-43.82-43.82,43.82,43.82,0,0,1,43.82,43.82" fill="#fff"/><path d="M72.5,617.32H130s62.28,85.77,70.39,193.25H0S15.52,683.68,72.5,617.32" fill="#ec6624"/><path d="M332.84,599.3c-17.6-5.6-50.82,49.41-74.2,122.87-10.51,33-17.2,64.1-19.83,88.88h56.42a505.82,505.82,0,0,0,27.15-68.6C345.75,669,350.44,604.9,332.84,599.3" fill="#085b64"/><path d="M753.41,725.66c-20.24-73-48-129-62-125.14s-9,66.21,11.26,139.22A612.35,612.35,0,0,0,727,811.23H770.9c-2.71-23.83-8.65-53.68-17.49-85.57" fill="#627fa1"/><path d="M179.66,797.57c-19.49-92.29-45.17-165-57.35-162.45s-6.26,79.47,13.23,171.77c.26,1.23.52,2.45.79,3.68h46c-.87-4.3-1.75-8.62-2.67-13" fill="#69604f"/><path d="M384.86,112.47c-93.46,0-103.27,166.25-100.92,264.38H484.8c3.14-98.13-5.48-264.38-99.94-264.38" fill="#69604f"/><path d="M432,146.12c-33.33,7.25-.14,155.91,18.81,230.73h56.17C496.58,306.23,468,138.27,432,146.12" fill="#fff"/><path d="M346,85.69a33.1,33.1,0,1,0,33.1-33.1A33.09,33.09,0,0,0,346,85.69" fill="#627fa1"/><path d="M207.12,247.87A16.86,16.86,0,1,1,190.27,231a16.85,16.85,0,0,1,16.85,16.86" fill="#627fa1"/><polygon points="403.2 40 387.19 0 378.65 0 370.11 0 354.53 40 338.95 79.99 347.52 79.99 356.09 79.99 401.65 79.99 410.43 79.99 419.22 79.99 403.2 40" fill="#ec6624"/></g></g></svg>