<svg xmlns="http://www.w3.org/2000/svg" viewBox="0 0 766.17 686.14"><g id="Layer_2" data-name="Layer 2"><g id="Layer_1-2" data-name="Layer 1"><path d="M724.72,69.35C673.42-18.23,401.64-23,231,56,29.49,149.25-50.19,368.75,32,518.84,112,665,334.63,719.75,529.61,665.76S785.19,446.23,761.2,362.24s-84.13-74.77-126.12-92.77S598.6,201.72,653.84,184c61.66-19.78,97-70,70.88-114.66" fill="#333467"/><path d="M189.58,231.42c10-28.75,172.81-67.44,167.14-43.51-6.86,28.92-176.72,71-167.14,43.51" fill="#085b64"/><path d="M355.67,193.41a10.59,10.59,0,1,0-2.88-14.7,10.59,10.59,0,0,0,2.88,14.7" fill="#69604f"/><path d="M646.92,348,697,359l-33.73-39.85S646.1,327.78,646.92,348" fill="#b4bdd0"/><path d="M542.1,289.43S548.92,341,576.71,380c13.1,18.38,35.44-2.09,60.49-35.44,9.18-12.22,22.41-4.17,18.82,17.72s-13.14,43.88-32.09,63.58c-22.07,22.95-63.35,20.62-86.38-8.33-26.52-33.34-36.9-52-53-128.06s57.59,0,57.59,0" fill="#fff"/><path d="M507.92,604.05,485,649.91,531.89,627s-4.17-18.76-24-22.93" fill="#b4bdd0"/><path d="M443.59,319.5s43,298.1,64.54,297.06-5.38-345-5.38-345Z" fill="#fff"/><path d="M556.86,117.58c-43.89-25-87.27,7-106.1,70.59-18.47,62.41-7.17,131.33-7.17,131.33l99.27-30.07s-7.44-48.07,14.57-98.13c14.28-32.47,21.94-60.89-.57-73.72" fill="#ec6624"/><path d="M569,98.59a23.53,23.53,0,1,1-23.53-23.53A23.52,23.52,0,0,1,569,98.59" fill="#b4bdd0"/><path d="M433,284.82c8,7.06,43.06-19.52,78.38-59.36s57.5-77.88,49.53-84.94S517.87,160,482.54,199.88,425.05,277.75,433,284.82" fill="#69604f"/><path d="M445.9,290.32a15.11,15.11,0,1,1-15.11-15.11,15.1,15.1,0,0,1,15.11,15.11" fill="#b4bdd0"/><polygon points="327.38 430.66 391.64 628.42 285.1 456.92 327.38 430.66" fill="#69604f"/><polygon points="263.59 442.01 327.85 639.78 221.31 468.28 263.59 442.01" fill="#69604f"/><path d="M268.57,260.07l-86.42,29.32c-14.38,94.11,20.21,207.15,20.21,207.15l176.21-59.78s-85.6-89-110-176.69" fill="#b4bdd0"/><path d="M268.57,260.22l-86.51,29.14S203,131.5,294.54,138.59c25.47,2,14,40-11.65,71.54-17.55,21.55-14.32,50.09-14.32,50.09" fill="#ec6624"/><path d="M308.45,150.11l-23-11.88s.17-24.78,13.94-37.24,33.22.83,31.56,15.88-22.52,33.24-22.52,33.24" fill="#69604f"/><path d="M274.61,154c6.81,29.69-110.45,149-118.37,125.76C146.66,251.64,268.12,125.67,274.61,154" fill="#085b64"/><path d="M154.2,274.57a10.59,10.59,0,1,0,10.26,10.91,10.59,10.59,0,0,0-10.26-10.91" fill="#69604f"/><path d="M468.37,65c1.49,10.43-13.9,21.24-34.36,24.15s-38.26-3.18-39.74-13.61,13.9-21.24,34.36-24.15S466.89,54.53,468.37,65" fill="#b4bdd0"/><path d="M411.56,53c.39,2.77-5.28,5.87-12.67,6.93s-13.71-.35-14.1-3.12,5.28-5.87,12.67-6.92,13.7.34,14.1,3.11" fill="#ec6624"/><path d="M420.17,51.82A11.83,11.83,0,1,0,410.12,65.2a11.84,11.84,0,0,0,10.05-13.38" fill="#b4bdd0"/><path d="M56.78,453.61c-10,7.5-6.24,29.53,8.46,49.21S100,532.39,110,524.89s6.24-29.53-8.47-49.21-34.76-29.57-44.79-22.07" fill="#fff"/><path d="M114.46,491.49c-2.67,2-.52,9.37,4.79,16.49s11.79,11.26,14.45,9.27.52-9.38-4.79-16.49-11.78-11.26-14.45-9.27" fill="#ec6624"/><path d="M108.28,483.21a14.07,14.07,0,1,1-2.85,19.69,14.06,14.06,0,0,1,2.85-19.69" fill="#fff"/></g></g></svg>