<svg xmlns="http://www.w3.org/2000/svg" xmlns:xlink="http://www.w3.org/1999/xlink" viewBox="0 0 713.33 739.73"><defs><clipPath id="clip-path" transform="translate(0 -206.75)"><path d="M0,597.06c0,75.63,159.69,137,356.67,137s356.66-61.32,356.66-137S553.65,0,356.67,0,0,521.42,0,597.06" fill="none"/></clipPath></defs><g id="Layer_2" data-name="Layer 2"><g id="Layer_1-2" data-name="Layer 1"><path d="M0,597.06c0,75.63,159.69,137,356.67,137s356.66-61.32,356.66-137-159.68-137-356.66-137S0,521.42,0,597.06" transform="translate(0 -206.75)" fill="#333467"/><g clip-path="url(#clip-path)"><path d="M602.42,883.55l-92.56,17S363.32,413.31,448.48,396c83.32-17,153.94,487.6,153.94,487.6" transform="translate(0 -206.75)" fill="#8ea34b"/><path d="M398,337.25c228,94.62,143.47,609.23,143.47,609.23H183.83S167.55,241.61,398,337.25" transform="translate(0 -206.75)" fill="#69604f"/><path d="M222,913.08l-91-24S206.05,385.78,290.5,406.37C373.11,426.51,222,913.08,222,913.08" transform="translate(0 -206.75)" fill="#8ea34b"/><path d="M428.76,355.09l-65.4-27.15s-5.21-67.65,29.52-104.77,90.8-5.34,89.71,36.08-53.83,95.84-53.83,95.84" transform="translate(0 -206.75)" fill="#627fa1"/></g></g></g></svg>