<svg xmlns="http://www.w3.org/2000/svg" viewBox="0 0 716.94 683.29"><g id="Layer_2" data-name="Layer 2"><g id="Layer_1-2" data-name="Layer 1"><path d="M158.82,158.22c-208,0-151.93,525.07-151.93,525.07H308.3s60.8-525.07-149.48-525.07" fill="#8ea34b"/><path d="M129.1,162.17h59.68s25.91-51,10.86-91.11-68.95-33.49-81.49-.89,10.95,92,10.95,92" fill="#f9c19d"/><polygon points="381.23 41.77 276.92 83.54 276.92 105.81 276.92 128.09 381.23 168.72 485.55 209.35 485.55 187.01 485.55 164.66 485.55 45.83 485.55 22.91 485.55 0 381.23 41.77" fill="#ec6624"/><path d="M705.87,45.12c-16.69-10-46.49,9-68,42.6-21.56-33.6-51.37-52.57-68.06-42.6-17.4,10.39-13.91,48.27,7.79,84.6,15.55,26,36.2,44.12,53.07,48.52.28.09.57.13.85.21.6.14,1.21.32,1.8.43a21.82,21.82,0,0,0,3.16.36c.46,0,.93,0,1.39.06l1.38-.06a21.66,21.66,0,0,0,3.16-.36c.59-.11,1.2-.29,1.81-.43.27-.08.57-.12.84-.21,16.87-4.4,37.52-22.49,53.07-48.52,21.7-36.33,25.19-74.21,7.79-84.6" fill="#fff"/><path d="M414.87,210.12a27.35,27.35,0,1,0-38.67.83,27.35,27.35,0,0,0,38.67-.83" fill="#f9c19d"/><path d="M349.18,180.81l74.17,48.81s-38,77.53-89.65,162c-30.59,50-88.71,62.18-115.3,28.95C143,326.26,82,234.57,114.31,208.61c29.34-23.59,83,33.61,151.62,122.76,8.93,11.62-27.35,16.48-19.68,4C305,239.8,349.18,180.81,349.18,180.81" fill="#627fa1"/></g></g></svg>