<svg xmlns="http://www.w3.org/2000/svg" viewBox="0 0 257.03 440.55"><g id="Layer_2" data-name="Layer 2"><g id="Layer_1-2" data-name="Layer 1"><path d="M36.8,11c-4.18-2.49-11.63,2.25-17,10.65C14.39,13.23,6.94,8.49,2.77,11c-4.35,2.6-3.48,12.07,1.95,21.15,3.88,6.51,9.05,11,13.26,12.13l.21.06c.16,0,.31.08.46.1a5,5,0,0,0,.78.09l.35,0,.35,0a5.16,5.16,0,0,0,.79-.09c.15,0,.3-.07.45-.1l.21-.06c4.22-1.1,9.38-5.62,13.27-12.13,5.42-9.08,6.3-18.55,1.95-21.15" fill="#fff"/><path d="M93.85,61.52A8.14,8.14,0,1,0,102,53.38a8.13,8.13,0,0,0-8.13,8.14" fill="#bcb5ac"/><path d="M167.52,78.48,125,105.83,115.6,62.56,82,77.44s23.54,42.92,27.69,51.23S127.85,142,136,133.86c10-10,38.76-41.88,38.76-41.88" fill="#627fa1"/><polygon points="107.42 10.94 134.75 21.89 134.75 27.72 134.75 33.56 107.42 44.2 80.09 54.85 80.09 48.99 80.09 43.14 80.09 12.01 80.09 6 80.09 0 107.42 10.94" fill="#ec6624"/><path d="M185,46.2c37.35,0,57.37,161.83,57.37,200.26H127.6C127.6,198.29,150.87,46.2,185,46.2" fill="#085b64"/><polygon points="127.6 246.46 118.94 425.76 184.97 249.71 248.3 421.98 242.34 246.46 127.6 246.46" fill="#69604f"/><path d="M248.26,421.12s-37.18,1.47-37.18,11.21,38,8.12,38,8.12Z" fill="#bcb5ac"/><path d="M121.19,421.12s-37.4,1.47-38.89,11.21,36.81,8.12,36.81,8.12Z" fill="#bcb5ac"/><path d="M195.31,50.43H175.14a83,83,0,0,1-5.53-28.61C169.61,3,199.82,4,199.82,21.5c0,14.41-4.51,28.93-4.51,28.93" fill="#bcb5ac"/><path d="M233,192.22a8.14,8.14,0,1,0,8.13-8.13,8.13,8.13,0,0,0-8.13,8.13" fill="#bcb5ac"/><path d="M189.47,78.2c-2.22-10.8,9.9-15.3,15.78-7.68,4.65,6,51.78,111.55,51.78,111.55l-41.88,14S191.83,89.74,189.47,78.2" fill="#627fa1"/></g></g></svg>