<svg xmlns="http://www.w3.org/2000/svg" viewBox="0 0 97.95 313.96"><g id="Layer_2" data-name="Layer 2"><g id="Layer_1-2" data-name="Layer 1"><path d="M39.85,242.79c0-39.31-4.73-71.18-10.56-71.18s-10.55,31.87-10.55,71.18S23.46,314,29.29,314s10.56-31.87,10.56-71.17" fill="#69604f"/><path d="M76,242.79c0-39.31-4.73-71.18-10.56-71.18s-10.55,31.87-10.55,71.18S59.65,314,65.48,314,76,282.09,76,242.79" fill="#69604f"/><path d="M98,249.23C98,142,76,55.14,49,55.14S0,142,0,249.23c0,9.73.24,19.22.59,28.57H97.36c.35-9.35.59-18.84.59-28.57" fill="#627fa1"/><path d="M63.39,47.11A14.58,14.58,0,1,1,48.81,32.54,14.58,14.58,0,0,1,63.39,47.11" fill="#f9c19d"/><path d="M49.14,123.45c0,29.32-3.88,53.09-8.67,53.09s-8.67-23.77-8.67-53.09,3.88-53.09,8.67-53.09,8.67,23.77,8.67,53.09" fill="#333467"/><polygon points="61.04 20.67 52.77 0 48.35 0 43.94 0 35.89 20.67 27.84 41.33 32.27 41.33 36.69 41.33 60.24 41.33 64.78 41.33 69.31 41.33 61.04 20.67" fill="#ec6624"/></g></g></svg>