<svg xmlns="http://www.w3.org/2000/svg" viewBox="0 0 264.73 689.51"><g id="Layer_2" data-name="Layer 2"><g id="Layer_1-2" data-name="Layer 1"><path d="M264.73,132.37A132.37,132.37,0,1,1,132.37,0,132.36,132.36,0,0,1,264.73,132.37" fill="#fff"/><path d="M152.13,234.49c0,47.3-8.85,85.65-19.76,85.65s-19.77-38.35-19.77-85.65,8.85-85.65,19.77-85.65,19.76,38.35,19.76,85.65" fill="#fff"/><path d="M142.92,442.84c-87.2,0-96.35,155.11-94.16,246.67H236.17c2.92-91.56-5.12-246.67-93.25-246.67" fill="#8ea34b"/><path d="M175.57,474.23c-31.1,6.77-.12,145.47,17.55,215.28h52.41c-9.67-65.89-36.3-222.6-70-215.28" fill="#627fa1"/><path d="M98.18,416.67a36.9,36.9,0,1,0,36.9-36.89,36.9,36.9,0,0,0-36.9,36.89" fill="#333467"/><path d="M142.46,88.21c0,31-3.42,56.09-7.64,56.09s-7.65-25.12-7.65-56.09,3.42-56.1,7.65-56.1,7.64,25.12,7.64,56.1" fill="#ec6624"/><path d="M137.34,140.65c0,8-17.13,14.45-38.25,14.45s-38.25-6.47-38.25-14.45S78,126.21,99.09,126.21s38.25,6.47,38.25,14.44" fill="#ec6624"/></g></g></svg>