<svg xmlns="http://www.w3.org/2000/svg" viewBox="0 0 545.31 570.31"><g id="Layer_2" data-name="Layer 2"><g id="Layer_1-2" data-name="Layer 1"><path d="M444.22,173.47s101.09,17.62,101.09,112.22c0,110.36-171.57,120.55-267.09,85.32V282H446.08Z" fill="#8ea34b"/><path d="M364.73,460C343.46,490.41,323,512.83,319,510s10-29.72,31.3-60.14S392,397,396,399.83s-10,29.72-31.3,60.15" fill="#b4bdd0"/><path d="M513,529c-3,2.54-61.08-60.25-129.84-140.25S261.05,241.81,264,239.27s61.09,60.25,129.84,140.26S515.93,526.44,513,529" fill="#b4bdd0"/><polygon points="70.71 346.03 66 439.54 0 529.59 93.22 447.86 121.89 346.03 70.71 346.03" fill="#ec6723"/><polygon points="93.05 342.3 149.82 570.31 144.23 342.3 93.05 342.3" fill="#ec6723"/><path d="M100.92,48.52c-52.55,0-86.76,341.29-86.76,341.29H192.22S154.47,48.52,100.92,48.52" fill="#b4bdd0"/><path d="M100.25,81.72c11.24-7.24,66.87,88.47,66.87,88.47s95.87,59.19,93.3,68c-2.12,7.3-52.46-12.94-100.86-36.05-12.87-6.14-23-16.85-29.55-29.29-22.44-42.7-39.08-85.13-29.76-91.13" fill="#333467"/><path d="M362.92,521a45.6,45.6,0,1,0-45.59,45.6A45.59,45.59,0,0,0,362.92,521" fill="#333467"/><path d="M273.72,236.36a10.7,10.7,0,1,1-13.92-5.94,10.7,10.7,0,0,1,13.92,5.94" fill="#f9c19d"/><path d="M346.85,524A27.83,27.83,0,1,1,319,496.21,27.83,27.83,0,0,1,346.85,524" fill="#8ea34b"/><path d="M537.53,538.35a28.23,28.23,0,1,0-28.24,28.24,28.24,28.24,0,0,0,28.24-28.24" fill="#333467"/><path d="M527.57,540.23A17.23,17.23,0,1,1,510.35,523a17.22,17.22,0,0,1,17.22,17.22" fill="#8ea34b"/><path d="M114,55.23l-24.18-1s-9.93-22-2.53-38.37c9.57-21.19,29.9-11.8,33.4,3.33C124,33.39,114,55.23,114,55.23" fill="#f9c19d"/><path d="M116.13,10.1s-4.53,44-32.61,58.62-44-.59-42.7-22.23c2.1-35,50.09-61.95,75.31-36.39" fill="#ec6723"/></g></g></svg>