<svg xmlns="http://www.w3.org/2000/svg" viewBox="0 0 780.7 832.18"><g id="Layer_2" data-name="Layer 2"><g id="Layer_1-2" data-name="Layer 1"><path d="M145.62,773.17c0,32.59-8.68,59-19.4,59s-19.4-26.42-19.4-59,8.69-59,19.4-59,19.4,26.42,19.4,59" fill="#333467"/><path d="M323.45,773.17c0,32.59-8.69,59-19.4,59s-19.4-26.42-19.4-59,8.69-59,19.4-59,19.4,26.42,19.4,59" fill="#333467"/><path d="M494.81,773.17c0,32.59-8.68,59-19.4,59s-19.4-26.42-19.4-59,8.69-59,19.4-59,19.4,26.42,19.4,59" fill="#333467"/><path d="M666.17,773.17c0,32.59-8.68,59-19.4,59s-19.4-26.42-19.4-59,8.69-59,19.4-59,19.4,26.42,19.4,59" fill="#333467"/><path d="M780.7,641.88A134.93,134.93,0,1,1,645.78,507,134.92,134.92,0,0,1,780.7,641.88" fill="#8ea34b"/><path d="M612.57,641.88A134.93,134.93,0,1,1,477.65,507,134.92,134.92,0,0,1,612.57,641.88" fill="#8ea34b"/><path d="M442.83,641.88A134.93,134.93,0,1,1,307.9,507,134.93,134.93,0,0,1,442.83,641.88" fill="#8ea34b"/><path d="M269.85,641.88A134.93,134.93,0,1,1,134.93,507,134.93,134.93,0,0,1,269.85,641.88" fill="#8ea34b"/><polygon points="123.42 704.69 77.62 704.69 103.49 639.26 149.28 639.26 123.42 704.69" fill="#b4bdd0"/><polygon points="181.64 704.69 135.85 704.69 161.71 639.26 207.51 639.26 181.64 704.69" fill="#b4bdd0"/><polygon points="239.87 704.69 194.07 704.69 219.94 639.26 265.73 639.26 239.87 704.69" fill="#b4bdd0"/><polygon points="352.51 704.69 306.71 704.69 332.58 639.26 378.37 639.26 352.51 704.69" fill="#b4bdd0"/><polygon points="410.73 704.69 364.94 704.69 390.8 639.26 436.6 639.26 410.73 704.69" fill="#b4bdd0"/><polygon points="468.96 704.69 423.16 704.69 449.03 639.26 494.82 639.26 468.96 704.69" fill="#b4bdd0"/><polygon points="582.98 704.69 537.18 704.69 563.05 639.26 608.84 639.26 582.98 704.69" fill="#b4bdd0"/><polygon points="641.2 704.69 595.41 704.69 621.27 639.26 667.07 639.26 641.2 704.69" fill="#b4bdd0"/><polygon points="699.43 704.69 653.63 704.69 679.5 639.26 725.29 639.26 699.43 704.69" fill="#b4bdd0"/><path d="M434.92,133.84c4.62,7,17.84,34.41,22.2,62.17,0,0,62.69-23.76,74.51-7.95s-58.94,51.55-81.81,57.55c-19,5-31.91-15.08-38.26-42.47-6.57-28.32-2.62-55.36,3.07-67.13s15.66-9.12,20.29-2.17" fill="#333467"/><path d="M429.69,329.73H380.87l-24.52,254s54.33-98.26,70.44-189.56c2.23-12.63,2.9-64.46,2.9-64.46" fill="#ec6624"/><path d="M356.35,583.75S356,595.67,370,597.66c11.19,1.58,25.19-3.21,24.89-9.78-.36-7.65-19.58-7.8-38.57-4.13" fill="#333467"/><path d="M464,329.73H415.15l16.2,254S472.6,485.49,468,394.19c-.63-12.63-4.06-64.46-4.06-64.46" fill="#ec6624"/><path d="M431.29,583.75s-.37,11.92,13.68,13.91c11.19,1.58,25.19-3.21,24.88-9.78-.35-7.65-19.57-7.8-38.56-4.13" fill="#333467"/><path d="M317.59,471.55H498S475.23,101.79,407,101.79s-89.45,369.76-89.45,369.76" fill="#085b64"/><path d="M392.59,107.23h28.92s24.88-56.1-14.66-56.1-14.26,56.1-14.26,56.1" fill="#f9c19d"/><path d="M401.36,124.83C370,110,279.23,267.72,303.76,284.31c29.62,20,127.55-145.34,97.6-159.48" fill="#333467"/><polygon points="426.95 32.78 413.83 0 406.83 0 399.83 0 387.07 32.78 374.3 65.55 381.32 65.55 388.34 65.55 425.68 65.55 432.88 65.55 440.08 65.55 426.95 32.78" fill="#ec6624"/><path d="M547.13,190.67a9.75,9.75,0,1,1-4.53-13,9.76,9.76,0,0,1,4.53,13" fill="#f9c19d"/><path d="M311,291a9.76,9.76,0,1,1-9.76-9.76A9.75,9.75,0,0,1,311,291" fill="#f9c19d"/><path d="M232.37,137.52a9.76,9.76,0,1,1-9.75-9.76,9.75,9.75,0,0,1,9.75,9.76" fill="#bcb5ac"/><path d="M144,157.86l51,32.79,11.21-51.88,40.27,17.84s-28.23,51.48-33.21,61.44-21.74,16-31.55,6.23c-12-12-46.49-50.23-46.49-50.23" fill="#627fa1"/><polygon points="216.09 76.87 183.31 89.99 183.31 96.99 183.31 103.99 216.09 116.75 248.87 129.52 248.87 122.5 248.87 115.48 248.87 78.14 248.87 70.94 248.87 63.74 216.09 76.87" fill="#ec6624"/><path d="M123.09,119.14c-44.78,0-68.8,194.09-68.8,240.17H191.9c0-57.77-27.91-240.17-68.81-240.17" fill="#333467"/><polygon points="191.9 359.31 202.28 574.34 123.09 363.21 47.15 569.8 54.29 359.31 191.9 359.31" fill="#fff"/><path d="M47.19,568.78s44.59,1.75,44.59,13.44S46.15,592,46.15,592Z" fill="#333467"/><path d="M199.58,568.78s44.86,1.75,46.64,13.44S202.08,592,202.08,592Z" fill="#333467"/><path d="M110.69,124.21h24.19a99.5,99.5,0,0,0,6.63-34.3c0-22.57-36.22-21.44-36.22-.38,0,17.28,5.4,34.68,5.4,34.68" fill="#bcb5ac"/><path d="M65.54,294.27a9.76,9.76,0,1,1-9.75-9.76,9.75,9.75,0,0,1,9.75,9.76" fill="#bcb5ac"/><path d="M117.7,157.53c2.66-12.95-11.87-18.35-18.93-9.22-5.57,7.21-62.1,133.78-62.1,133.78L86.9,298.83s28-127.46,30.8-141.3" fill="#627fa1"/><path d="M675.16,426.42c0,60.44-7.22,158.94-16.12,158.94s-16.13-98.5-16.13-158.94S650.13,317,659,317s16.12,49,16.12,109.42" fill="#b4bdd0"/><path d="M727.46,426.42c0,60.44-7.22,158.94-16.12,158.94s-16.13-98.5-16.13-158.94S702.43,317,711.34,317s16.12,49,16.12,109.42" fill="#b4bdd0"/><path d="M634.36,256.52H733.7c27.53,59.33,37.12,132.09,37.12,132.09H599.43s7.64-78.6,34.93-132.09" fill="#627fa1"/><path d="M634.36,256.52H733.7S722.79,67.81,686.76,67.81s-52.4,188.71-52.4,188.71" fill="#fff"/><path d="M709.13,54.63a21.36,21.36,0,1,1-21.35-21.36,21.35,21.35,0,0,1,21.35,21.36" fill="#f9c19d"/><path d="M735.79,288.11a9.76,9.76,0,1,1-9.75-9.75,9.76,9.76,0,0,1,9.75,9.75" fill="#f9c19d"/><path d="M711.6,282l27.23-2.3s-19.19-195.2-44.45-193.6C669.66,87.61,711.6,282,711.6,282" fill="#8ea34b"/><path d="M661.2,584.39s-36.21,5.85-34.88,17,30.16,4.76,34.88-17" fill="#ec6624"/><path d="M713.42,584.43s-36.21,5.85-34.88,17,30.16,4.76,34.88-17" fill="#ec6624"/></g></g></svg>