<svg xmlns="http://www.w3.org/2000/svg" viewBox="0 0 951.02 1026.31"><g id="Layer_2" data-name="Layer 2"><g id="Layer_1-2" data-name="Layer 1"><rect x="342.6" y="8.51" width="593.19" height="106.73" fill="#fff"/><path d="M774.92,541.87c0,156.42-13.29,411.37-29.68,411.37s-29.68-255-29.68-411.37,13.29-283.22,29.68-283.22,29.68,126.8,29.68,283.22" fill="#b4bdd0"/><path d="M871.2,541.87c0,156.42-13.29,411.37-29.68,411.37s-29.68-255-29.68-411.37,13.29-283.22,29.68-283.22,29.68,126.8,29.68,283.22" fill="#b4bdd0"/><path d="M699.82,102.12H882.69C933.36,255.69,951,444,951,444H635.51s14.07-203.44,64.31-341.89" fill="#627fa1"/><path d="M886.54,183.89c0,14-8,25.25-18,25.25s-18-11.3-18-25.25,8-25.25,18-25.25,18,11.31,18,25.25" fill="#f9c19d"/><path d="M749.23,950.73S682.57,965.87,685,994.66s55.52,12.32,64.21-43.93" fill="#ec6624"/><path d="M845.35,950.85S778.69,966,781.14,994.78s55.52,12.32,64.21-43.93" fill="#ec6624"/><path d="M699.82,102.12H882.69S879,57.49,875,0H707.79c-5.12,57.49-8,102.12-8,102.12" fill="#333467"/><path d="M842,168l50.14-6S887,87.7,878.44,0H820.61C832,90.64,842,168,842,168" fill="#ec6624"/><path d="M99.44,587C-15.76,587,15,945.76,81.34,945.35,122.4,945.1,191.5,845.21,191.5,696.54c0-95.25-30-109.57-92.06-109.57" fill="#333467"/><path d="M26.75,748.54h0a20.18,20.18,0,0,0,24.39-14.66l7.78-31.24a20.12,20.12,0,1,0-39-9.73l-7.78,31.24a20.17,20.17,0,0,0,14.66,24.39" fill="#627fa1"/><path d="M347.77,287.75h0a20.18,20.18,0,0,0,27.58-7l16.48-27.66a20.13,20.13,0,0,0-34.58-20.6l-16.47,27.66a20.18,20.18,0,0,0,7,27.59" fill="#627fa1"/><path d="M284.5,924.67c-31.81-8.34-63.69,37.09-30,58.48,21.13,13.4,72.52,40.51,88.25,31.14s-29.37-82-58.27-89.62" fill="#fff"/><path d="M102.66,923.46c-14.34-29.58-69.58-24.26-63.91,15.25,3.56,24.77,16.38,81.45,33.73,87.3s43.22-75.66,30.18-102.55" fill="#fff"/><path d="M331.14,240.22l67.6,40.34S283.07,537.67,226.56,490.27c-55.28-46.36,104.58-250,104.58-250" fill="#bcb5ac"/><path d="M264.7,587c111.61,28.5,84.13,364.6,18.09,358.38C231.38,940.51,159.06,749.26,179.36,659c14-62.41,43.51-82.72,85.34-72" fill="#333467"/><path d="M181.5,395.3c155.53,0,153,306.85,153,306.85H31S-30.21,395.3,181.5,395.3" fill="#69604f"/><path d="M211.43,399.27H151.34s-26.09-51.33-10.94-91.73,69.43-33.71,82-.9-11,92.63-11,92.63" fill="#627fa1"/><path d="M78.92,716.2,0,704S18.69,448.9,91.79,458.78c71.5,9.67-12.87,257.42-12.87,257.42" fill="#bcb5ac"/><path d="M390.09,216c-16,25.64-21.76,42.2-17.65,44.77s18.92-13.67,32.55-35.46c33.85-54.11,94.15-157.92,90-160.5S423.94,161.9,390.09,216" fill="#333467"/><path d="M354.06,249.77c-1.84-4.43,4-11.05,13-14.78s17.8-3.15,19.63,1.29-4,11.05-13,14.77-17.8,3.16-19.63-1.28" fill="#627fa1"/></g></g></svg>