<svg xmlns="http://www.w3.org/2000/svg" viewBox="0 0 216.3 378.59"><g id="Layer_2" data-name="Layer 2"><g id="Layer_1-2" data-name="Layer 1"><polygon points="106.55 306.88 79.99 240.56 65.83 240.56 51.67 240.56 25.83 306.88 0 373.21 14.21 373.21 28.41 373.21 103.97 373.21 118.54 373.21 133.11 373.21 106.55 306.88" fill="#ec6624"/><polyline points="216.27 179.81 201.81 375.35 168.55 199.51" fill="#fff"/><polygon points="144.51 378.59 154.97 209.41 114.1 222.71 144.51 378.59" fill="#fff"/><path d="M185.09,176.88c-5,5.05-35.9-17.52-68.95-50.41S60.36,62.83,65.39,57.77s35.89,17.52,69,50.41,55.77,63.64,50.75,68.7" fill="#085b64"/><path d="M9,235.54,119.8,196.1S110.3,44,70.38,45,6.69,197.14,9,235.54" fill="#333467"/><path d="M216.07,177.76c3.8,13.38-39.43,37.39-96.56,53.64S13,250,9.18,236.59s39.42-37.4,96.56-53.65,106.52-18.56,110.33-5.18" fill="#fff"/><path d="M58.91,49.53H82.47a96.7,96.7,0,0,0,6.47-33.41c0-22-35.29-20.88-35.29-.37,0,16.83,5.26,33.78,5.26,33.78" fill="#f9c19d"/></g></g></svg>