<svg xmlns="http://www.w3.org/2000/svg" viewBox="0 0 264.48 955.2"><g id="Layer_2" data-name="Layer 2"><g id="Layer_1-2" data-name="Layer 1"><path d="M49.62,385a15.46,15.46,0,1,1-15.46-15.46A15.46,15.46,0,0,1,49.62,385" fill="#627fa1"/><path d="M87.34,837.35c20.11,6.52,24.46,54.36-.55,57.08-15.67,1.7-52.18,1.63-58.16-12s40.43-51.05,58.71-45.12" fill="#69604f"/><path d="M216.71,837.35c20.12,6.52,24.47,54.36-.54,57.08-15.67,1.7-52.19,1.63-58.17-12s40.43-51.05,58.71-45.12" fill="#69604f"/><path d="M11.35,371.31l49.35,9.08s78.13-259.81,32.72-269.07c-44.42-9-82.07,260-82.07,260" fill="#fff"/><path d="M92.79,332.49c-70.14,17.9-52.87,523.31-11.37,519.4,32.3-3,89.41-349.38,65-474.14-7.73-39.44-27.34-52-53.62-45.26" fill="#333467"/><path d="M196.62,332.49c72.38,0,53,519.65,11.37,519.4-25.8-.16-70.51-306.56-71.73-433.56-.58-59.84,21.39-85.84,60.36-85.84" fill="#333467"/><path d="M145.06,72.7C13.46,72.7,49,404.86,49,404.86H239.62S278.08,72.7,145.06,72.7" fill="#8ea34b"/><path d="M126.26,75.19H164s16.39-32.25,6.88-57.63S127.26-3.63,119.33,17s6.93,58.2,6.93,58.2" fill="#627fa1"/><path d="M247.68,393a15.46,15.46,0,1,1-15.46-15.45A15.46,15.46,0,0,1,247.68,393" fill="#627fa1"/><path d="M206.12,386.51l49.59-7.67S244,107.79,198,114c-44.93,6.07,8.08,272.51,8.08,272.51" fill="#fff"/><rect y="885.93" width="264.48" height="69.26" fill="#ec6624"/></g></g></svg>