<svg xmlns="http://www.w3.org/2000/svg" viewBox="0 0 345.84 612.58"><g id="Layer_2" data-name="Layer 2"><g id="Layer_1-2" data-name="Layer 1"><path d="M258.11,209.45c0,9.94-50,18-111.7,18s-111.71-8.06-111.71-18,50-18,111.71-18,111.7,8.06,111.7,18" fill="#333467"/><polygon points="313.46 484.88 281.07 404 263.81 404 246.54 404 215.03 484.88 183.53 565.76 200.86 565.76 218.18 565.76 310.31 565.76 328.08 565.76 345.84 565.76 313.46 484.88" fill="#ec6624"/><path d="M144.14,583.58C130,588.19,116.29,593,104.06,597c-9.26,3-6,15.63,1.43,15.63h45.88c12.73,0,9.73-34.52-7.23-29" fill="#333467"/><path d="M312,310.92s-27.78-5.52-56.55-2v-6.8H194.21v6.39a116.36,116.36,0,0,0-22.3,6.47c-35.07,13.49-108.82,35.8-130.19,54.56a88.91,88.91,0,0,0-13.26,14.23C16.25,399.55,7.88,431.5,7.88,468.44c0,52.6,17,115.15,37.85,115.15S83.59,521,83.59,468.44a220.1,220.1,0,0,0-4-42.41c7.7,0,17.41-.81,31.24-2.93a217.2,217.2,0,0,0-4.56,45.34c0,52.6,17,115.15,37.86,115.15S182,521,182,468.44A220.07,220.07,0,0,0,178,426c14.18,0,35.24-2.83,76-11.25,85-17.53,58-103.86,58-103.86" fill="#fff"/><path d="M45.73,583.58C31.59,588.19,17.89,593,5.65,597c-9.26,3-6,15.63,1.44,15.63H53c12.74,0,9.74-34.52-7.23-29" fill="#333467"/><path d="M313.16,315.45h-143s-40.07-135.19-31.65-193.27c7.16-49.37,47.16-60.91,76.18-28.08s89.4,152.78,98.47,221.35" fill="#bcb5ac"/><path d="M157.79,79c10.34,6.88,23.94,2.11,28.79-6.65,6.39-11.56,9.58-32.25.83-50.6C176.82-.48,156.61-3,145.14,2.4S127,22.65,132.7,42.58c5,17.7,16.84,30.9,25.09,36.41" fill="#627fa1"/><path d="M151.24,367.24c-10.77-3.92-28.2,6.06-33.37,13.29s4.15,16,18.59,11,21.69-21.74,14.78-24.25" fill="#627fa1"/><path d="M208.6,103.24C173.67,97,121.27,364,146.22,372.73s98.9-263,62.38-269.49" fill="#333467"/><path d="M59.74,210c0,6-11.45,10.89-25.58,10.89S8.58,216,8.58,210,20,199.06,34.16,199.06,59.74,203.94,59.74,210" fill="#627fa1"/></g></g></svg>