<svg xmlns="http://www.w3.org/2000/svg" viewBox="0 0 630.1 893.99"><g id="Layer_2" data-name="Layer 2"><g id="Layer_1-2" data-name="Layer 1"><path d="M487.11,206.91c17.83,57.3,26.43,105.58,19.21,107.82s-27.55-42.37-45.39-99.67S434.5,109.49,441.72,107.24s27.55,42.37,45.39,99.67" fill="#333467"/><path d="M7.4,889.66h0c-6.08,0-9-5.36-6.5-11.91L332.71,11.92C335.22,5.36,342.26,0,348.35,0s9,5.36,6.5,11.92L23,877.75c-2.51,6.55-9.55,11.91-15.64,11.91" fill="#fff"/><path d="M146.16,889.66h0c-6.09,0-9-5.36-6.5-11.91L471.47,11.92C474,5.36,481,0,487.1,0s9,5.36,6.51,11.92L161.8,877.75c-2.51,6.55-9.55,11.91-15.64,11.91" fill="#fff"/><path d="M462.48,73.87c-2.18,5.71-37.66,10.33-79.24,10.33s-73.51-4.62-71.32-10.33,37.66-10.32,79.24-10.32,73.51,4.62,71.32,10.32" fill="#fff"/><path d="M428.39,162.84c-2.19,5.7-37.66,10.33-79.24,10.33s-73.51-4.63-71.33-10.33,37.67-10.33,79.24-10.33,73.51,4.63,71.33,10.33" fill="#fff"/><path d="M394.76,250.58c-2.18,5.7-37.66,10.33-79.24,10.33S242,256.28,244.2,250.58s37.66-10.33,79.24-10.33,73.51,4.63,71.32,10.33" fill="#fff"/><path d="M360.54,339.89c-2.19,5.7-37.66,10.33-79.24,10.33s-73.51-4.63-71.33-10.33,37.67-10.33,79.24-10.33,73.52,4.63,71.33,10.33" fill="#fff"/><path d="M326.91,427.63c-2.18,5.7-37.66,10.33-79.24,10.33s-73.51-4.63-71.32-10.33S214,417.3,255.59,417.3s73.51,4.63,71.32,10.33" fill="#fff"/><path d="M293,516.16c-2.19,5.7-37.66,10.32-79.24,10.32s-73.51-4.62-71.33-10.32,37.67-10.33,79.24-10.33,73.52,4.62,71.33,10.33" fill="#fff"/><path d="M259.36,603.9c-2.18,5.7-37.66,10.32-79.24,10.32s-73.51-4.62-71.32-10.32,37.66-10.33,79.24-10.33,73.51,4.62,71.32,10.33" fill="#fff"/><path d="M225.14,693.2c-2.19,5.71-37.66,10.33-79.24,10.33s-73.51-4.62-71.33-10.33,37.67-10.32,79.24-10.32,73.52,4.62,71.33,10.32" fill="#fff"/><path d="M191.51,781c-2.18,5.7-37.66,10.32-79.24,10.32S38.76,786.65,41,781s37.66-10.33,79.24-10.33,73.51,4.62,71.32,10.33" fill="#fff"/><path d="M153.21,388.21h121a2.31,2.31,0,0,1,1.85.91c5.58,7.3,43.88,57.31,69.95,90.92,19.6,25.27-6.56,68.88-40.45,94C276,596,192.31,655.52,167.12,649.43c-35.34-8.55,102.8-121.57,109.27-139.55a2.32,2.32,0,0,0-1.22-2.86C254.8,495.8,132.19,442,150.92,389.8a2.45,2.45,0,0,1,2.29-1.59" fill="#333467"/><path d="M167,649.5s-13.92,8.92-13.44,21.13c.47,12,13.38,16.43,27.2,16.43s31.69-.32,31.69-.32l4.27-10.31s-1.37-6.48-9.5-10.25C198.2,662,167,649.5,167,649.5" fill="#ec6624"/><path d="M54.1,719.41a2.26,2.26,0,0,0-1.93-.83c-3.9.25-16.34,1.76-21.46,10.62-6,10.41,1.81,19.52,8.4,23.91,11.5,7.67,18.09,11.84,26.76,16.67,13.39,7.46,26.43-4.52,15.58-17.55L54.1,719.41" fill="#ec6624"/><path d="M140.69,468.11C102.74,549.43,29.32,708.27,52,717.91s118-138.31,155.59-212.75C248.21,424.74,270.94,353,248.3,343.33S176,392.52,140.69,468.11" fill="#333467"/><path d="M285.87,126c13-39.48,27.68-80.44,35.24-78.42,7.08,1.89,6.07,40.32-1.14,83.72" fill="#ec6624"/><path d="M332.78,30.89a14.27,14.27,0,1,1-20-2.55,14.28,14.28,0,0,1,20,2.55" fill="#f9c19d"/><path d="M154.83,388.21a2.31,2.31,0,0,1-2.22-3.07C162.36,357.58,236.29,154,291.87,154c56.75,0-9.54,212.22-16.05,232.63a2.26,2.26,0,0,1-2.21,1.57Z" fill="#627fa1"/><path d="M330.69,139.57a32.33,32.33,0,1,1-32.32-32.32,32.32,32.32,0,0,1,32.32,32.32" fill="#f9c19d"/><path d="M456.58,107.53c7.16,6.66-15.48,51-59.59,98.31-9.2,9.86-19.47,13.93-45.05,14.57-65.87,1.66-92.82-6.34-93.2-16.24-.4-10.75,33.54-20.33,107.57-23.14,38.91-38.38,82.38-80.82,90.27-73.5" fill="#ec6624"/><path d="M474.7,98.27a14.27,14.27,0,1,1-16.49-11.64A14.28,14.28,0,0,1,474.7,98.27" fill="#f9c19d"/><path d="M501.23,314.43c-22.38,0-19.18,105.22-20.32,182.76H582.26s-45.73-182.76-81-182.76" fill="#69604f"/><path d="M534.78,708.33c0,83-6.82,150.22-15.23,150.22s-15.23-67.25-15.23-150.22,6.82-150.22,15.23-150.22,15.23,67.26,15.23,150.22" fill="#b4bdd0"/><path d="M592.93,708.33c19.64,83,28.74,150.22,20.33,150.22s-31.15-67.25-50.79-150.22-28.74-150.22-20.33-150.22,31.15,67.26,50.79,150.22" fill="#b4bdd0"/><path d="M480.91,497.19H582.26s35.37,63.69,47.84,173.07H470.66S465,584.41,480.91,497.19" fill="#ec6624"/><path d="M519.67,858.55s-53.12,9.19-43.25,29.27c8.53,17.33,44-4.83,43.25-29.27" fill="#333467"/><path d="M613.52,858.55s-53.12,9.19-43.25,29.27c8.52,17.33,44-4.83,43.25-29.27" fill="#333467"/><path d="M521.47,330.79h-32.4s-14.06-28.28-5.9-50.54,37.43-18.58,44.24-.49-5.94,51-5.94,51" fill="#b4bdd0"/><path d="M384.38,251.28c-7.23,3.81,1.38,44.56,26.69,92.31,5.27,10,12.68,15.48,33.18,21.57,52.8,15.68,76.29,15.08,78.75,7.18,2.67-8.59-22.64-23.71-81.78-42.09-23-39.44-48.88-83.16-56.84-79" fill="#333467"/><path d="M371.77,239.86a11.93,11.93,0,1,0,15.84-5.8,11.94,11.94,0,0,0-15.84,5.8" fill="#f9c19d"/></g></g></svg>