<svg xmlns="http://www.w3.org/2000/svg" viewBox="0 0 230.88 576.95"><g id="Layer_2" data-name="Layer 2"><g id="Layer_1-2" data-name="Layer 1"><polygon points="171.18 430.09 134.97 576.95 134.97 430.09 171.18 430.09" fill="#fff"/><polygon points="128.94 430.09 92.73 576.95 92.73 430.09 128.94 430.09" fill="#fff"/><path d="M45.67,482.58h164s-20.21-374.66-82.39-374.66S45.67,482.58,45.67,482.58" fill="#69604f"/><path d="M145.17,94.32A18.27,18.27,0,1,1,126.9,76.05a18.27,18.27,0,0,1,18.27,18.27" fill="#fff"/><path d="M149.78,301.59a9.4,9.4,0,1,1-8.49-10.22,9.4,9.4,0,0,1,8.49,10.22" fill="#627fa1"/><path d="M125,295.32l30.43-1.86s8.11-164.61-20-163.44C107.9,131.17,125,295.32,125,295.32" fill="#bcb5ac"/><path d="M199.06,29.61a8.19,8.19,0,1,0,8.19,8.19,8.18,8.18,0,0,0-8.19-8.19m24,8.19a24,24,0,1,1-24-24,24,24,0,0,1,24,24" fill="#627fa1"/><rect x="217.65" y="33.7" width="13.23" height="8.19" fill="#627fa1"/><rect x="167.24" y="33.7" width="13.23" height="8.19" fill="#627fa1"/><rect x="214.27" y="21.1" width="13.23" height="8.19" transform="translate(17 113.83) rotate(-30)" fill="#627fa1"/><rect x="170.61" y="46.3" width="13.23" height="8.19" transform="translate(-1.45 95.37) rotate(-30)" fill="#627fa1"/><rect x="205.04" y="11.87" width="13.23" height="8.19" transform="matrix(0.5, -0.87, 0.87, 0.5, 92, 191.28)" fill="#627fa1"/><rect x="179.84" y="55.53" width="13.23" height="8.19" transform="matrix(0.5, -0.87, 0.87, 0.5, 41.58, 191.28)" fill="#627fa1"/><rect x="194.96" y="5.97" width="8.19" height="13.23" fill="#627fa1"/><rect x="194.96" y="56.39" width="8.19" height="13.23" fill="#627fa1"/><rect x="182.36" y="9.35" width="8.19" height="13.23" transform="translate(17 95.37) rotate(-30)" fill="#627fa1"/><rect x="207.56" y="53.01" width="8.19" height="13.23" transform="translate(-1.45 113.82) rotate(-30)" fill="#627fa1"/><rect x="173.13" y="18.58" width="8.19" height="13.23" transform="translate(66.8 166.08) rotate(-60)" fill="#627fa1"/><rect x="216.79" y="43.78" width="8.19" height="13.23" transform="translate(66.8 216.5) rotate(-60)" fill="#627fa1"/><path d="M82.42,41.21A41.21,41.21,0,1,1,41.21,0,41.21,41.21,0,0,1,82.42,41.21" fill="#fff"/><path d="M57.44,67.37c6,13.44,8.39,25.46,5.29,26.85s-10.5-8.37-16.52-21.81S37.81,47,40.91,45.56s10.5,8.37,16.53,21.81" fill="#fff"/><path d="M60.06,24.34c0,1.08-8.35,1.95-18.65,1.95s-18.66-.87-18.66-1.95,8.36-2,18.66-2,18.65.88,18.65,2" fill="#333467"/><path d="M60.06,58c0,1.08-8.35,1.95-18.65,1.95S22.75,59.1,22.75,58s8.36-2,18.66-2,18.65.88,18.65,2" fill="#333467"/><path d="M74.67,41.21c0,1.21-14.66,2.2-32.73,2.2s-32.73-1-32.73-2.2S23.86,39,41.94,39s32.73,1,32.73,2.21" fill="#333467"/></g></g></svg>