<svg xmlns="http://www.w3.org/2000/svg" viewBox="0 0 706.99 502.92"><g id="Layer_2" data-name="Layer 2"><g id="Layer_1-2" data-name="Layer 1"><path d="M133.16,0,0,157.17V502.92H283.25V157.17ZM94.79,284.06a40.63,40.63,0,1,1,40.63-40.62A40.62,40.62,0,0,1,94.79,284.06Z" fill="#b4bdd0"/><path d="M237.26,0,104.1,157.17V502.92H387.35V157.17ZM198.89,284.06a40.63,40.63,0,1,1,40.63-40.62A40.62,40.62,0,0,1,198.89,284.06Z" fill="#ec6624"/><path d="M349,0,215.82,157.17V502.92H499.07V157.17ZM310.61,284.06a40.63,40.63,0,1,1,40.63-40.62A40.62,40.62,0,0,1,310.61,284.06Z" fill="#8ea34b"/><path d="M453.08,0,319.92,157.17V502.92H603.17V157.17ZM414.71,284.06a40.63,40.63,0,1,1,40.63-40.62A40.62,40.62,0,0,1,414.71,284.06Z" fill="#085b64"/><path d="M556.9,0,423.74,157.17V502.92H707V157.17ZM518.53,284.06a40.63,40.63,0,1,1,40.63-40.62A40.62,40.62,0,0,1,518.53,284.06Z" fill="#627fa1"/></g></g></svg>