<svg xmlns="http://www.w3.org/2000/svg" viewBox="0 0 665.01 886.53"><g id="Layer_2" data-name="Layer 2"><g id="Layer_1-2" data-name="Layer 1"><path d="M125.28,206.71c0-180.13-65.64-106.23-86.86-106.23S0,152.5,0,332.63,17.2,752.8,38.42,752.8s86.86-366,86.86-546.09" fill="#ec6624"/><path d="M243.6,291.76c0-180.13-43.36-191.28-64.58-191.28s-53.74-73.91-53.74,106.23S157.8,752.8,179,752.8s64.58-280.91,64.58-461" fill="#ec6624"/><path d="M179.35,752.89s41.64,45.56,55.09,60.05c12,13-4.13,31.23-18.81,21.54-18-11.88-65.12-44.75-65.12-44.75Z" fill="#333467"/><path d="M38.48,752.75s41.64,45.56,55.1,60c12,13-4.14,31.22-18.82,21.54-18-11.88-65.12-44.75-65.12-44.75Z" fill="#333467"/><path d="M607.21,460.85c37.07,101,50,189.1,28.92,196.85S567.87,589.87,530.8,488.9s-50-189.11-28.92-196.85,68.26,67.82,105.33,168.8" fill="#627fa1"/><path d="M442.19,408.86C503.94,405.72,553.12,368.4,557,311S510.58,123.53,412.7,59.58,207.79-21.34,102.08,30.87.61,176.49,31.6,208.36c45.68,47,118.32,10.9,171.83,43.53,42,25.64,44.29,66.91,69.09,98.24s92.66,62.64,169.67,58.73" fill="#085b64"/><path d="M537,374.16a60.37,60.37,0,1,1-60.37-60.37A60.37,60.37,0,0,1,537,374.16" fill="#69604f"/><polygon points="641.87 842.16 528.32 886.53 528.32 719.48 641.87 675.1 641.87 842.16" fill="#333467"/><polygon points="414.78 842.16 528.32 886.53 528.32 719.48 414.78 675.1 414.78 842.16" fill="#fff"/><path d="M437.92,679a24.21,24.21,0,1,1-24.21-24.21A24.21,24.21,0,0,1,437.92,679" fill="#69604f"/><path d="M380.12,470c37.07,101,50,189.11,28.92,196.86S340.78,599,303.71,498s-50-189.11-28.92-196.86S343.05,369,380.12,470" fill="#627fa1"/><path d="M665,669.84a24.21,24.21,0,1,1-24.21-24.21A24.21,24.21,0,0,1,665,669.84" fill="#69604f"/></g></g></svg>