<svg xmlns="http://www.w3.org/2000/svg" viewBox="0 0 237.13 251.66"><g id="Layer_2" data-name="Layer 2"><g id="Layer_1-2" data-name="Layer 1"><path d="M150.42,188.3c0,19.64,5.65,63.36,12.63,63.36s12.59-43.72,12.59-63.36-5.65-35.58-12.59-35.58-12.63,15.94-12.63,35.58" fill="#ec6723"/><path d="M110.63,188.3c0,19.64,5.65,63.36,12.63,63.36s12.59-43.72,12.59-63.36-5.65-35.58-12.59-35.58-12.63,15.94-12.63,35.58" fill="#ec6723"/><path d="M0,91.93c0,7.68,15.43,13.95,34.46,13.95s34.43-6.27,34.43-13.95S53.49,78,34.46,78,0,84.25,0,91.93" fill="#ec6723"/><path d="M87.16,96c0,17-13,30.88-29.06,30.88S29,113.07,29,96s13-30.87,29.07-30.87S87.16,79,87.16,96" fill="#333467"/><path d="M66.54,131.87c0,24.77,38.21,44.83,85.3,44.83s85.29-20.06,85.29-44.83S199,87.05,151.84,87.05s-85.3,20.06-85.3,44.82" fill="#333467"/><path d="M121.11,40.13c-17.09,31.45-16.12,66,2.19,77.23s47-5.16,64.07-36.61,16.08-66-2.19-77.22-47,5.15-64.07,36.6" fill="#333467"/></g></g></svg>