<svg xmlns="http://www.w3.org/2000/svg" viewBox="0 0 147.67 367.67"><g id="Layer_2" data-name="Layer 2"><g id="Layer_1-2" data-name="Layer 1"><path d="M11.48,51.34a6.79,6.79,0,1,0,6.79-6.79,6.79,6.79,0,0,0-6.79,6.79" fill="#bcb5ac"/><path d="M73,65.5,37.44,88.32l-7.8-36.11-28,12.42s19.64,35.82,23.11,42.75,15.12,11.16,22,4.34c8.38-8.38,32.35-35,32.35-35" fill="#627fa1"/><polygon points="22.81 9.13 45.62 18.27 45.62 23.14 45.62 28.01 22.81 36.89 0 45.78 0 40.89 0 36 0 10.02 0 5.01 0 0 22.81 9.13" fill="#ec6624"/><path d="M87.53,38.56c31.17,0,47.88,135.06,47.88,167.13H39.65c0-40.2,19.42-167.13,47.88-167.13" fill="#333467"/><polygon points="39.65 205.69 32.42 355.33 87.53 208.4 140.38 352.17 135.41 205.69 39.65 205.69" fill="#69604f"/><path d="M140.35,351.46s-31,1.22-31,9.35,31.76,6.78,31.76,6.78Z" fill="#333467"/><path d="M34.3,351.46s-31.22,1.22-32.46,9.35,30.72,6.78,30.72,6.78Z" fill="#333467"/><path d="M96.16,42.08H79.33a69.17,69.17,0,0,1-4.62-23.87C74.71,2.5,99.92,3.29,99.92,18c0,12-3.76,24.13-3.76,24.13" fill="#bcb5ac"/><path d="M127.58,160.42a6.79,6.79,0,1,0,6.79-6.78,6.79,6.79,0,0,0-6.79,6.78" fill="#bcb5ac"/><path d="M91.28,65.27c-1.85-9,8.26-12.77,13.17-6.42,3.88,5,43.22,93.1,43.22,93.1L112.72,163.6S93.26,74.9,91.28,65.27" fill="#627fa1"/></g></g></svg>