<svg xmlns="http://www.w3.org/2000/svg" viewBox="0 0 242.44 249.33"><g id="Layer_2" data-name="Layer 2"><g id="Layer_1-2" data-name="Layer 1"><path d="M240.16,73.75a19.23,19.23,0,0,0,1-3.24,28.21,28.21,0,0,0,.55-3.05,91.56,91.56,0,0,0,.73-12.65c0-18.25-3.52-33-7.86-33-3,0-5.59,7.17-6.91,17.59a27,27,0,0,0-27.12,0c-1.32-10.4-3.9-17.56-6.9-17.56-4.34,0-7.86,14.79-7.86,33,0,3,.13,5.93.31,8.73,0,.06,0,.11,0,.16,0,.36.1.69.11,1,.23,3,.52,5.86.92,8.41-.4,0-.78-.12-1.18-.12H78.4a40.35,40.35,0,0,0-19.67,5.29c-.13-10.22-5.19-25.8-14.4-41.85C30.33,12.07,12.3-3.9,4.07.83S.5,29.17,14.5,53.59c10.31,18,22.77,31.28,31.93,35.21a40.51,40.51,0,0,0-7.35,14.57c0,.14-.09.28-.13.42-.2.76-.48,1.48-.64,2.26-3,11-4.88,26.55-4.88,43.89,0,33.17,6.86,99.39,15.33,99.39,8.29,0,15-63.49,15.31-97.27a40.4,40.4,0,0,0,12.12,2.53c.57,34.31,7.18,94.74,15.28,94.74s14.68-60.17,15.27-94.52H156.2c.6,34.35,7.2,94.52,15.27,94.52s14.69-60.27,15.28-94.6A40.24,40.24,0,0,0,200.43,152c.26,33.76,7,97.32,15.3,97.32,8.47,0,15.34-66.22,15.34-99.39,0-21.18-2.81-39.76-7-50.45a40.63,40.63,0,0,0-4.22-8.38,28,28,0,0,0,20.35-17.36" fill="#69604f"/></g></g></svg>