<svg xmlns="http://www.w3.org/2000/svg" viewBox="0 0 192.08 576.95"><g id="Layer_2" data-name="Layer 2"><g id="Layer_1-2" data-name="Layer 1"><polygon points="126.4 430.09 90.19 576.95 90.19 430.09 126.4 430.09" fill="#69604f"/><polygon points="84.16 430.09 47.95 576.95 47.95 430.09 84.16 430.09" fill="#69604f"/><path d="M113.47,308.54H47.09C15.19,370,12.6,456,12.6,456H148s-2.7-85.18-34.48-147.42" fill="#333467"/><path d="M113.47,308.54H47.09s3.45-118,31.9-118,34.48,118,34.48,118" fill="#ec6624"/><path d="M88.36,195.41H69.54s-8.17-16.07-3.43-28.72,21.75-10.56,25.7-.28-3.45,29-3.45,29" fill="#69604f"/><path d="M71.26,207.18C85.58,224.09,49.67,340.37,36.77,328,21.19,313,57.6,191,71.26,207.18" fill="#085b64"/><path d="M33.72,325.29A7.7,7.7,0,1,0,44,328.91a7.71,7.71,0,0,0-10.27-3.62" fill="#69604f"/><polygon points="33.6 142.35 79.54 160.81 124.62 142.35 79.54 124.32 33.6 142.35" fill="#333467"/><rect x="58.31" y="146.21" width="41.59" height="20.19" fill="#333467"/><path d="M82.42,41.21A41.21,41.21,0,1,1,41.21,0,41.21,41.21,0,0,1,82.42,41.21" fill="#fff"/><path d="M57.44,67.37c6,13.44,8.39,25.46,5.29,26.85s-10.5-8.37-16.52-21.81S37.81,47,40.91,45.56s10.5,8.37,16.53,21.81" fill="#fff"/><path d="M60.06,24.34c0,1.08-8.35,1.95-18.65,1.95s-18.66-.87-18.66-1.95,8.36-2,18.66-2,18.65.88,18.65,2" fill="#333467"/><path d="M60.06,58c0,1.08-8.35,1.95-18.65,1.95S22.75,59.1,22.75,58s8.36-2,18.66-2,18.65.88,18.65,2" fill="#333467"/><path d="M74.67,41.21c0,1.21-14.66,2.2-32.73,2.2s-32.73-1-32.73-2.2S23.86,39,41.94,39s32.73,1,32.73,2.21" fill="#333467"/><path d="M171.84,51.38a25.08,25.08,0,0,0,17.57-13A24.55,24.55,0,0,0,145.65,16.1c-3.53,6.93-3.28,16.07-.44,21.31a10.44,10.44,0,0,1,.77,9.11L164.66,56a10.74,10.74,0,0,1,7.18-4.64" fill="#fff"/><path d="M141.86,54.78a10.39,10.39,0,1,0,18.52,9.42l3.83-7.55c.13-.24.31-.4.45-.63L146,46.52c-.07.16-.1.35-.18.5-1.35,2.67-3.94,7.76-3.94,7.76" fill="#333467"/></g></g></svg>