<svg xmlns="http://www.w3.org/2000/svg" viewBox="0 0 238.83 564.2"><g id="Layer_2" data-name="Layer 2"><g id="Layer_1-2" data-name="Layer 1"><polygon points="153.31 434.65 120.93 353.77 103.66 353.77 86.39 353.77 54.89 434.65 23.39 515.53 40.71 515.53 58.03 515.53 150.17 515.53 167.93 515.53 185.7 515.53 153.31 434.65" fill="#ec6624"/><path d="M30.55,288.17H176s-8.4-236.42-65.75-236.42S30.55,288.17,30.55,288.17" fill="#8ea34b"/><path d="M149.3,29.64A29.64,29.64,0,1,1,119.66,0,29.64,29.64,0,0,1,149.3,29.64" fill="#bcb5ac"/><path d="M30.55,288.17H176s35.22,43.4,55,66.37c20.6,23.93-1.47,51.38-40.18,37-38.3-14.2-103.42-39.25-134-52-25.17-10.47-26.95-33.1-26.22-51.41" fill="#333467"/><path d="M162.5,426.31c0,57.5-12.22,104.11-27.3,104.11s-27.3-46.61-27.3-104.11S120.12,322.2,135.2,322.2s27.3,46.61,27.3,104.11" fill="#333467"/><polygon points="135.72 530.25 183.62 564.2 125.73 564.2 135.72 530.25" fill="#fff"/><path d="M142.8,427.42c-55.86,13.65-104,12.84-107.62-1.8S74,388,129.83,374.38s104-12.84,107.62,1.8-38.8,37.59-94.65,51.24" fill="#333467"/><polygon points="35.35 426.14 13.74 480.73 0 424.5 35.35 426.14" fill="#fff"/><path d="M124.07,192.69c0,68.16-8.74,123.42-19.52,123.42S85,260.85,85,192.69,93.78,69.28,104.55,69.28s19.52,55.25,19.52,123.41" fill="#627fa1"/><path d="M117.74,324a12.13,12.13,0,1,1-12.13-12.13A12.13,12.13,0,0,1,117.74,324" fill="#bcb5ac"/></g></g></svg>