<svg xmlns="http://www.w3.org/2000/svg" viewBox="0 0 954.69 732.8"><g id="Layer_2" data-name="Layer 2"><g id="Layer_1-2" data-name="Layer 1"><path d="M178.08,660.64c0,39.85-10.63,72.16-23.73,72.16s-23.72-32.31-23.72-72.16,10.62-72.16,23.72-72.16,23.73,32.31,23.73,72.16" fill="#333467"/><path d="M395.53,660.64c0,39.85-10.62,72.16-23.72,72.16s-23.72-32.31-23.72-72.16,10.62-72.16,23.72-72.16,23.72,32.31,23.72,72.16" fill="#333467"/><path d="M605.08,660.64c0,39.85-10.62,72.16-23.72,72.16s-23.72-32.31-23.72-72.16,10.62-72.16,23.72-72.16,23.72,32.31,23.72,72.16" fill="#333467"/><path d="M814.63,660.64c0,39.85-10.62,72.16-23.72,72.16s-23.72-32.31-23.72-72.16,10.62-72.16,23.72-72.16,23.72,32.31,23.72,72.16" fill="#333467"/><path d="M954.69,500.09a165,165,0,1,1-165-165,165,165,0,0,1,165,165" fill="#8ea34b"/><path d="M749.09,500.09a165,165,0,1,1-165-165,165,165,0,0,1,165,165" fill="#8ea34b"/><path d="M541.52,500.09a165,165,0,1,1-165-165,165,165,0,0,1,165,165" fill="#8ea34b"/><path d="M330,500.09a165,165,0,1,1-165-165,165,165,0,0,1,165,165" fill="#8ea34b"/><ellipse cx="284.56" cy="91.72" rx="89.42" ry="78.43" fill="#bcb5ac"/><ellipse cx="281.16" cy="153.7" rx="105.63" ry="78.43" fill="#bcb5ac"/><ellipse cx="714.77" cy="120.43" rx="106.47" ry="74.97" fill="#bcb5ac"/><ellipse cx="470.7" cy="114.38" rx="163.25" ry="114.38" fill="#bcb5ac"/><ellipse cx="169.29" cy="114.38" rx="56.37" ry="39.32" fill="#bcb5ac"/></g></g></svg>