<?xml version="1.0" encoding="iso-8859-1"?>
<!-- Generator: Adobe Illustrator 25.0.0, SVG Export Plug-In . SVG Version: 6.00 Build 0)  -->
<svg version="1.1" id="Layer_1" xmlns="http://www.w3.org/2000/svg" xmlns:xlink="http://www.w3.org/1999/xlink" x="0px" y="0px"
	 width="650px" height="500px" viewBox="0 0 650 500" enable-background="new 0 0 650 500" xml:space="preserve">
<path fill="#F16522" d="M319.062,291.451l-45.859-114.531H248.75h-24.453l-44.609,114.531l-44.609,114.531h24.531h24.531h130.469
	h25.156h25.156L319.062,291.451z M209.792,251.813l4.841-0.175l0.305,8.471l23.774-0.857l0.208,5.778l-23.774,0.857l0.306,8.491
	l-4.841,0.174L209.792,251.813z M211.139,289.191c-0.11-3.058,0.067-5.289,0.531-6.693c0.464-1.404,1.338-2.547,2.622-3.427
	c1.285-0.88,2.772-1.351,4.464-1.412c2.147-0.077,3.943,0.49,5.387,1.702c1.444,1.211,2.394,3.067,2.849,5.565
	c0.684-1.276,1.447-2.336,2.289-3.18c0.843-0.844,2.351-1.997,4.527-3.456l5.456-3.695l0.249,6.91l-6.076,4.401
	c-2.172,1.564-3.537,2.629-4.096,3.197c-0.559,0.567-0.935,1.161-1.128,1.78s-0.265,1.593-0.217,2.92l0.042,1.171l11.945-0.431
	l0.208,5.778l-28.614,1.031L211.139,289.191z M212.412,324.5l15.498-0.559c2.459-0.089,4.051-0.217,4.774-0.387
	c1.162-0.289,2.081-0.912,2.757-1.868c0.676-0.956,0.984-2.241,0.926-3.854c-0.059-1.64-0.438-2.864-1.139-3.672
	c-0.7-0.808-1.541-1.28-2.523-1.414c-0.982-0.134-2.605-0.16-4.869-0.079l-15.83,0.571l-0.208-5.778l15.029-0.542
	c3.435-0.124,5.868-0.055,7.297,0.206c1.43,0.261,2.647,0.794,3.654,1.598c1.006,0.804,1.824,1.898,2.454,3.283
	s0.985,3.209,1.067,5.473c0.099,2.733-0.143,4.816-0.723,6.251c-0.58,1.435-1.36,2.58-2.339,3.436
	c-0.979,0.856-2.017,1.434-3.113,1.734c-1.626,0.437-4.039,0.712-7.241,0.828l-15.263,0.55L212.412,324.5z M213.453,353.368
	l15.498-0.559c2.459-0.089,4.051-0.217,4.774-0.387c1.162-0.289,2.081-0.913,2.757-1.868c0.676-0.956,0.984-2.241,0.926-3.854
	c-0.059-1.64-0.438-2.864-1.139-3.672c-0.7-0.808-1.541-1.28-2.523-1.414s-2.605-0.16-4.869-0.079l-15.83,0.571l-0.208-5.778
	l15.029-0.542c3.435-0.124,5.868-0.055,7.297,0.206c1.43,0.261,2.648,0.794,3.654,1.598c1.006,0.804,1.824,1.898,2.454,3.283
	c0.629,1.385,0.985,3.209,1.067,5.473c0.099,2.733-0.143,4.816-0.723,6.251s-1.36,2.58-2.339,3.436
	c-0.979,0.856-2.017,1.434-3.113,1.734c-1.626,0.437-4.039,0.712-7.24,0.828l-15.264,0.55L213.453,353.368z M214.7,387.954
	l-0.412-11.438c-0.082-2.264-0.048-3.955,0.1-5.075c0.149-1.119,0.507-2.129,1.073-3.029c0.567-0.9,1.338-1.661,2.312-2.282
	c0.974-0.621,2.08-0.954,3.316-0.999c1.34-0.048,2.583,0.269,3.728,0.95c1.145,0.682,2.02,1.63,2.624,2.847
	c0.445-1.762,1.262-3.133,2.451-4.114c1.19-0.981,2.611-1.501,4.263-1.561c1.301-0.047,2.578,0.21,3.829,0.771
	c1.251,0.561,2.264,1.352,3.037,2.373c0.773,1.021,1.272,2.297,1.496,3.826c0.139,0.959,0.288,3.28,0.446,6.961l0.351,9.74
	L214.7,387.954z M247.613,221.886c1.509-1.872,3.577-2.901,6.201-3.087l0.462,5.768c-1.461,0.3-2.5,0.869-3.114,1.705
	s-0.893,2.068-0.834,3.695c0.06,1.679,0.453,2.981,1.177,3.906c0.465,0.596,1.068,0.88,1.809,0.853
	c0.677-0.024,1.246-0.331,1.706-0.921c0.586-0.751,1.159-2.543,1.721-5.378c0.562-2.835,1.174-4.938,1.834-6.31
	c0.661-1.372,1.592-2.461,2.794-3.267c1.202-0.806,2.708-1.241,4.516-1.306c1.64-0.059,3.192,0.341,4.656,1.2
	c1.465,0.859,2.575,2.109,3.331,3.75c0.756,1.641,1.179,3.703,1.269,6.189c0.13,3.618-0.605,6.425-2.208,8.425
	c-1.602,2-3.997,3.245-7.184,3.738L265,235.243c1.875-0.407,3.236-1.143,4.083-2.209c0.848-1.066,1.24-2.478,1.176-4.234
	c-0.067-1.861-0.511-3.248-1.333-4.164c-0.821-0.915-1.759-1.354-2.813-1.315c-0.676,0.024-1.245,0.243-1.706,0.657
	c-0.461,0.414-0.849,1.122-1.164,2.124c-0.21,0.685-0.57,2.242-1.082,4.671c-0.656,3.124-1.521,5.332-2.595,6.621
	c-1.511,1.813-3.399,2.761-5.663,2.843c-1.457,0.052-2.835-0.311-4.134-1.092c-1.298-0.781-2.308-1.937-3.027-3.467
	c-0.72-1.531-1.119-3.396-1.198-5.595C245.414,226.49,246.104,223.758,247.613,221.886z M247.227,263.206l15.498-0.559
	c2.459-0.089,4.051-0.218,4.774-0.387c1.162-0.289,2.081-0.912,2.757-1.868c0.676-0.956,0.984-2.241,0.926-3.854
	c-0.059-1.639-0.438-2.864-1.139-3.672c-0.7-0.808-1.541-1.28-2.523-1.414c-0.982-0.134-2.605-0.16-4.869-0.078l-15.83,0.571
	l-0.208-5.777l15.029-0.542c3.435-0.124,5.868-0.055,7.297,0.206c1.43,0.261,2.648,0.794,3.654,1.598
	c1.006,0.804,1.824,1.898,2.454,3.283s0.985,3.209,1.067,5.473c0.099,2.732-0.143,4.816-0.723,6.251
	c-0.58,1.435-1.36,2.58-2.339,3.436c-0.979,0.856-2.017,1.434-3.113,1.734c-1.626,0.437-4.039,0.712-7.24,0.828l-15.264,0.55
	L247.227,263.206z M248.061,286.335c-0.127-3.513-0.066-5.809,0.182-6.886c0.37-1.655,1.255-3.062,2.652-4.219
	c1.398-1.158,3.236-1.778,5.513-1.86c1.757-0.063,3.245,0.203,4.465,0.797c1.22,0.594,2.189,1.37,2.908,2.328
	s1.207,1.94,1.465,2.947c0.323,1.369,0.532,3.362,0.626,5.978l0.136,3.767l10.794-0.389l0.208,5.777l-28.614,1.032L248.061,286.335z
	 M249.331,320.446l19.285-6.045l-19.737-4.277l-0.38-8.664l28.605-1.253l0.235,5.366l-22.517,0.986l22.766,4.692l0.244,5.561
	l-22.27,6.645l22.517-0.986l0.235,5.366l-28.605,1.253L249.331,320.446z M250.119,343.427l28.201-12.489l0.227,6.285l0.588,16.298
	l0.221,6.129l-29.016-10.114L250.119,343.427z M276.789,383.077c-2.508,2.54-6.013,3.891-10.515,4.053
	c-4.763,0.172-8.506-0.925-11.229-3.289c-2.724-2.364-4.158-5.55-4.302-9.558c-0.126-3.501,0.806-6.381,2.796-8.642
	c1.176-1.345,2.898-2.384,5.164-3.118l1.572,5.67c-1.471,0.392-2.617,1.14-3.437,2.244c-0.82,1.104-1.203,2.425-1.147,3.959
	c0.076,2.121,0.9,3.815,2.47,5.08c1.57,1.266,4.06,1.837,7.469,1.714c3.618-0.13,6.171-0.874,7.659-2.23
	c1.489-1.356,2.195-3.076,2.12-5.158c-0.055-1.535-0.591-2.838-1.607-3.909c-1.016-1.071-2.58-1.81-4.692-2.215l1.574-5.666
	c3.154,0.746,5.525,2.09,7.113,4.033c1.588,1.943,2.437,4.449,2.548,7.52C280.482,377.368,279.297,380.538,276.789,383.077z"/>
<path fill="#005A63" d="M485.35,94.018h-9.272h-9.272H356.622H246.438v18.544v18.544v11.453v11.453v11.453v11.453h2.312h2.312
	v-11.453v-11.453V142.56v-11.453h107.872h107.872h9.272h9.272l-9.272-9.272l-9.272-9.272l9.272-9.272L485.35,94.018z
	 M271.867,124.02h-2.32h-2.32l-4.617-7.469l-4.617-7.469v7.469v7.469h-2.148h-2.148v-11.453v-11.453h2.25h2.25l4.688,7.648
	l4.688,7.648v-7.648v-7.648h2.148h2.148v11.453V124.02z M281.242,124.02h-2.312h-2.312v-11.453v-11.453h2.312h2.312v11.453V124.02z
	 M303.07,124.02h-8.711h-8.711v-11.453v-11.453h8.492h8.492v1.938v1.938h-6.18h-6.18v2.539v2.539h5.75h5.75v1.93v1.93h-5.75h-5.75
	v3.117v3.117h6.398h6.398v1.93V124.02z M325.227,113.145c0,1.375-0.031,2.548-0.094,3.52s-0.156,1.741-0.281,2.308
	c-0.125,0.568-0.303,1.091-0.533,1.57s-0.514,0.914-0.85,1.305s-0.729,0.742-1.178,1.053s-0.955,0.583-1.518,0.814
	s-1.211,0.405-1.945,0.521s-1.555,0.174-2.461,0.174c-1.094,0-2.055-0.063-2.885-0.19s-1.527-0.316-2.092-0.568
	c-0.565-0.252-1.071-0.543-1.518-0.871s-0.834-0.694-1.162-1.098c-0.328-0.403-0.6-0.817-0.817-1.24s-0.376-0.856-0.48-1.299
	c-0.151-0.656-0.265-1.469-0.34-2.438s-0.113-2.094-0.113-3.375v-6.109v-6.109h2.312h2.312v6.203v6.203
	c0,0.984,0.014,1.796,0.043,2.434s0.072,1.103,0.129,1.394c0.099,0.469,0.266,0.891,0.502,1.268s0.54,0.706,0.912,0.99
	c0.372,0.284,0.813,0.497,1.322,0.639s1.087,0.213,1.733,0.213c0.656,0,1.232-0.067,1.726-0.201s0.909-0.335,1.242-0.604
	c0.333-0.268,0.6-0.567,0.8-0.896s0.335-0.69,0.403-1.08c0.067-0.391,0.118-0.91,0.152-1.559s0.051-1.426,0.051-2.332v-6.336v-6.336
	h2.312h2.312v6.016V113.145z M352.383,124.02h-2.453h-2.453l-2.281-8.562l-2.281-8.562l-2.273,8.562l-2.273,8.562h-2.508h-2.508
	l-2.734-11.453l-2.734-11.453h2.367h2.367l1.727,7.867l1.727,7.867l2.094-7.867l2.094-7.867h2.75h2.75l2.008,8l2.008,8l1.758-8
	l1.758-8h2.328h2.328l-2.781,11.453L352.383,124.02z M367.758,117.911h-4.312h-4.312v-2.195v-2.195h4.312h4.312v2.195V117.911z
	 M392.602,124.02h-2.453h-2.453l-2.281-8.562l-2.281-8.562l-2.273,8.562l-2.273,8.562h-2.508h-2.508l-2.734-11.453l-2.734-11.453
	h2.367h2.367l1.727,7.867l1.727,7.867l2.094-7.867l2.094-7.867h2.75h2.75l2.008,8l2.008,8l1.758-8l1.758-8h2.328h2.328
	l-2.781,11.453L392.602,124.02z M417.945,124.02h-8.711h-8.711v-11.453v-11.453h8.492h8.492v1.938v1.938h-6.18h-6.18v2.539v2.539
	h5.75h5.75v1.93v1.93h-5.75h-5.75v3.117v3.117h6.398h6.398v1.93V124.02z M438.227,121.036c-0.365,0.573-0.805,1.073-1.321,1.499
	s-1.107,0.778-1.773,1.056c-0.667,0.278-1.416,0.487-2.246,0.627s-1.743,0.209-2.738,0.209c-1.448,0-2.728-0.167-3.84-0.502
	s-2.056-0.837-2.832-1.506c-0.776-0.669-1.396-1.491-1.86-2.467s-0.771-2.104-0.922-3.385l2.25-0.219l2.25-0.219
	c0.135,0.755,0.34,1.41,0.615,1.965s0.619,1.009,1.033,1.363c0.414,0.354,0.9,0.62,1.459,0.797s1.189,0.265,1.893,0.265
	c0.745,0,1.397-0.079,1.959-0.236s1.031-0.394,1.409-0.709c0.377-0.315,0.661-0.657,0.849-1.025s0.283-0.764,0.283-1.186
	c0-0.271-0.04-0.521-0.119-0.751s-0.199-0.441-0.357-0.631c-0.159-0.19-0.377-0.368-0.655-0.533s-0.614-0.318-1.009-0.459
	c-0.271-0.094-0.715-0.224-1.332-0.391s-1.407-0.37-2.371-0.609c-1.24-0.307-2.294-0.649-3.164-1.027s-1.555-0.79-2.055-1.239
	c-0.703-0.63-1.23-1.329-1.582-2.097s-0.527-1.606-0.527-2.512c0-0.583,0.083-1.147,0.248-1.693s0.413-1.073,0.744-1.58
	c0.331-0.508,0.734-0.955,1.211-1.342s1.026-0.713,1.649-0.979c0.622-0.266,1.309-0.465,2.06-0.598s1.567-0.199,2.448-0.199
	c1.438,0,2.697,0.158,3.779,0.473s1.986,0.788,2.713,1.418c0.727,0.63,1.281,1.366,1.662,2.207s0.59,1.788,0.627,2.839l-2.312,0.102
	l-2.312,0.102c-0.099-0.588-0.255-1.094-0.467-1.517s-0.481-0.764-0.806-1.022c-0.326-0.258-0.733-0.451-1.221-0.58
	s-1.058-0.193-1.709-0.193c-0.672,0-1.271,0.069-1.797,0.207s-0.979,0.345-1.359,0.621c-0.245,0.177-0.429,0.384-0.551,0.621
	s-0.183,0.504-0.183,0.801c0,0.271,0.057,0.522,0.172,0.754s0.286,0.444,0.516,0.636c0.292,0.245,0.792,0.495,1.5,0.75
	s1.625,0.515,2.75,0.781s2.104,0.536,2.936,0.811s1.518,0.554,2.057,0.838c0.539,0.284,1.02,0.62,1.441,1.008s0.785,0.828,1.09,1.32
	s0.533,1.042,0.686,1.651s0.229,1.274,0.229,1.998c0,0.656-0.091,1.292-0.274,1.906S438.591,120.463,438.227,121.036z
	 M459.773,104.989h-3.391h-3.391v9.516v9.516h-2.312h-2.312v-9.516v-9.516h-3.398h-3.398v-1.938v-1.938h9.102h9.102v1.938V104.989z"
	/>
<g>
</g>
<g>
</g>
<g>
</g>
<g>
</g>
<g>
</g>
<g>
</g>
<g>
</g>
<g>
</g>
<g>
</g>
<g>
</g>
<g>
</g>
<g>
</g>
<g>
</g>
<g>
</g>
<g>
</g>
</svg>
