<?xml version="1.0" encoding="iso-8859-1"?>
<!-- Generator: Adobe Illustrator 25.0.0, SVG Export Plug-In . SVG Version: 6.00 Build 0)  -->
<svg version="1.1" id="Layer_1" xmlns="http://www.w3.org/2000/svg" xmlns:xlink="http://www.w3.org/1999/xlink" x="0px" y="0px"
	 width="650px" height="500px" viewBox="0 0 650 500" enable-background="new 0 0 650 500" xml:space="preserve">
<path fill="#FFFFFF" d="M485.35,94.018h-9.272h-9.272H356.622H246.438v18.544v18.544v11.453v11.453v11.453v11.453h2.312h2.312
	v-11.453v-11.453V142.56v-11.453h107.872h107.872h9.272h9.272l-9.272-9.272l-9.272-9.272l9.272-9.272L485.35,94.018z
	 M271.867,124.02h-2.32h-2.32l-4.617-7.469l-4.617-7.469v7.469v7.469h-2.148h-2.148v-11.453v-11.453h2.25h2.25l4.688,7.648
	l4.688,7.648v-7.648v-7.648h2.148h2.148v11.453v11.453H271.867z M281.242,124.02h-2.312h-2.312v-11.453v-11.453h2.312h2.312v11.453
	V124.02z M303.07,124.02h-8.711h-8.711v-11.453v-11.453h8.492h8.492v1.938v1.938h-6.18h-6.18v2.539v2.539h5.75h5.75v1.93v1.93h-5.75
	h-5.75v3.117v3.117h6.398h6.398v1.93v1.928H303.07z M325.227,113.145c0,1.375-0.031,2.548-0.094,3.52s-0.156,1.741-0.281,2.308
	c-0.125,0.568-0.303,1.091-0.533,1.57s-0.514,0.914-0.85,1.305s-0.729,0.742-1.178,1.053s-0.955,0.583-1.518,0.814
	s-1.211,0.405-1.945,0.521s-1.555,0.174-2.461,0.174c-1.094,0-2.055-0.063-2.885-0.19s-1.527-0.316-2.092-0.568
	s-1.071-0.543-1.518-0.871s-0.834-0.694-1.162-1.098c-0.328-0.403-0.6-0.817-0.817-1.24s-0.376-0.856-0.48-1.299
	c-0.151-0.656-0.265-1.469-0.34-2.438s-0.113-2.094-0.113-3.375v-6.109v-6.109h2.312h2.312v6.203v6.203
	c0,0.984,0.014,1.796,0.043,2.434s0.072,1.103,0.129,1.394c0.099,0.469,0.266,0.891,0.502,1.268s0.54,0.706,0.912,0.99
	c0.372,0.284,0.813,0.497,1.322,0.639s1.087,0.213,1.733,0.213c0.656,0,1.232-0.067,1.726-0.201s0.909-0.335,1.242-0.604
	c0.333-0.268,0.6-0.567,0.8-0.896s0.335-0.69,0.403-1.08c0.067-0.391,0.118-0.91,0.152-1.559s0.051-1.426,0.051-2.332v-6.336v-6.336
	h2.312h2.312v6.016v6.016C325.223,113.145,325.227,113.145,325.227,113.145z M352.383,124.02h-2.453h-2.453l-2.281-8.562
	l-2.281-8.562l-2.273,8.562l-2.273,8.562h-2.508h-2.508l-2.734-11.453l-2.734-11.453h2.367h2.367l1.727,7.867l1.727,7.867
	l2.094-7.867l2.094-7.867h2.75h2.75l2.008,8l2.008,8l1.758-8l1.758-8h2.328h2.328l-2.781,11.453L352.383,124.02z M367.758,117.911
	h-4.312h-4.312v-2.195v-2.195h4.312h4.312v2.195V117.911z M392.602,124.02h-2.453h-2.453l-2.281-8.562l-2.281-8.562l-2.273,8.562
	l-2.273,8.562h-2.508h-2.508l-2.734-11.453l-2.734-11.453h2.367h2.367l1.727,7.867l1.727,7.867l2.094-7.867l2.094-7.867h2.75h2.75
	l2.008,8l2.008,8l1.758-8l1.758-8h2.328h2.328l-2.781,11.453L392.602,124.02z M417.945,124.02h-8.711h-8.711v-11.453v-11.453h8.492
	h8.492v1.938v1.938h-6.18h-6.18v2.539v2.539h5.75h5.75v1.93v1.93h-5.75h-5.75v3.117v3.117h6.398h6.398v1.93v1.928H417.945z
	 M438.227,121.036c-0.365,0.573-0.805,1.073-1.321,1.499s-1.107,0.778-1.773,1.056c-0.667,0.278-1.416,0.487-2.246,0.627
	s-1.743,0.209-2.738,0.209c-1.448,0-2.728-0.167-3.84-0.502s-2.056-0.837-2.832-1.506s-1.396-1.491-1.86-2.467
	s-0.771-2.104-0.922-3.385l2.25-0.219l2.25-0.219c0.135,0.755,0.34,1.41,0.615,1.965s0.619,1.009,1.033,1.363s0.9,0.62,1.459,0.797
	s1.189,0.265,1.893,0.265c0.745,0,1.397-0.079,1.959-0.236s1.031-0.394,1.409-0.709c0.377-0.315,0.661-0.657,0.849-1.025
	s0.283-0.764,0.283-1.186c0-0.271-0.04-0.521-0.119-0.751s-0.199-0.441-0.357-0.631c-0.159-0.19-0.377-0.368-0.655-0.533
	s-0.614-0.318-1.009-0.459c-0.271-0.094-0.715-0.224-1.332-0.391s-1.407-0.37-2.371-0.609c-1.24-0.307-2.294-0.649-3.164-1.027
	s-1.555-0.79-2.055-1.239c-0.703-0.63-1.23-1.329-1.582-2.097s-0.527-1.606-0.527-2.512c0-0.583,0.083-1.147,0.248-1.693
	s0.413-1.073,0.744-1.58c0.331-0.508,0.734-0.955,1.211-1.342s1.026-0.713,1.649-0.979c0.622-0.266,1.309-0.465,2.06-0.598
	s1.567-0.199,2.448-0.199c1.438,0,2.697,0.158,3.779,0.473s1.986,0.788,2.713,1.418c0.727,0.63,1.281,1.366,1.662,2.207
	s0.59,1.788,0.627,2.839l-2.312,0.102l-2.312,0.102c-0.099-0.588-0.255-1.094-0.467-1.517s-0.481-0.764-0.806-1.022
	c-0.326-0.258-0.733-0.451-1.221-0.58s-1.058-0.193-1.709-0.193c-0.672,0-1.271,0.069-1.797,0.207s-0.979,0.345-1.359,0.621
	c-0.245,0.177-0.429,0.384-0.551,0.621s-0.183,0.504-0.183,0.801c0,0.271,0.057,0.522,0.172,0.754s0.286,0.444,0.516,0.636
	c0.292,0.245,0.792,0.495,1.5,0.75s1.625,0.515,2.75,0.781s2.104,0.536,2.936,0.811s1.518,0.554,2.057,0.838s1.02,0.62,1.441,1.008
	s0.785,0.828,1.09,1.32s0.533,1.042,0.686,1.651s0.229,1.274,0.229,1.998c0,0.656-0.091,1.292-0.274,1.906
	S438.591,120.463,438.227,121.036z M459.773,104.989h-3.391h-3.391v9.516v9.516h-2.312h-2.312v-9.516v-9.516h-3.398h-3.398v-1.938
	v-1.938h9.102h9.102v1.938v1.938H459.773z"/>
<polygon fill="#F16522" points="319.062,291.451 273.203,176.919 248.75,176.919 224.297,176.919 179.688,291.451 135.078,405.982 
	159.609,405.982 184.141,405.982 314.609,405.982 339.766,405.982 364.922,405.982 "/>
<path fill="#FFFFFF" d="M213.211,232.561c0.425-3.779,2.065-6.739,4.92-8.881c2.855-2.143,6.521-2.962,10.998-2.458
	c4.736,0.533,8.276,2.169,10.621,4.909c2.345,2.74,3.294,6.103,2.845,10.088c-0.392,3.481-1.738,6.192-4.04,8.135
	c-1.362,1.157-3.218,1.931-5.568,2.322l-0.719-5.84c1.513-0.171,2.756-0.741,3.73-1.713s1.547-2.221,1.719-3.747
	c0.237-2.109-0.327-3.906-1.693-5.389c-1.366-1.484-3.745-2.416-7.134-2.797c-3.597-0.405-6.232-0.046-7.904,1.076
	c-1.672,1.122-2.625,2.718-2.858,4.789c-0.172,1.526,0.166,2.895,1.013,4.103c0.847,1.209,2.284,2.17,4.314,2.883l-2.393,5.372
	c-3.009-1.203-5.156-2.883-6.44-5.039C213.338,238.218,212.868,235.614,213.211,232.561z"/>
<polygon fill="#FFFFFF" points="209.63,268.773 211.453,252.567 212.138,246.473 239.345,260.756 238.662,266.831 208.927,275.023 
	"/>
<path fill="#FFFFFF" d="M226.467,379.612c-0.402,3.571-1.487,6.171-3.256,7.8s-3.965,2.342-6.589,2.138l0.394-5.773
	c1.49-0.081,2.6-0.491,3.332-1.227c0.731-0.736,1.188-1.913,1.37-3.531c0.188-1.669-0.008-3.015-0.588-4.036
	c-0.372-0.658-0.926-1.028-1.664-1.111c-0.673-0.076-1.281,0.144-1.823,0.66c-0.69,0.656-1.522,2.345-2.496,5.065
	c-0.974,2.721-1.889,4.711-2.745,5.971c-0.856,1.26-1.938,2.199-3.246,2.819c-1.308,0.619-2.861,0.828-4.66,0.626
	c-1.63-0.183-3.106-0.808-4.428-1.874c-1.322-1.066-2.235-2.466-2.741-4.2s-0.62-3.836-0.342-6.308
	c0.405-3.597,1.547-6.266,3.426-8.007s4.432-2.62,7.657-2.637l-0.085,5.651c-1.914,0.126-3.369,0.653-4.364,1.583
	c-0.996,0.93-1.592,2.268-1.788,4.015c-0.208,1.851,0.026,3.288,0.704,4.315c0.677,1.026,1.54,1.598,2.588,1.716
	c0.672,0.076,1.267-0.057,1.784-0.399c0.517-0.342,1.005-0.985,1.465-1.928c0.309-0.646,0.895-2.133,1.76-4.46
	c1.11-2.993,2.291-5.049,3.543-6.166c1.762-1.571,3.769-2.229,6.02-1.976c1.449,0.163,2.758,0.726,3.928,1.69
	s1.997,2.256,2.483,3.876S226.713,377.425,226.467,379.612z"/>
<path fill="#FFFFFF" d="M229.689,346.601l-15.411-1.733c-2.445-0.275-4.039-0.383-4.779-0.321c-1.192,0.115-2.193,0.596-3.002,1.441
	c-0.81,0.845-1.304,2.071-1.485,3.675c-0.183,1.63,0.011,2.897,0.585,3.8c0.573,0.903,1.336,1.494,2.287,1.771
	c0.952,0.277,2.553,0.543,4.804,0.796l15.741,1.77l-0.646,5.745l-14.945-1.681c-3.416-0.384-5.812-0.811-7.187-1.28
	c-1.376-0.469-2.501-1.176-3.378-2.119c-0.877-0.944-1.524-2.147-1.943-3.609c-0.418-1.462-0.501-3.319-0.248-5.57
	c0.306-2.717,0.851-4.742,1.637-6.076c0.785-1.334,1.725-2.351,2.82-3.053c1.094-0.702,2.206-1.121,3.335-1.256
	c1.673-0.192,4.1-0.109,7.283,0.249l15.178,1.707L229.689,346.601z"/>
<path fill="#FFFFFF" d="M232.276,323.601c-0.393,3.494-0.792,5.755-1.195,6.784c-0.61,1.582-1.693,2.843-3.246,3.782
	c-1.554,0.939-3.463,1.281-5.727,1.026c-1.747-0.197-3.18-0.679-4.299-1.447s-1.963-1.678-2.533-2.732s-0.908-2.097-1.014-3.131
	c-0.117-1.402-0.03-3.404,0.263-6.004l0.421-3.746l-10.733-1.207l0.646-5.745l28.453,3.2L232.276,323.601z"/>
<polygon fill="#FFFFFF" points="236.051,289.677 216.085,292.811 234.976,299.953 234.073,308.577 205.596,305.597 206.155,300.255 
	228.572,302.601 206.746,294.603 207.326,289.067 230.332,285.779 207.915,283.433 208.474,278.091 236.952,281.071 "/>
<polygon fill="#FFFFFF" points="265.034,363.391 260.22,362.85 261.168,354.426 237.528,351.767 238.174,346.022 261.814,348.681 
	262.764,340.239 267.577,340.78 "/>
<path fill="#FFFFFF" d="M269.214,326.223c-0.342,3.041-0.846,5.221-1.512,6.542c-0.666,1.321-1.699,2.322-3.099,3.002
	c-1.4,0.681-2.941,0.927-4.623,0.738c-2.135-0.24-3.828-1.066-5.077-2.478c-1.25-1.411-1.916-3.387-1.997-5.924
	c-0.865,1.161-1.776,2.097-2.733,2.808c-0.958,0.711-2.62,1.628-4.987,2.751l-5.942,2.85l0.773-6.871l6.659-3.457
	c2.379-1.226,3.886-2.079,4.523-2.557c0.637-0.479,1.096-1.01,1.378-1.594s0.497-1.536,0.646-2.856l0.131-1.165l-11.878-1.336
	l0.646-5.745l28.453,3.2L269.214,326.223z"/>
<path fill="#FFFFFF" d="M273.164,291.113l-15.411-1.733c-2.446-0.275-4.039-0.382-4.779-0.321c-1.192,0.115-2.193,0.595-3.002,1.441
	c-0.81,0.845-1.304,2.071-1.485,3.675c-0.183,1.63,0.011,2.897,0.585,3.8c0.573,0.903,1.336,1.494,2.287,1.771
	s2.553,0.543,4.804,0.796l15.741,1.771l-0.646,5.745l-14.945-1.681c-3.416-0.384-5.812-0.811-7.187-1.28
	c-1.376-0.469-2.501-1.176-3.378-2.119s-1.524-2.147-1.943-3.609c-0.418-1.462-0.501-3.319-0.248-5.571
	c0.306-2.717,0.851-4.742,1.637-6.076c0.785-1.334,1.725-2.351,2.82-3.054c1.094-0.702,2.206-1.121,3.335-1.256
	c1.673-0.192,4.1-0.109,7.283,0.249l15.178,1.707L273.164,291.113z"/>
<path fill="#FFFFFF" d="M276.392,262.407l-15.411-1.733c-2.445-0.275-4.039-0.383-4.779-0.321c-1.192,0.115-2.193,0.596-3.002,1.441
	c-0.81,0.845-1.304,2.071-1.485,3.675c-0.183,1.63,0.011,2.897,0.585,3.8c0.573,0.903,1.336,1.494,2.287,1.771
	c0.952,0.277,2.553,0.543,4.804,0.796l15.741,1.77l-0.646,5.745l-14.945-1.681c-3.416-0.384-5.812-0.811-7.187-1.28
	c-1.376-0.469-2.501-1.176-3.378-2.119c-0.877-0.944-1.524-2.147-1.943-3.609s-0.501-3.319-0.248-5.57
	c0.306-2.717,0.851-4.742,1.637-6.076c0.785-1.334,1.725-2.351,2.82-3.053c1.094-0.702,2.206-1.121,3.335-1.256
	c1.673-0.192,4.1-0.109,7.283,0.249l15.178,1.707L276.392,262.407z"/>
<path fill="#FFFFFF" d="M278.982,239.388c-0.253,2.251-0.536,3.919-0.848,5.004c-0.312,1.085-0.815,2.031-1.508,2.838
	c-0.694,0.806-1.568,1.445-2.623,1.916s-2.198,0.637-3.427,0.499c-1.333-0.15-2.515-0.646-3.547-1.49
	c-1.032-0.843-1.757-1.911-2.175-3.203c-0.7,1.677-1.71,2.913-3.031,3.708s-2.804,1.1-4.447,0.915
	c-1.294-0.146-2.518-0.588-3.674-1.327s-2.04-1.671-2.654-2.795c-0.614-1.124-0.919-2.459-0.916-4.004
	c0.004-0.969,0.199-3.286,0.585-6.95l1.089-9.685l28.453,3.2L278.982,239.388z"/>
</svg>
