<?xml version="1.0" encoding="iso-8859-1"?>
<!-- Generator: Adobe Illustrator 25.0.0, SVG Export Plug-In . SVG Version: 6.00 Build 0)  -->
<svg version="1.1" id="Layer_1" xmlns="http://www.w3.org/2000/svg" xmlns:xlink="http://www.w3.org/1999/xlink" x="0px" y="0px"
	 width="650px" height="500px" viewBox="0 0 650 500" enable-background="new 0 0 650 500" xml:space="preserve">
<path fill="#6FBD44" d="M485.35,94.018h-9.272h-9.272H356.622H246.438v18.544v18.544v11.453v11.453v11.453v11.453h2.312h2.312
	v-11.453v-11.453V142.56v-11.453h107.872h107.872h9.272h9.272l-9.272-9.272l-9.272-9.272l9.272-9.272L485.35,94.018z
	 M271.867,124.02h-2.32h-2.32l-4.617-7.469l-4.617-7.469v7.469v7.469h-2.148h-2.148v-11.453v-11.453h2.25h2.25l4.688,7.648
	l4.688,7.648v-7.648v-7.648h2.148h2.148v11.453V124.02z M281.242,124.02h-2.312h-2.312v-11.453v-11.453h2.312h2.312v11.453V124.02z
	 M303.07,124.02h-8.711h-8.711v-11.453v-11.453h8.492h8.492v1.938v1.938h-6.18h-6.18v2.539v2.539h5.75h5.75v1.93v1.93h-5.75h-5.75
	v3.117v3.117h6.398h6.398v1.93V124.02z M325.227,113.145c0,1.375-0.031,2.548-0.094,3.52s-0.156,1.741-0.281,2.308
	c-0.125,0.568-0.303,1.091-0.533,1.57s-0.514,0.914-0.85,1.305s-0.729,0.742-1.178,1.053s-0.955,0.583-1.518,0.814
	s-1.211,0.405-1.945,0.521s-1.555,0.174-2.461,0.174c-1.094,0-2.055-0.063-2.885-0.19s-1.527-0.316-2.092-0.568
	c-0.565-0.252-1.071-0.543-1.518-0.871s-0.834-0.694-1.162-1.098c-0.328-0.403-0.6-0.817-0.817-1.24s-0.376-0.856-0.48-1.299
	c-0.151-0.656-0.265-1.469-0.34-2.438s-0.113-2.094-0.113-3.375v-6.109v-6.109h2.312h2.312v6.203v6.203
	c0,0.984,0.014,1.796,0.043,2.434s0.072,1.103,0.129,1.394c0.099,0.469,0.266,0.891,0.502,1.268s0.54,0.706,0.912,0.99
	c0.372,0.284,0.813,0.497,1.322,0.639s1.087,0.213,1.733,0.213c0.656,0,1.232-0.067,1.726-0.201s0.909-0.335,1.242-0.604
	c0.333-0.268,0.6-0.567,0.8-0.896s0.335-0.69,0.403-1.08c0.067-0.391,0.118-0.91,0.152-1.559s0.051-1.426,0.051-2.332v-6.336v-6.336
	h2.312h2.312v6.016V113.145z M352.383,124.02h-2.453h-2.453l-2.281-8.562l-2.281-8.562l-2.273,8.562l-2.273,8.562h-2.508h-2.508
	l-2.734-11.453l-2.734-11.453h2.367h2.367l1.727,7.867l1.727,7.867l2.094-7.867l2.094-7.867h2.75h2.75l2.008,8l2.008,8l1.758-8
	l1.758-8h2.328h2.328l-2.781,11.453L352.383,124.02z M367.758,117.911h-4.312h-4.312v-2.195v-2.195h4.312h4.312v2.195V117.911z
	 M392.602,124.02h-2.453h-2.453l-2.281-8.562l-2.281-8.562l-2.273,8.562l-2.273,8.562h-2.508h-2.508l-2.734-11.453l-2.734-11.453
	h2.367h2.367l1.727,7.867l1.727,7.867l2.094-7.867l2.094-7.867h2.75h2.75l2.008,8l2.008,8l1.758-8l1.758-8h2.328h2.328
	l-2.781,11.453L392.602,124.02z M417.945,124.02h-8.711h-8.711v-11.453v-11.453h8.492h8.492v1.938v1.938h-6.18h-6.18v2.539v2.539
	h5.75h5.75v1.93v1.93h-5.75h-5.75v3.117v3.117h6.398h6.398v1.93V124.02z M438.227,121.036c-0.365,0.573-0.805,1.073-1.321,1.499
	s-1.107,0.778-1.773,1.056c-0.667,0.278-1.416,0.487-2.246,0.627s-1.743,0.209-2.738,0.209c-1.448,0-2.728-0.167-3.84-0.502
	s-2.056-0.837-2.832-1.506c-0.776-0.669-1.396-1.491-1.86-2.467s-0.771-2.104-0.922-3.385l2.25-0.219l2.25-0.219
	c0.135,0.755,0.34,1.41,0.615,1.965s0.619,1.009,1.033,1.363c0.414,0.354,0.9,0.62,1.459,0.797s1.189,0.265,1.893,0.265
	c0.745,0,1.397-0.079,1.959-0.236s1.031-0.394,1.409-0.709c0.377-0.315,0.661-0.657,0.849-1.025s0.283-0.764,0.283-1.186
	c0-0.271-0.04-0.521-0.119-0.751s-0.199-0.441-0.357-0.631c-0.159-0.19-0.377-0.368-0.655-0.533s-0.614-0.318-1.009-0.459
	c-0.271-0.094-0.715-0.224-1.332-0.391s-1.407-0.37-2.371-0.609c-1.24-0.307-2.294-0.649-3.164-1.027s-1.555-0.79-2.055-1.239
	c-0.703-0.63-1.23-1.329-1.582-2.097s-0.527-1.606-0.527-2.512c0-0.583,0.083-1.147,0.248-1.693s0.413-1.073,0.744-1.58
	c0.331-0.508,0.734-0.955,1.211-1.342s1.026-0.713,1.649-0.979c0.622-0.266,1.309-0.465,2.06-0.598s1.567-0.199,2.448-0.199
	c1.438,0,2.697,0.158,3.779,0.473s1.986,0.788,2.713,1.418c0.727,0.63,1.281,1.366,1.662,2.207s0.59,1.788,0.627,2.839l-2.312,0.102
	l-2.312,0.102c-0.099-0.588-0.255-1.094-0.467-1.517s-0.481-0.764-0.806-1.022c-0.326-0.258-0.733-0.451-1.221-0.58
	s-1.058-0.193-1.709-0.193c-0.672,0-1.271,0.069-1.797,0.207s-0.979,0.345-1.359,0.621c-0.245,0.177-0.429,0.384-0.551,0.621
	s-0.183,0.504-0.183,0.801c0,0.271,0.057,0.522,0.172,0.754s0.286,0.444,0.516,0.636c0.292,0.245,0.792,0.495,1.5,0.75
	s1.625,0.515,2.75,0.781s2.104,0.536,2.936,0.811s1.518,0.554,2.057,0.838c0.539,0.284,1.02,0.62,1.441,1.008s0.785,0.828,1.09,1.32
	s0.533,1.042,0.686,1.651s0.229,1.274,0.229,1.998c0,0.656-0.091,1.292-0.274,1.906S438.591,120.463,438.227,121.036z
	 M459.773,104.989h-3.391h-3.391v9.516v9.516h-2.312h-2.312v-9.516v-9.516h-3.398h-3.398v-1.938v-1.938h9.102h9.102v1.938V104.989z"
	/>
<polygon fill="#F16522" points="319.062,291.451 273.203,176.919 248.75,176.919 224.297,176.919 179.688,291.451 135.078,405.982 
	159.609,405.982 184.141,405.982 314.609,405.982 339.766,405.982 364.922,405.982 "/>
<polygon fill="#6FBD44" points="214.427,250.334 219.054,251.769 216.543,259.865 239.264,266.911 237.552,272.433 214.83,265.387 
	212.314,273.502 207.688,272.067 "/>
<path fill="#6FBD44" d="M203.349,286.058c0.906-2.922,1.811-4.97,2.712-6.142c0.902-1.172,2.105-1.962,3.607-2.368
	c1.503-0.406,3.063-0.359,4.68,0.142c2.052,0.636,3.56,1.766,4.522,3.386c0.963,1.621,1.246,3.686,0.85,6.194
	c1.067-0.978,2.138-1.727,3.211-2.245c1.074-0.518,2.879-1.108,5.415-1.766l6.371-1.685l-2.048,6.604l-7.189,2.147
	c-2.566,0.758-4.207,1.313-4.923,1.664c-0.715,0.351-1.266,0.786-1.653,1.307c-0.387,0.521-0.776,1.416-1.17,2.684l-0.347,1.119
	l11.417,3.54l-1.712,5.522l-27.348-8.481L203.349,286.058z"/>
<path fill="#6FBD44" d="M192.884,319.805l14.812,4.593c2.351,0.729,3.895,1.133,4.634,1.212c1.192,0.111,2.266-0.174,3.219-0.852
	c0.954-0.679,1.669-1.79,2.148-3.332c0.486-1.567,0.532-2.848,0.138-3.842c-0.394-0.994-1.032-1.718-1.914-2.168
	c-0.883-0.451-2.406-1.012-4.57-1.683l-15.129-4.692l1.712-5.522l14.364,4.454c3.283,1.018,5.557,1.887,6.819,2.606
	c1.263,0.719,2.237,1.624,2.92,2.715c0.684,1.091,1.095,2.395,1.231,3.909s-0.13,3.354-0.801,5.518
	c-0.81,2.612-1.726,4.498-2.747,5.661c-1.022,1.163-2.136,1.986-3.343,2.47c-1.206,0.485-2.377,0.687-3.512,0.608
	c-1.679-0.125-4.048-0.662-7.107-1.611l-14.588-4.524L192.884,319.805z"/>
<path fill="#6FBD44" d="M206.19,372.906c-0.186,0.952-0.812,3.191-1.879,6.717l-2.887,9.309l-27.348-8.481l3.39-10.932
	c0.671-2.163,1.262-3.749,1.772-4.757c0.51-1.007,1.182-1.842,2.014-2.504c0.833-0.662,1.811-1.125,2.936-1.39
	s2.278-0.214,3.46,0.153c1.281,0.397,2.349,1.107,3.205,2.129c0.856,1.022,1.368,2.206,1.536,3.554
	c1.002-1.516,2.226-2.541,3.673-3.073c1.447-0.533,2.96-0.554,4.539-0.065c1.244,0.386,2.363,1.05,3.359,1.993
	c0.996,0.943,1.69,2.024,2.082,3.243C206.434,370.02,206.484,371.389,206.19,372.906z"/>
<path fill="#6FBD44" d="M207.822,358.444c-1.206,0.485-2.377,0.687-3.512,0.608c-1.679-0.125-4.048-0.662-7.107-1.611l-14.588-4.524
	l1.712-5.522l14.812,4.593c2.351,0.729,3.895,1.133,4.634,1.212c1.193,0.111,2.266-0.174,3.219-0.852
	c0.954-0.679,1.669-1.79,2.148-3.332c0.486-1.567,0.533-2.848,0.138-3.842c-0.394-0.994-1.032-1.718-1.914-2.168
	s-2.406-1.012-4.57-1.683l-15.129-4.692l1.712-5.522l14.364,4.454c3.283,1.018,5.557,1.887,6.819,2.605
	c1.263,0.719,2.237,1.624,2.92,2.715c0.684,1.091,1.095,2.395,1.231,3.909s-0.13,3.354-0.801,5.518
	c-0.81,2.612-1.726,4.498-2.747,5.661S209.029,357.959,207.822,358.444z"/>
<path fill="#6FBD44" d="M240.789,388.563c-1.126,3.632-3.292,6.232-6.498,7.8c-3.206,1.569-6.961,1.686-11.264,0.351
	c-4.552-1.412-7.722-3.683-9.512-6.815s-2.09-6.612-0.903-10.443c1.038-3.346,2.869-5.756,5.494-7.232
	c1.555-0.881,3.523-1.293,5.905-1.236l-0.389,5.871c-1.518-0.116-2.847,0.211-3.986,0.983s-1.936,1.891-2.391,3.358
	c-0.629,2.027-0.411,3.898,0.653,5.611c1.064,1.714,3.225,3.076,6.483,4.086c3.458,1.072,6.113,1.214,7.966,0.425
	c1.853-0.788,3.088-2.178,3.705-4.168c0.455-1.467,0.38-2.874-0.225-4.22c-0.605-1.346-1.837-2.56-3.697-3.641l3.358-4.828
	c2.73,1.746,4.524,3.799,5.381,6.157C241.725,382.982,241.699,385.628,240.789,388.563z"/>
<polygon fill="#6FBD44" points="251.1,353.665 246.269,369.242 244.453,375.099 220.408,355.967 222.219,350.128 252.962,347.658 
	"/>
<polygon fill="#6FBD44" points="260.418,323.393 238.839,316.885 258.777,328.835 257.169,334.164 233.955,333.078 255.534,339.587 
	253.982,344.729 226.57,336.46 229.068,328.177 249.268,328.843 232.052,318.285 234.556,309.982 261.969,318.251 "/>
<path fill="#6FBD44" d="M263.74,312.904l-27.348-8.481l2.748-8.861c1.041-3.358,1.857-5.505,2.447-6.439
	c0.896-1.44,2.196-2.475,3.898-3.106c1.702-0.631,3.642-0.609,5.818,0.066c1.679,0.521,2.996,1.263,3.951,2.227
	c0.956,0.964,1.614,2.017,1.975,3.158c0.362,1.142,0.498,2.23,0.409,3.266c-0.148,1.399-0.609,3.349-1.384,5.849l-1.117,3.6
	l10.316,3.199L263.74,312.904z"/>
<path fill="#6FBD44" d="M275.58,276.373c-0.81,2.612-1.726,4.498-2.747,5.661s-2.136,1.986-3.343,2.47
	c-1.206,0.485-2.377,0.687-3.512,0.608c-1.679-0.125-4.048-0.662-7.107-1.611l-14.588-4.524l1.712-5.522l14.812,4.593
	c2.35,0.729,3.895,1.133,4.634,1.212c1.193,0.111,2.266-0.174,3.219-0.852c0.954-0.679,1.67-1.79,2.148-3.332
	c0.486-1.567,0.533-2.848,0.138-3.842c-0.394-0.994-1.032-1.718-1.914-2.168s-2.406-1.012-4.57-1.683l-15.129-4.692l1.712-5.522
	l14.364,4.454c3.283,1.018,5.557,1.887,6.819,2.606c1.263,0.719,2.237,1.624,2.921,2.715c0.684,1.091,1.095,2.395,1.231,3.909
	C276.517,272.37,276.251,274.209,275.58,276.373z"/>
<path fill="#6FBD44" d="M283.749,250.094c-1.072,3.458-2.694,5.865-4.867,7.222c-2.173,1.358-4.845,1.742-8.016,1.154l1.144-5.535
	c1.904,0.236,3.432-0.009,4.584-0.736c1.153-0.726,1.989-1.929,2.509-3.608c0.552-1.779,0.591-3.235,0.118-4.37
	c-0.473-1.135-1.213-1.859-2.22-2.171c-0.646-0.2-1.255-0.182-1.827,0.057c-0.571,0.239-1.172,0.779-1.801,1.619
	c-0.424,0.577-1.279,1.927-2.565,4.051c-1.651,2.732-3.197,4.53-4.637,5.392c-2.025,1.212-4.12,1.483-6.284,0.812
	c-1.393-0.432-2.573-1.23-3.541-2.396c-0.968-1.166-1.538-2.59-1.712-4.273c-0.174-1.683,0.066-3.575,0.718-5.677
	c1.064-3.432,2.618-5.783,4.661-7.051c2.043-1.268,4.334-1.557,6.873-0.864l-1.47,5.597c-1.478-0.2-2.646-0.006-3.503,0.58
	c-0.857,0.586-1.526,1.656-2.008,3.211c-0.497,1.604-0.557,2.963-0.18,4.075c0.242,0.716,0.717,1.183,1.426,1.403
	c0.647,0.201,1.285,0.099,1.915-0.306c0.801-0.515,1.934-2.018,3.402-4.507s2.74-4.273,3.816-5.35
	c1.077-1.077,2.316-1.797,3.717-2.16s2.966-0.276,4.694,0.259c1.567,0.486,2.9,1.377,3.998,2.671
	c1.099,1.295,1.733,2.841,1.905,4.64C284.768,245.632,284.486,247.719,283.749,250.094z"/>
<g>
</g>
<g>
</g>
<g>
</g>
<g>
</g>
<g>
</g>
<g>
</g>
<g>
</g>
<g>
</g>
<g>
</g>
<g>
</g>
<g>
</g>
<g>
</g>
<g>
</g>
<g>
</g>
<g>
</g>
</svg>
