<?xml version="1.0" encoding="iso-8859-1"?>
<!-- Generator: Adobe Illustrator 25.0.0, SVG Export Plug-In . SVG Version: 6.00 Build 0)  -->
<svg version="1.1" id="Layer_1" xmlns="http://www.w3.org/2000/svg" xmlns:xlink="http://www.w3.org/1999/xlink" x="0px" y="0px"
	 width="650px" height="500px" viewBox="0 0 650 500" enable-background="new 0 0 650 500" xml:space="preserve">
<path fill="#F16522" d="M319.062,291.451l-45.859-114.531H248.75h-24.453l-44.609,114.531l-44.609,114.531h24.531h24.531h130.469
	h25.156h25.156L319.062,291.451z M212.066,247.271l4.813,0.541l-0.947,8.423l23.64,2.659l-0.646,5.745l-23.64-2.659l-0.95,8.443
	l-4.813-0.541L212.066,247.271z M207.886,284.439c0.342-3.04,0.846-5.221,1.512-6.542c0.666-1.32,1.699-2.322,3.099-3.002
	c1.4-0.681,2.941-0.927,4.623-0.738c2.135,0.24,3.828,1.066,5.077,2.478c1.25,1.411,1.916,3.387,1.997,5.924
	c0.865-1.161,1.776-2.097,2.733-2.808c0.958-0.711,2.62-1.629,4.987-2.751l5.942-2.85l-0.773,6.871l-6.659,3.457
	c-2.379,1.226-3.886,2.079-4.523,2.557c-0.637,0.479-1.096,1.01-1.378,1.594c-0.282,0.584-0.497,1.536-0.646,2.856l-0.131,1.165
	l11.878,1.336l-0.646,5.745l-28.453-3.2L207.886,284.439z M226.382,376.163l-1.089,9.685l-28.453-3.2l1.279-11.374
	c0.253-2.251,0.536-3.919,0.848-5.004c0.312-1.085,0.815-2.031,1.508-2.838c0.694-0.806,1.568-1.445,2.623-1.916
	c1.055-0.471,2.198-0.637,3.427-0.499c1.333,0.15,2.515,0.646,3.547,1.49c1.032,0.843,1.757,1.91,2.175,3.203
	c0.7-1.677,1.71-2.913,3.031-3.708c1.321-0.795,2.804-1.1,4.447-0.915c1.294,0.146,2.518,0.588,3.674,1.327
	c1.155,0.739,2.04,1.671,2.654,2.795c0.614,1.124,0.919,2.459,0.916,4.004C226.963,370.182,226.768,372.499,226.382,376.163z
	 M230.314,345.571c-0.306,2.717-0.851,4.742-1.637,6.076c-0.785,1.334-1.725,2.351-2.82,3.054c-1.094,0.702-2.206,1.121-3.335,1.256
	c-1.673,0.192-4.1,0.109-7.283-0.249L200.061,354l0.646-5.745l15.411,1.733c2.446,0.275,4.039,0.383,4.779,0.321
	c1.192-0.115,2.193-0.596,3.002-1.441c0.81-0.845,1.304-2.071,1.485-3.675c0.183-1.63-0.011-2.897-0.585-3.8
	c-0.573-0.903-1.336-1.494-2.287-1.771c-0.952-0.277-2.553-0.543-4.804-0.796l-15.741-1.771l0.646-5.745l14.945,1.681
	c3.416,0.384,5.812,0.811,7.187,1.28c1.376,0.469,2.501,1.176,3.378,2.119c0.877,0.944,1.524,2.147,1.943,3.609
	C230.485,341.463,230.568,343.32,230.314,345.571z M233.543,316.866c-0.306,2.717-0.851,4.742-1.637,6.076s-1.725,2.351-2.82,3.054
	c-1.094,0.702-2.206,1.121-3.335,1.256c-1.673,0.192-4.1,0.109-7.283-0.249l-15.178-1.707l0.646-5.745l15.411,1.733
	c2.445,0.275,4.039,0.383,4.779,0.321c1.192-0.115,2.193-0.595,3.002-1.441c0.81-0.845,1.304-2.071,1.485-3.676
	c0.183-1.63-0.011-2.897-0.585-3.8c-0.573-0.903-1.336-1.494-2.287-1.771c-0.952-0.277-2.553-0.543-4.804-0.796l-15.741-1.771
	l0.646-5.745l14.945,1.681c3.416,0.384,5.812,0.811,7.187,1.28c1.376,0.469,2.501,1.176,3.378,2.119
	c0.877,0.944,1.524,2.147,1.943,3.609C233.713,312.757,233.796,314.614,233.543,316.866z M263.889,378.102
	c-0.425,3.778-2.065,6.739-4.92,8.881c-2.855,2.143-6.521,2.962-10.998,2.458c-4.736-0.533-8.276-2.169-10.621-4.909
	c-2.345-2.74-3.294-6.103-2.845-10.088c0.392-3.481,1.738-6.192,4.04-8.135c1.362-1.157,3.218-1.931,5.568-2.322l0.719,5.84
	c-1.513,0.171-2.756,0.741-3.73,1.713s-1.547,2.221-1.719,3.747c-0.237,2.109,0.327,3.906,1.693,5.389
	c1.366,1.484,3.745,2.416,7.134,2.797c3.597,0.405,6.232,0.046,7.904-1.076c1.672-1.122,2.625-2.718,2.858-4.789
	c0.172-1.526-0.166-2.895-1.013-4.103c-0.847-1.209-2.284-2.17-4.314-2.883l2.393-5.372c3.009,1.203,5.156,2.883,6.44,5.039
	C263.762,372.444,264.232,375.048,263.889,378.102z M267.47,341.889l-1.823,16.206l-0.685,6.094l-27.207-14.283l0.683-6.075
	l29.735-8.193L267.47,341.889z M270.945,310.407l-22.417-2.346l21.825,7.998l-0.579,5.536l-23.006,3.287l22.417,2.346l-0.559,5.342
	l-28.477-2.98l0.9-8.605l19.966-3.134l-18.891-7.142l0.903-8.625l28.477,2.98L270.945,310.407z M272.24,299.48l-28.453-3.2
	l1.037-9.219c0.393-3.494,0.792-5.755,1.195-6.784c0.61-1.582,1.693-2.843,3.246-3.782c1.554-0.939,3.463-1.281,5.727-1.027
	c1.747,0.197,3.18,0.679,4.299,1.447c1.119,0.768,1.963,1.678,2.533,2.732c0.569,1.054,0.908,2.097,1.014,3.131
	c0.117,1.402,0.03,3.404-0.263,6.004l-0.421,3.746l10.733,1.207L272.24,299.48z M277.018,261.377
	c-0.306,2.717-0.851,4.742-1.637,6.076c-0.785,1.334-1.725,2.351-2.82,3.054c-1.094,0.702-2.206,1.121-3.335,1.256
	c-1.673,0.192-4.1,0.109-7.283-0.249l-15.178-1.707l0.646-5.745l15.411,1.733c2.445,0.275,4.039,0.382,4.779,0.321
	c1.192-0.115,2.193-0.596,3.002-1.441c0.81-0.845,1.304-2.071,1.485-3.675c0.183-1.63-0.011-2.897-0.585-3.8
	c-0.573-0.903-1.336-1.494-2.287-1.771c-0.952-0.277-2.553-0.543-4.804-0.796l-15.741-1.771l0.646-5.745l14.945,1.681
	c3.416,0.384,5.812,0.811,7.187,1.28c1.376,0.469,2.501,1.176,3.378,2.119c0.877,0.944,1.524,2.147,1.943,3.609
	S277.271,259.126,277.018,261.377z M280.113,234.032c-0.405,3.597-1.547,6.266-3.426,8.007c-1.879,1.741-4.432,2.62-7.657,2.637
	l0.085-5.651c1.914-0.126,3.369-0.653,4.364-1.583c0.996-0.93,1.592-2.268,1.788-4.015c0.208-1.851-0.026-3.288-0.704-4.315
	c-0.677-1.026-1.54-1.598-2.588-1.716c-0.673-0.076-1.267,0.057-1.784,0.399c-0.517,0.342-1.005,0.985-1.465,1.928
	c-0.309,0.646-0.895,2.133-1.76,4.46c-1.11,2.993-2.291,5.049-3.543,6.166c-1.762,1.571-3.769,2.229-6.02,1.976
	c-1.449-0.163-2.758-0.726-3.928-1.69s-1.997-2.256-2.483-3.876c-0.486-1.62-0.606-3.524-0.36-5.711
	c0.402-3.571,1.487-6.171,3.256-7.8c1.769-1.629,3.965-2.342,6.589-2.138l-0.394,5.773c-1.49,0.081-2.6,0.491-3.332,1.227
	c-0.731,0.736-1.188,1.913-1.37,3.531c-0.188,1.669,0.008,3.015,0.588,4.036c0.372,0.658,0.926,1.028,1.664,1.111
	c0.673,0.076,1.281-0.144,1.823-0.66c0.69-0.656,1.522-2.344,2.496-5.065c0.974-2.721,1.889-4.711,2.745-5.971
	c0.856-1.26,1.938-2.2,3.246-2.819c1.308-0.619,2.861-0.828,4.66-0.626c1.63,0.183,3.106,0.808,4.428,1.874
	c1.322,1.066,2.235,2.465,2.741,4.2S280.391,231.561,280.113,234.032z"/>
<path fill="#215640" d="M485.35,94.018h-9.272h-9.272H356.622H246.438v18.544v18.544v11.453v11.453v11.453v11.453h2.312h2.312
	v-11.453v-11.453V142.56v-11.453h107.872h107.872h9.272h9.272l-9.272-9.272l-9.272-9.272l9.272-9.272L485.35,94.018z
	 M271.867,124.02h-2.32h-2.32l-4.617-7.469l-4.617-7.469v7.469v7.469h-2.148h-2.148v-11.453v-11.453h2.25h2.25l4.688,7.648
	l4.688,7.648v-7.648v-7.648h2.148h2.148v11.453V124.02z M281.242,124.02h-2.312h-2.312v-11.453v-11.453h2.312h2.312v11.453V124.02z
	 M303.07,124.02h-8.711h-8.711v-11.453v-11.453h8.492h8.492v1.938v1.938h-6.18h-6.18v2.539v2.539h5.75h5.75v1.93v1.93h-5.75h-5.75
	v3.117v3.117h6.398h6.398v1.93V124.02z M325.227,113.145c0,1.375-0.031,2.548-0.094,3.52s-0.156,1.741-0.281,2.308
	c-0.125,0.568-0.303,1.091-0.533,1.57s-0.514,0.914-0.85,1.305s-0.729,0.742-1.178,1.053s-0.955,0.583-1.518,0.814
	s-1.211,0.405-1.945,0.521s-1.555,0.174-2.461,0.174c-1.094,0-2.055-0.063-2.885-0.19s-1.527-0.316-2.092-0.568
	c-0.565-0.252-1.071-0.543-1.518-0.871s-0.834-0.694-1.162-1.098c-0.328-0.403-0.6-0.817-0.817-1.24s-0.376-0.856-0.48-1.299
	c-0.151-0.656-0.265-1.469-0.34-2.438s-0.113-2.094-0.113-3.375v-6.109v-6.109h2.312h2.312v6.203v6.203
	c0,0.984,0.014,1.796,0.043,2.434s0.072,1.103,0.129,1.394c0.099,0.469,0.266,0.891,0.502,1.268s0.54,0.706,0.912,0.99
	c0.372,0.284,0.813,0.497,1.322,0.639s1.087,0.213,1.733,0.213c0.656,0,1.232-0.067,1.726-0.201s0.909-0.335,1.242-0.604
	c0.333-0.268,0.6-0.567,0.8-0.896s0.335-0.69,0.403-1.08c0.067-0.391,0.118-0.91,0.152-1.559s0.051-1.426,0.051-2.332v-6.336v-6.336
	h2.312h2.312v6.016V113.145z M352.383,124.02h-2.453h-2.453l-2.281-8.562l-2.281-8.562l-2.273,8.562l-2.273,8.562h-2.508h-2.508
	l-2.734-11.453l-2.734-11.453h2.367h2.367l1.727,7.867l1.727,7.867l2.094-7.867l2.094-7.867h2.75h2.75l2.008,8l2.008,8l1.758-8
	l1.758-8h2.328h2.328l-2.781,11.453L352.383,124.02z M367.758,117.911h-4.312h-4.312v-2.195v-2.195h4.312h4.312v2.195V117.911z
	 M392.602,124.02h-2.453h-2.453l-2.281-8.562l-2.281-8.562l-2.273,8.562l-2.273,8.562h-2.508h-2.508l-2.734-11.453l-2.734-11.453
	h2.367h2.367l1.727,7.867l1.727,7.867l2.094-7.867l2.094-7.867h2.75h2.75l2.008,8l2.008,8l1.758-8l1.758-8h2.328h2.328
	l-2.781,11.453L392.602,124.02z M417.945,124.02h-8.711h-8.711v-11.453v-11.453h8.492h8.492v1.938v1.938h-6.18h-6.18v2.539v2.539
	h5.75h5.75v1.93v1.93h-5.75h-5.75v3.117v3.117h6.398h6.398v1.93V124.02z M438.227,121.036c-0.365,0.573-0.805,1.073-1.321,1.499
	s-1.107,0.778-1.773,1.056c-0.667,0.278-1.416,0.487-2.246,0.627s-1.743,0.209-2.738,0.209c-1.448,0-2.728-0.167-3.84-0.502
	s-2.056-0.837-2.832-1.506c-0.776-0.669-1.396-1.491-1.86-2.467s-0.771-2.104-0.922-3.385l2.25-0.219l2.25-0.219
	c0.135,0.755,0.34,1.41,0.615,1.965s0.619,1.009,1.033,1.363c0.414,0.354,0.9,0.62,1.459,0.797s1.189,0.265,1.893,0.265
	c0.745,0,1.397-0.079,1.959-0.236s1.031-0.394,1.409-0.709c0.377-0.315,0.661-0.657,0.849-1.025s0.283-0.764,0.283-1.186
	c0-0.271-0.04-0.521-0.119-0.751s-0.199-0.441-0.357-0.631c-0.159-0.19-0.377-0.368-0.655-0.533s-0.614-0.318-1.009-0.459
	c-0.271-0.094-0.715-0.224-1.332-0.391s-1.407-0.37-2.371-0.609c-1.24-0.307-2.294-0.649-3.164-1.027s-1.555-0.79-2.055-1.239
	c-0.703-0.63-1.23-1.329-1.582-2.097s-0.527-1.606-0.527-2.512c0-0.583,0.083-1.147,0.248-1.693s0.413-1.073,0.744-1.58
	c0.331-0.508,0.734-0.955,1.211-1.342s1.026-0.713,1.649-0.979c0.622-0.266,1.309-0.465,2.06-0.598s1.567-0.199,2.448-0.199
	c1.438,0,2.697,0.158,3.779,0.473s1.986,0.788,2.713,1.418c0.727,0.63,1.281,1.366,1.662,2.207s0.59,1.788,0.627,2.839l-2.312,0.102
	l-2.312,0.102c-0.099-0.588-0.255-1.094-0.467-1.517s-0.481-0.764-0.806-1.022c-0.326-0.258-0.733-0.451-1.221-0.58
	s-1.058-0.193-1.709-0.193c-0.672,0-1.271,0.069-1.797,0.207s-0.979,0.345-1.359,0.621c-0.245,0.177-0.429,0.384-0.551,0.621
	s-0.183,0.504-0.183,0.801c0,0.271,0.057,0.522,0.172,0.754s0.286,0.444,0.516,0.636c0.292,0.245,0.792,0.495,1.5,0.75
	s1.625,0.515,2.75,0.781s2.104,0.536,2.936,0.811s1.518,0.554,2.057,0.838c0.539,0.284,1.02,0.62,1.441,1.008s0.785,0.828,1.09,1.32
	s0.533,1.042,0.686,1.651s0.229,1.274,0.229,1.998c0,0.656-0.091,1.292-0.274,1.906S438.591,120.463,438.227,121.036z
	 M459.773,104.989h-3.391h-3.391v9.516v9.516h-2.312h-2.312v-9.516v-9.516h-3.398h-3.398v-1.938v-1.938h9.102h9.102v1.938V104.989z"
	/>
<g>
</g>
<g>
</g>
<g>
</g>
<g>
</g>
<g>
</g>
<g>
</g>
<g>
</g>
<g>
</g>
<g>
</g>
<g>
</g>
<g>
</g>
<g>
</g>
<g>
</g>
<g>
</g>
<g>
</g>
</svg>
