<?xml version="1.0" encoding="iso-8859-1"?>
<!-- Generator: Adobe Illustrator 25.0.0, SVG Export Plug-In . SVG Version: 6.00 Build 0)  -->
<svg version="1.1" id="Layer_1" xmlns="http://www.w3.org/2000/svg" xmlns:xlink="http://www.w3.org/1999/xlink" x="0px" y="0px"
	 width="650px" height="500px" viewBox="0 0 650 500" enable-background="new 0 0 650 500" xml:space="preserve">
<path fill="#F16522" d="M319.062,291.451L273.203,176.92H248.75h-24.453l-44.609,114.531l-44.609,114.531h24.531h24.531H314.61
	h25.156h25.156L319.062,291.451z M291.015,296.722l-22.124,4.305l23.21,1.274l1.063,5.464l-21.042,9.865l22.124-4.305l1.026,5.272
	l-28.106,5.469l-1.653-8.493l18.179-8.83l-20.153-1.312l-1.656-8.512l28.106-5.469L291.015,296.722z M289.062,285.894l-28.147,5.251
	l-1.701-9.12c-0.645-3.456-0.924-5.735-0.838-6.837c0.122-1.692,0.788-3.214,1.999-4.565c1.212-1.352,2.937-2.237,5.177-2.655
	c1.728-0.322,3.24-0.28,4.534,0.128c1.295,0.407,2.368,1.031,3.22,1.873s1.481,1.74,1.884,2.698
	c0.522,1.306,1.023,3.246,1.503,5.819l0.691,3.706l10.618-1.981L289.062,285.894z M280.635,242.802
	c0.827,1.276,1.449,3.028,1.865,5.255c0.502,2.688,0.571,4.784,0.21,6.289c-0.361,1.505-0.963,2.753-1.805,3.744
	c-0.841,0.991-1.782,1.716-2.823,2.176c-1.543,0.672-3.89,1.302-7.039,1.889l-15.014,2.801l-1.06-5.683l15.245-2.844
	c2.419-0.451,3.974-0.814,4.665-1.089c1.107-0.458,1.923-1.21,2.45-2.255s0.642-2.362,0.346-3.949
	c-0.301-1.613-0.857-2.768-1.669-3.464s-1.714-1.038-2.705-1.025s-2.6,0.227-4.827,0.642l-15.571,2.905l-1.06-5.683l14.784-2.758
	c3.379-0.63,5.795-0.922,7.248-0.875c1.453,0.047,2.736,0.394,3.85,1.04S279.808,241.526,280.635,242.802z M249.241,218.35
	c1.216-2.075,3.108-3.398,5.677-3.97l1.31,5.637c-1.401,0.513-2.344,1.229-2.828,2.147c-0.484,0.918-0.577,2.177-0.279,3.777
	c0.308,1.651,0.889,2.881,1.741,3.688c0.548,0.521,1.186,0.713,1.916,0.576c0.666-0.124,1.183-0.512,1.551-1.164
	c0.468-0.829,0.77-2.687,0.907-5.573c0.137-2.886,0.431-5.057,0.881-6.512c0.451-1.455,1.211-2.67,2.281-3.644
	c1.07-0.975,2.495-1.628,4.274-1.96c1.613-0.301,3.207-0.134,4.782,0.499s2.858,1.705,3.848,3.216s1.714,3.488,2.17,5.933
	c0.664,3.559,0.351,6.444-0.938,8.659c-1.289,2.214-3.473,3.8-6.553,4.759l-1.569-5.429c1.794-0.679,3.031-1.609,3.712-2.789
	c0.681-1.18,0.86-2.634,0.537-4.362c-0.342-1.831-0.986-3.137-1.934-3.921c-0.947-0.784-1.94-1.078-2.976-0.885
	c-0.665,0.124-1.195,0.425-1.59,0.903c-0.394,0.478-0.674,1.235-0.838,2.272c-0.106,0.708-0.233,2.302-0.38,4.78
	c-0.187,3.187-0.716,5.498-1.588,6.932c-1.226,2.017-2.953,3.233-5.18,3.649c-1.433,0.267-2.85,0.111-4.25-0.469
	c-1.4-0.58-2.569-1.574-3.507-2.982s-1.609-3.194-2.013-5.357C247.747,223.228,248.026,220.425,249.241,218.35z M216.261,253.54
	l4.762-0.888l1.555,8.333l23.386-4.363l1.06,5.683l-23.386,4.363l1.558,8.352l-4.762,0.888L216.261,253.54z M223.12,290.308
	c-0.561-3.008-0.716-5.241-0.465-6.698c0.252-1.458,0.947-2.717,2.087-3.777s2.542-1.746,4.206-2.056
	c2.112-0.394,3.972-0.098,5.579,0.886c1.608,0.984,2.821,2.679,3.64,5.083c0.488-1.363,1.086-2.524,1.794-3.484
	c0.709-0.96,2.03-2.323,3.966-4.088l4.85-4.461l1.268,6.797l-5.358,5.251c-1.917,1.867-3.109,3.123-3.579,3.767
	c-0.469,0.644-0.754,1.286-0.852,1.927c-0.099,0.641-0.027,1.614,0.217,2.92l0.215,1.152l11.75-2.192l1.06,5.683l-28.147,5.251
	L223.12,290.308z M229.6,325.041l15.245-2.844c2.419-0.451,3.974-0.814,4.665-1.089c1.107-0.458,1.923-1.21,2.45-2.255
	s0.642-2.362,0.346-3.949c-0.301-1.613-0.857-2.768-1.669-3.464c-0.812-0.696-1.714-1.038-2.705-1.025s-2.6,0.227-4.827,0.642
	l-15.571,2.905l-1.06-5.683l14.784-2.758c3.379-0.63,5.795-0.922,7.248-0.875s2.736,0.394,3.85,1.04s2.085,1.608,2.912,2.884
	c0.827,1.276,1.449,3.028,1.865,5.255c0.502,2.688,0.571,4.784,0.21,6.289c-0.361,1.505-0.963,2.753-1.805,3.744
	c-0.841,0.991-1.782,1.716-2.823,2.176c-1.544,0.672-3.89,1.302-7.039,1.889l-15.014,2.801L229.6,325.041z M234.898,353.438
	l15.245-2.844c2.419-0.451,3.974-0.814,4.665-1.089c1.107-0.458,1.923-1.21,2.45-2.255s0.642-2.362,0.346-3.949
	c-0.301-1.613-0.857-2.768-1.669-3.464c-0.812-0.696-1.714-1.038-2.705-1.025s-2.6,0.227-4.827,0.642l-15.571,2.905l-1.06-5.683
	l14.784-2.758c3.379-0.63,5.795-0.922,7.248-0.875s2.736,0.394,3.85,1.04s2.085,1.608,2.912,2.884s1.449,3.028,1.865,5.255
	c0.501,2.688,0.571,4.784,0.21,6.289c-0.361,1.505-0.963,2.753-1.805,3.744c-0.841,0.991-1.782,1.716-2.823,2.176
	c-1.544,0.672-3.89,1.302-7.039,1.889l-15.014,2.801L234.898,353.438z M241.245,387.46l-2.099-11.251
	c-0.415-2.227-0.632-3.905-0.651-5.034c-0.018-1.129,0.186-2.181,0.614-3.154c0.428-0.974,1.077-1.84,1.949-2.599
	s1.916-1.251,3.132-1.478c1.319-0.246,2.594-0.116,3.828,0.389c1.234,0.505,2.239,1.314,3.016,2.427
	c0.179-1.809,0.785-3.286,1.816-4.432c1.031-1.146,2.36-1.871,3.985-2.174c1.28-0.239,2.58-0.173,3.901,0.196
	c1.321,0.37,2.439,1.002,3.354,1.898c0.916,0.895,1.598,2.083,2.045,3.562c0.279,0.928,0.77,3.201,1.471,6.818l1.787,9.581
	L241.245,387.46z M269.69,338.185l26.045-16.521l1.153,6.182l2.991,16.032l1.125,6.029l-30.193-5.712L269.69,338.185z
	 M301.93,373.456c-2.105,2.883-5.371,4.737-9.8,5.563c-4.685,0.874-8.549,0.343-11.592-1.592s-4.933-4.874-5.668-8.817
	c-0.642-3.444-0.147-6.43,1.487-8.96c0.965-1.504,2.513-2.787,4.647-3.847l2.394,5.375c-1.397,0.605-2.42,1.514-3.067,2.728
	c-0.648,1.214-0.831,2.576-0.549,4.086c0.389,2.087,1.454,3.64,3.194,4.659c1.74,1.02,4.287,1.217,7.64,0.591
	c3.559-0.664,5.974-1.777,7.245-3.339c1.272-1.562,1.716-3.367,1.334-5.415c-0.282-1.51-1.004-2.72-2.167-3.628
	c-1.163-0.909-2.819-1.408-4.968-1.497l0.719-5.836c3.23,0.272,5.774,1.25,7.631,2.938c1.858,1.687,3.068,4.04,3.632,7.061
	C304.739,367.263,304.035,370.573,301.93,373.456z"/>
<path fill="#FFFFFF" d="M485.35,94.018h-9.272h-9.272H356.622H246.438v18.544v18.544v11.453v11.453v11.453v11.453h2.312h2.312
	v-11.453v-11.453V142.56v-11.453h107.872h107.872h9.272h9.272l-9.272-9.272l-9.272-9.272l9.272-9.272L485.35,94.018z
	 M271.867,124.02h-2.32h-2.32l-4.617-7.469l-4.617-7.469v7.469v7.469h-2.148h-2.148v-11.453v-11.453h2.25h2.25l4.688,7.648
	l4.688,7.648v-7.648v-7.648h2.148h2.148v11.453v11.453H271.867z M281.242,124.02h-2.312h-2.312v-11.453v-11.453h2.312h2.312v11.453
	V124.02z M303.07,124.02h-8.711h-8.711v-11.453v-11.453h8.492h8.492v1.938v1.938h-6.18h-6.18v2.539v2.539h5.75h5.75v1.93v1.93h-5.75
	h-5.75v3.117v3.117h6.398h6.398v1.93v1.928H303.07z M325.227,113.145c0,1.375-0.031,2.548-0.094,3.52s-0.156,1.741-0.281,2.308
	c-0.125,0.568-0.303,1.091-0.533,1.57s-0.514,0.914-0.85,1.305s-0.729,0.742-1.178,1.053s-0.955,0.583-1.518,0.814
	s-1.211,0.405-1.945,0.521s-1.555,0.174-2.461,0.174c-1.094,0-2.055-0.063-2.885-0.19s-1.527-0.316-2.092-0.568
	s-1.071-0.543-1.518-0.871s-0.834-0.694-1.162-1.098c-0.328-0.403-0.6-0.817-0.817-1.24s-0.376-0.856-0.48-1.299
	c-0.151-0.656-0.265-1.469-0.34-2.438s-0.113-2.094-0.113-3.375v-6.109v-6.109h2.312h2.312v6.203v6.203
	c0,0.984,0.014,1.796,0.043,2.434s0.072,1.103,0.129,1.394c0.099,0.469,0.266,0.891,0.502,1.268s0.54,0.706,0.912,0.99
	c0.372,0.284,0.813,0.497,1.322,0.639s1.087,0.213,1.733,0.213c0.656,0,1.232-0.067,1.726-0.201s0.909-0.335,1.242-0.604
	c0.333-0.268,0.6-0.567,0.8-0.896s0.335-0.69,0.403-1.08c0.067-0.391,0.118-0.91,0.152-1.559s0.051-1.426,0.051-2.332v-6.336v-6.336
	h2.312h2.312v6.016v6.016H325.227z M352.383,124.02h-2.453h-2.453l-2.281-8.562l-2.281-8.562l-2.273,8.562l-2.273,8.562h-2.508
	h-2.508l-2.734-11.453l-2.734-11.453h2.367h2.367l1.727,7.867l1.727,7.867l2.094-7.867l2.094-7.867h2.75h2.75l2.008,8l2.008,8
	l1.758-8l1.758-8h2.328h2.328l-2.781,11.453L352.383,124.02z M367.758,117.911h-4.312h-4.312v-2.195v-2.195h4.312h4.312v2.195
	V117.911z M392.602,124.02h-2.453h-2.453l-2.281-8.562l-2.281-8.562l-2.273,8.562l-2.273,8.562h-2.508h-2.508l-2.734-11.453
	l-2.734-11.453h2.367h2.367l1.727,7.867l1.727,7.867l2.094-7.867l2.094-7.867h2.75h2.75l2.008,8l2.008,8l1.758-8l1.758-8h2.328
	h2.328l-2.781,11.453L392.602,124.02z M417.945,124.02h-8.711h-8.711v-11.453v-11.453h8.492h8.492v1.938v1.938h-6.18h-6.18v2.539
	v2.539h5.75h5.75v1.93v1.93h-5.75h-5.75v3.117v3.117h6.398h6.398v1.93v1.928H417.945z M438.227,121.036
	c-0.365,0.573-0.805,1.073-1.321,1.499s-1.107,0.778-1.773,1.056c-0.667,0.278-1.416,0.487-2.246,0.627s-1.743,0.209-2.738,0.209
	c-1.448,0-2.728-0.167-3.84-0.502s-2.056-0.837-2.832-1.506s-1.396-1.491-1.86-2.467s-0.771-2.104-0.922-3.385l2.25-0.219
	l2.25-0.219c0.135,0.755,0.34,1.41,0.615,1.965s0.619,1.009,1.033,1.363s0.9,0.62,1.459,0.797s1.189,0.265,1.893,0.265
	c0.745,0,1.397-0.079,1.959-0.236s1.031-0.394,1.409-0.709c0.377-0.315,0.661-0.657,0.849-1.025s0.283-0.764,0.283-1.186
	c0-0.271-0.04-0.521-0.119-0.751s-0.199-0.441-0.357-0.631c-0.159-0.19-0.377-0.368-0.655-0.533s-0.614-0.318-1.009-0.459
	c-0.271-0.094-0.715-0.224-1.332-0.391s-1.407-0.37-2.371-0.609c-1.24-0.307-2.294-0.649-3.164-1.027s-1.555-0.79-2.055-1.239
	c-0.703-0.63-1.23-1.329-1.582-2.097s-0.527-1.606-0.527-2.512c0-0.583,0.083-1.147,0.248-1.693s0.413-1.073,0.744-1.58
	c0.331-0.508,0.734-0.955,1.211-1.342s1.026-0.713,1.649-0.979c0.622-0.266,1.309-0.465,2.06-0.598s1.567-0.199,2.448-0.199
	c1.438,0,2.697,0.158,3.779,0.473s1.986,0.788,2.713,1.418c0.727,0.63,1.281,1.366,1.662,2.207s0.59,1.788,0.627,2.839l-2.312,0.102
	l-2.312,0.102c-0.099-0.588-0.255-1.094-0.467-1.517s-0.481-0.764-0.806-1.022c-0.326-0.258-0.733-0.451-1.221-0.58
	s-1.058-0.193-1.709-0.193c-0.672,0-1.271,0.069-1.797,0.207s-0.979,0.345-1.359,0.621c-0.245,0.177-0.429,0.384-0.551,0.621
	s-0.183,0.504-0.183,0.801c0,0.271,0.057,0.522,0.172,0.754s0.286,0.444,0.516,0.636c0.292,0.245,0.792,0.495,1.5,0.75
	s1.625,0.515,2.75,0.781s2.104,0.536,2.936,0.811s1.518,0.554,2.057,0.838s1.02,0.62,1.441,1.008s0.785,0.828,1.09,1.32
	s0.533,1.042,0.686,1.651s0.229,1.274,0.229,1.998c0,0.656-0.091,1.292-0.274,1.906S438.591,120.463,438.227,121.036z
	 M459.773,104.989h-3.391h-3.391v9.516v9.516h-2.312h-2.312v-9.516v-9.516h-3.398h-3.398v-1.938v-1.938h9.102h9.102v1.938v1.938
	H459.773z"/>
</svg>
