<?xml version="1.0" encoding="iso-8859-1"?>
<!-- Generator: Adobe Illustrator 25.0.0, SVG Export Plug-In . SVG Version: 6.00 Build 0)  -->
<svg version="1.1" id="Layer_1" xmlns="http://www.w3.org/2000/svg" xmlns:xlink="http://www.w3.org/1999/xlink" x="0px" y="0px"
	 width="650px" height="500px" viewBox="0 0 650 500" enable-background="new 0 0 650 500" xml:space="preserve">
<path fill="#343467" d="M157.579,210.771h22.891c4.53,0,7.909,0.189,10.136,0.566c2.227,0.378,4.219,1.166,5.977,2.363
	c1.758,1.198,3.223,2.793,4.395,4.785s1.758,4.226,1.758,6.699c0,2.683-0.723,5.144-2.168,7.383c-1.445,2.24-3.404,3.92-5.879,5.039
	c3.49,1.016,6.172,2.748,8.047,5.195c1.875,2.448,2.812,5.326,2.812,8.633c0,2.604-0.605,5.137-1.816,7.598
	s-2.865,4.428-4.961,5.898c-2.096,1.472-4.682,2.377-7.754,2.715c-1.928,0.209-6.576,0.339-13.944,0.391h-19.492v-57.265
	L157.579,210.771L157.579,210.771z"/>
<path fill="#343467" d="M215.234,210.771h11.562v31.016c0,4.922,0.143,8.112,0.43,9.57c0.494,2.344,1.674,4.226,3.535,5.645
	c1.861,1.42,4.408,2.129,7.637,2.129c3.281,0,5.756-0.67,7.422-2.012c1.666-1.341,2.67-2.988,3.008-4.941s0.508-5.195,0.508-9.727
	v-31.68h11.562v30.078c0,6.875-0.312,11.732-0.938,14.57c-0.625,2.839-1.777,5.234-3.457,7.188s-3.926,3.51-6.738,4.668
	s-6.484,1.738-11.016,1.738c-5.469,0-9.615-0.632-12.441-1.895s-5.059-2.903-6.699-4.922c-1.641-2.018-2.721-4.134-3.242-6.348
	c-0.756-3.281-1.133-8.125-1.133-14.531L215.234,210.771L215.234,210.771z"/>
<path fill="#343467" d="M273.007,210.771h11.562v31.016c0,4.922,0.143,8.112,0.43,9.57c0.494,2.344,1.674,4.226,3.535,5.645
	c1.861,1.42,4.408,2.129,7.637,2.129c3.281,0,5.756-0.67,7.422-2.012c1.666-1.341,2.67-2.988,3.008-4.941s0.508-5.195,0.508-9.727
	v-31.68h11.562v30.078c0,6.875-0.312,11.732-0.938,14.57c-0.625,2.839-1.777,5.234-3.457,7.188s-3.926,3.51-6.738,4.668
	s-6.484,1.738-11.016,1.738c-5.469,0-9.615-0.632-12.441-1.895s-5.059-2.903-6.699-4.922c-1.641-2.018-2.721-4.134-3.242-6.348
	c-0.756-3.281-1.133-8.125-1.133-14.531V210.771z"/>
<path fill="#343467" d="M330.898,268.037v-57.266h24.336c6.119,0,10.566,0.515,13.34,1.543c2.773,1.029,4.994,2.858,6.66,5.488
	c1.666,2.631,2.5,5.639,2.5,9.023c0,4.297-1.264,7.846-3.789,10.645c-2.525,2.8-6.303,4.564-11.328,5.293
	c2.5,1.459,4.564,3.061,6.191,4.805c1.627,1.745,3.822,4.844,6.582,9.297l6.992,11.172h-13.828l-8.359-12.461
	c-2.969-4.453-5-7.259-6.094-8.418c-1.094-1.158-2.252-1.953-3.477-2.383s-3.164-0.645-5.82-0.645h-2.344v23.906h-11.562V268.037z"
	/>
<polygon fill="#343467" points="401.523,268.037 401.523,220.458 384.531,220.458 384.531,210.771 430.039,210.771 430.039,220.458 
	413.085,220.458 413.085,268.037 "/>
<path fill="#343467" d="M194.179,320.982l11.211,3.555c-1.719,6.25-4.576,10.893-8.574,13.926
	c-3.998,3.034-9.068,4.551-15.214,4.551c-7.604,0-13.854-2.598-18.75-7.793s-7.344-12.298-7.344-21.309
	c0-9.531,2.461-16.934,7.383-22.207s11.393-7.91,19.413-7.91c7.006,0,12.695,2.07,17.07,6.211c2.604,2.448,4.557,5.964,5.859,10.547
	l-11.445,2.734c-0.678-2.969-2.09-5.312-4.238-7.031s-4.76-2.578-7.831-2.578c-4.245,0-7.689,1.523-10.332,4.57
	c-2.644,3.047-3.965,7.982-3.965,14.805c0,7.24,1.302,12.396,3.906,15.469s5.989,4.609,10.156,4.609c3.071,0,5.716-0.977,7.929-2.93
	S193.216,325.175,194.179,320.982z"/>
<polygon fill="#F16522" points="244.023,284.771 231.796,284.771 209.492,342.037 221.757,342.037 254.375,342.037 266.953,342.037 
	"/>
<polygon fill="#343467" points="273.152,342.25 272.708,284.986 290.012,284.852 300.705,323.833 310.676,284.692 328.019,284.558 
	328.463,341.822 317.721,341.905 317.372,296.828 306.354,341.993 295.221,342.079 283.545,297.09 283.894,342.167 "/>
<path fill="#343467" d="M339.726,342.037v-57.266h18.555c7.031,0,11.615,0.287,13.75,0.859c3.281,0.859,6.029,2.729,8.242,5.605
	c2.213,2.878,3.32,6.596,3.32,11.152c0,3.516-0.639,6.472-1.914,8.867c-1.275,2.396-2.896,4.277-4.863,5.645
	s-3.965,2.272-5.996,2.715c-2.76,0.547-6.758,0.82-11.992,0.82h-7.539v21.602L339.726,342.037L339.726,342.037z"/>
<path fill="#343467" d="M393.007,284.771h11.562v31.016c0,4.922,0.143,8.112,0.43,9.57c0.494,2.344,1.674,4.226,3.535,5.645
	c1.861,1.42,4.408,2.129,7.637,2.129c3.281,0,5.756-0.67,7.422-2.012c1.666-1.341,2.67-2.988,3.008-4.941s0.508-5.195,0.508-9.727
	v-31.68h11.562v30.078c0,6.875-0.312,11.732-0.938,14.57c-0.625,2.839-1.777,5.234-3.457,7.188s-3.926,3.51-6.738,4.668
	s-6.484,1.738-11.016,1.738c-5.469,0-9.615-0.632-12.441-1.895s-5.059-2.903-6.699-4.922c-1.641-2.018-2.721-4.134-3.242-6.348
	c-0.756-3.281-1.133-8.125-1.133-14.531V284.771z"/>
<path fill="#343467" d="M447.929,323.404l11.25-1.094c0.678,3.776,2.051,6.55,4.121,8.32c2.07,1.771,4.863,2.656,8.379,2.656
	c3.725,0,6.529-0.787,8.418-2.363c1.889-1.575,2.832-3.418,2.832-5.527c0-1.354-0.396-2.506-1.191-3.457
	c-0.795-0.95-2.182-1.777-4.16-2.48c-1.354-0.469-4.439-1.302-9.258-2.5c-6.197-1.536-10.547-3.424-13.047-5.664
	c-3.516-3.15-5.273-6.992-5.273-11.523c0-2.916,0.826-5.645,2.48-8.184s4.037-4.473,7.148-5.801s6.869-1.992,11.27-1.992
	c7.188,0,12.598,1.576,16.23,4.727c3.633,3.151,5.541,7.357,5.723,12.617l-11.562,0.508c-0.494-2.942-1.557-5.059-3.184-6.348
	s-4.068-1.934-7.324-1.934c-3.359,0-5.99,0.69-7.891,2.07c-1.225,0.886-1.836,2.07-1.836,3.555c0,1.354,0.572,2.514,1.719,3.477
	c1.459,1.225,5,2.5,10.625,3.828s9.785,2.702,12.48,4.121c2.695,1.42,4.805,3.359,6.328,5.82s2.285,5.502,2.285,9.121
	c0,3.281-0.912,6.354-2.734,9.219c-1.822,2.865-4.4,4.994-7.734,6.387s-7.486,2.09-12.461,2.09c-7.24,0-12.799-1.673-16.68-5.02
	C451.001,334.687,448.685,329.81,447.929,323.404z"/>
<path fill="#343467" d="M431.757,252.763v-10.977h21.562v10.977H431.757z"/>
<path fill="#343467" d="M304.615,156.948H286.07H157.153v37.088H286.07v0h18.545l-18.545-18.544L304.615,156.948z M182.584,186.95
	h-4.641l-9.234-14.938v14.938h-4.297v-22.906h4.5l9.375,15.297v-15.297h4.297V186.95z M205.74,184.208
	c-2.011,2.089-4.698,3.133-8.062,3.133c-3.406,0-6.115-1.039-8.125-3.117c-2.011-2.078-3.016-4.939-3.016-8.586
	c0-2.333,0.349-4.291,1.047-5.875c0.521-1.166,1.231-2.213,2.133-3.141c0.9-0.927,1.888-1.614,2.961-2.062
	c1.427-0.604,3.072-0.906,4.938-0.906c3.375,0,6.075,1.047,8.102,3.141c2.025,2.094,3.039,5.006,3.039,8.734
	C208.755,179.226,207.75,182.12,205.74,184.208z M230.63,184.208c-2.011,2.089-4.698,3.133-8.062,3.133
	c-3.406,0-6.115-1.039-8.125-3.117c-2.011-2.078-3.016-4.939-3.016-8.586c0-2.333,0.349-4.291,1.047-5.875
	c0.521-1.166,1.231-2.213,2.133-3.141c0.9-0.927,1.888-1.614,2.961-2.062c1.427-0.604,3.072-0.906,4.938-0.906
	c3.375,0,6.075,1.047,8.102,3.141c2.025,2.094,3.039,5.006,3.039,8.734C233.646,179.226,232.64,182.12,230.63,184.208z
	 M252.334,186.95l-3.344-4.984c-1.188-1.781-2-2.903-2.438-3.367c-0.438-0.463-0.901-0.781-1.391-0.953
	c-0.49-0.172-1.266-0.258-2.328-0.258h-0.938v9.562h-4.625v-22.906h9.734c2.447,0,4.227,0.206,5.336,0.617
	c1.109,0.412,1.997,1.144,2.664,2.195c0.666,1.053,1,2.256,1,3.609c0,1.719-0.506,3.139-1.516,4.258
	c-1.011,1.12-2.521,1.826-4.531,2.117c1,0.584,1.825,1.225,2.477,1.922c0.65,0.698,1.528,1.938,2.633,3.719l2.797,4.469H252.334z
	 M278.849,180.59c-0.573,1.667-1.391,3.016-2.453,4.047c-0.803,0.781-1.886,1.391-3.25,1.828c-1.021,0.323-2.386,0.484-4.094,0.484
	h-8.703v-22.906h8.453c1.906,0,3.359,0.146,4.359,0.438c1.344,0.396,2.494,1.1,3.453,2.109c0.958,1.011,1.688,2.248,2.188,3.711
	c0.5,1.464,0.75,3.269,0.75,5.414C279.552,177.601,279.318,179.226,278.849,180.59z"/>
</svg>
